<svg width="103" height="89" viewBox="0 0 103 89" fill="none" xmlns="http://www.w3.org/2000/svg">
<path d="M90.864 1.17388C93.3475 2.00697 95.6765 3.25019 97.8511 4.69847C98.9448 5.42903 99.9999 6.21082 101.004 7.08235C101.544 7.55657 102.084 8.04362 102.535 8.62037C103.294 9.59444 103.101 11.0427 102.123 11.7989C101.132 12.5551 99.6911 12.3628 98.9319 11.3888C98.919 11.3631 98.9062 11.3503 98.8805 11.3375C98.636 11.0812 98.3786 10.8377 98.1084 10.5813C97.2462 9.85077 96.3327 9.17151 95.4062 8.51786C94.4283 7.87702 93.4246 7.28744 92.3824 6.73632C91.4302 6.2621 90.4651 5.83914 89.4614 5.48027C88.6379 5.21112 87.8015 4.98045 86.9522 4.7882C86.193 4.64722 85.4467 4.55748 84.6875 4.4934C83.9155 4.45495 83.1434 4.44212 82.3585 4.48057C81.5221 4.54466 80.6986 4.66002 79.888 4.81382C78.9744 5.00607 78.0865 5.24958 77.1986 5.53155C76.3622 5.82633 75.5516 6.17241 74.7538 6.55691C74.5737 6.64662 74.3935 6.74913 74.2134 6.85167C77.5718 9.1843 80.1839 12.6192 81.6379 16.4642C82.7703 19.4376 83.1821 22.6803 82.9504 25.846C82.7188 28.9476 81.4964 31.9211 79.592 34.3691C77.8935 36.5479 75.3972 38.3423 72.5278 38.3166C69.4653 38.291 67.445 35.6636 65.9009 33.3694C64.0995 30.6651 62.3752 27.7429 61.6803 24.5515C60.9598 21.2448 61.4488 17.8484 62.4653 14.657C63.1988 12.35 64.2925 10.184 65.7337 8.2615C65.0903 8.15897 64.4469 8.08208 63.7906 8.03081C63.0958 7.99236 62.4009 7.99235 61.7061 8.01798C60.8954 8.08207 60.1105 8.1846 59.3128 8.3384C58.4506 8.51783 57.6142 8.76137 56.7907 9.04334C56.0315 9.31249 55.2981 9.63288 54.5775 9.97893C53.8955 10.325 53.2392 10.7095 52.5959 11.1196C52.1584 11.4272 51.7337 11.7476 51.322 12.0937C50.9231 12.4654 50.5499 12.8371 50.1896 13.2344C49.8165 13.683 49.4562 14.1316 49.1088 14.6058C48.4011 15.6824 47.7963 16.8102 47.2043 17.9509C45.9047 20.5783 44.7724 23.2827 43.5629 25.9613C42.3919 28.5503 41.2596 31.1521 40.3074 33.8308C40.3331 33.7411 40.3717 33.6514 40.3974 33.5488C39.9342 34.8561 39.5353 36.1763 39.175 37.5092C40.0629 37.7143 40.9379 38.009 41.7614 38.3294C43.0353 38.8293 44.232 39.5214 45.3643 40.2776C46.2908 40.9056 47.0886 41.6746 47.8735 42.4692C48.7742 43.392 49.6492 44.3405 50.5113 45.3017C51.2834 46.1604 51.9783 47.0704 52.583 48.0573C53.3808 49.3646 53.8955 50.8385 54.1915 52.3253C54.4874 53.8376 54.5517 55.3372 54.3587 56.8624C54.1528 58.4645 53.5995 60.0153 52.9304 61.4636C51.7852 63.8859 49.8294 66.4108 47.1143 67.1542C45.8405 67.5002 44.5794 67.5002 43.2926 67.2695C41.8 67.0004 40.2817 66.4621 39.0592 65.5393C36.4986 63.604 35.2633 60.5407 34.2854 57.5929C33.1916 54.3118 32.9728 50.9026 33.1401 47.4677C33.2045 45.8913 33.346 44.3277 33.539 42.764C33.4103 42.8666 33.2817 42.9691 33.153 43.0845C32.6769 43.5202 32.2265 43.9816 31.789 44.4558C30.6824 45.7375 29.7045 47.1089 28.7266 48.4931C27.903 49.7748 27.0924 51.0436 26.3203 52.3509C25.5354 53.6838 24.802 55.0552 24.0685 56.4266C23.1421 58.3106 22.2542 60.2075 21.3792 62.1172C20.4528 64.1551 19.6034 66.2314 18.7284 68.2948C17.9049 70.243 17.0042 72.1655 16.1807 74.1265C15.3314 76.1643 14.5208 78.2022 13.7616 80.2785C13.6715 80.5348 13.5814 80.7911 13.5042 81.0475C14.5594 80.9065 15.6017 80.7911 16.6568 80.6629C18.1108 80.4963 19.5649 80.3169 21.0189 80.1503C21.7138 80.0734 22.3957 79.9965 23.0777 79.9196C23.438 79.8811 23.7983 79.8427 24.1586 79.8042C24.5961 79.753 25.0593 79.6376 25.5097 79.6505C26.5262 79.7017 27.427 80.3041 27.7101 81.3166C27.9803 82.2779 27.5556 83.3929 26.6678 83.8799C25.9215 84.2773 25.1237 84.5849 24.3388 84.9309C23.5796 85.2513 22.8203 85.5845 22.0483 85.8665C20.2082 86.533 18.3682 87.1226 16.4895 87.6609C15.6402 87.9044 14.791 88.1223 13.9418 88.353C13.0796 88.5837 12.2175 88.7759 11.3296 88.9169C10.3774 89.0579 9.3094 89.0579 8.43441 88.6093C7.86823 88.3145 7.40503 87.8659 7.17341 87.2892C7.12194 87.2764 7.0576 87.2635 7.00613 87.2379C6.51716 87.0841 6.13114 86.8278 5.80946 86.4433C5.42343 85.9562 5.21755 85.4308 5.01167 84.854C4.50984 83.3929 4.22675 81.8165 3.87932 80.3169C3.44183 78.4713 3.01721 76.6257 2.60545 74.7801C2.3481 73.601 2.0393 72.4347 1.82055 71.2427C1.61467 70.1277 1.42161 69.0254 1.21573 67.9232C0.829706 65.7699 0.75252 63.5655 0.430831 61.3995C-0.212546 60.5151 -0.13535 59.2463 0.662438 58.4645C1.53743 57.5929 3.00433 57.5929 3.87933 58.4645C4.39403 58.9771 4.74148 59.5795 4.87015 60.3101C4.99883 61.0534 5.06311 61.7968 5.14032 62.553C5.24326 63.4502 5.33333 64.3345 5.46201 65.2189C5.56495 66.0519 5.66791 66.885 5.80946 67.7181C5.97674 68.6537 6.14403 69.5765 6.31131 70.5121C6.77454 72.55 7.21205 74.575 7.68815 76.6001C7.89403 77.5101 8.11278 78.4328 8.33152 79.3428C8.47307 79.9324 8.60174 80.522 8.73041 81.1244C9.16791 79.7786 9.60542 78.4329 10.1073 77.1256C11.0208 74.7417 11.9987 72.409 13.0281 70.0764C13.9932 67.8976 14.9197 65.7059 15.859 63.5143C16.8112 61.3098 17.7506 59.0796 18.8057 56.9136C19.9381 54.6194 21.0961 52.3381 22.3957 50.1208C23.0649 48.9801 23.7597 47.8651 24.4803 46.75C25.1494 45.7247 25.8571 44.7378 26.5648 43.7509C27.4141 42.559 28.4049 41.4183 29.4471 40.3801C30.5795 39.2394 31.9049 38.3038 33.4232 37.727C33.7835 37.5861 34.1438 37.4835 34.517 37.4066C34.5298 37.3554 34.5427 37.3169 34.5427 37.2785C35.2504 34.305 36.2669 31.3572 37.4894 28.5503C38.5574 26.0895 39.6383 23.6415 40.732 21.1935C41.6456 19.1429 42.5463 17.0666 43.6014 15.08C44.3478 13.683 45.1456 12.3244 46.1235 11.0812C47.1401 9.7867 48.3367 8.65882 49.675 7.69756C52.2871 5.83915 55.401 4.57029 58.5407 3.96791C61.809 3.33989 65.1289 3.48088 68.3458 4.28833C68.719 4.37804 69.0792 4.4934 69.4524 4.60875C71.2667 3.25018 73.3384 2.19921 75.4615 1.44302C77.7777 0.609939 80.2096 0.16136 82.6802 0.0460096C82.9761 0.033193 83.2592 0.0203904 83.5552 0.0203904C86.0515 -0.107776 88.5221 0.37925 90.864 1.17388ZM73.0166 33.7539C73.1453 33.7283 73.2741 33.6898 73.4027 33.6514C73.5185 33.6001 73.6343 33.5617 73.7501 33.5104C73.9817 33.3822 74.2134 33.2412 74.445 33.1002C74.5737 33.0105 74.7023 32.908 74.831 32.8054C75.1141 32.5491 75.3843 32.2928 75.6288 32.0108C75.9634 31.6263 76.2721 31.2162 76.5681 30.7932C76.7997 30.4344 77.0056 30.0755 77.2115 29.7038C77.4302 29.2424 77.6233 28.7939 77.8034 28.3068C77.9578 27.807 78.0994 27.2943 78.2152 26.7688C78.3181 26.1792 78.3953 25.5896 78.4468 24.9873C78.4725 24.3208 78.4725 23.6543 78.421 22.9879C78.3567 22.1548 78.2409 21.3345 78.0737 20.5271C77.9193 19.835 77.7262 19.1429 77.5075 18.4636C77.263 17.7843 76.9799 17.1178 76.6582 16.477C76.3494 15.9003 76.0148 15.3363 75.6674 14.7852C75.1913 14.1059 74.6894 13.4523 74.149 12.8242C73.763 12.4013 73.3641 12.004 72.9394 11.6067C72.4505 11.1965 71.9487 10.7992 71.434 10.4404C71.0737 10.2097 70.7134 10.0046 70.3531 9.79952C70.2502 9.90206 70.1601 10.0046 70.0571 10.1071C69.6968 10.5172 69.3623 10.9402 69.0406 11.3888C68.6289 12.004 68.2557 12.6448 67.9211 13.2985C67.548 14.0803 67.2005 14.8749 66.9046 15.6824C66.6343 16.5155 66.4028 17.3485 66.2097 18.2073C66.0682 18.9634 65.9524 19.7196 65.8881 20.4886C65.8623 21.0141 65.8623 21.5396 65.8881 22.0651C65.9395 22.5521 66.0039 23.0391 66.094 23.5262C66.1841 23.9491 66.2998 24.3593 66.4285 24.7694C66.7244 25.5897 67.0847 26.3843 67.4707 27.1661C68.1527 28.4478 68.912 29.7038 69.7098 30.9086C70.1215 31.511 70.5461 32.1005 71.0093 32.6645C71.2281 32.908 71.4468 33.1259 71.6784 33.3566C71.7557 33.4206 71.8329 33.4719 71.9101 33.5232C72.013 33.5873 72.1031 33.6514 72.2061 33.7026C72.2318 33.7154 72.2575 33.7283 72.2833 33.7283C72.3347 33.7411 72.3862 33.7539 72.4377 33.7667C72.4891 33.7795 72.5277 33.7795 72.5792 33.7924C72.6564 33.7924 72.7336 33.7924 72.8108 33.7924C72.8751 33.7667 72.9523 33.7667 73.0166 33.7539ZM45.3643 62.8606C45.4544 62.8478 45.5445 62.835 45.6345 62.8221C45.7246 62.7965 45.8147 62.7709 45.9048 62.7452C46.0206 62.7068 46.1363 62.6555 46.2522 62.6042C46.3422 62.553 46.4323 62.5017 46.5224 62.4504C46.6897 62.3351 46.857 62.1941 47.0243 62.066C47.2044 61.8865 47.3845 61.7071 47.5518 61.5148C47.7191 61.3097 47.8735 61.1047 48.0279 60.8996C48.2466 60.5536 48.4525 60.2075 48.6455 59.8615C48.9157 59.3104 49.1602 58.7464 49.379 58.1697C49.5205 57.7339 49.6492 57.2981 49.7522 56.8496C49.8294 56.4266 49.8937 56.0165 49.9323 55.5935C49.9451 55.1834 49.9452 54.7861 49.9195 54.376C49.868 53.9658 49.8165 53.5557 49.7393 53.1455C49.6364 52.7098 49.5205 52.2868 49.3918 51.8639C49.2632 51.5178 49.1216 51.1846 48.9672 50.8514C48.7742 50.5053 48.5812 50.1592 48.3625 49.826C48.0536 49.3902 47.7191 48.9545 47.3716 48.5443C46.1492 47.1729 44.914 45.7888 43.5371 44.5584C43.1897 44.2764 42.8294 44.0072 42.4562 43.7509C42.0187 43.4689 41.5684 43.2126 41.118 42.9691C40.5904 42.7127 40.05 42.4821 39.5096 42.277C39.0978 42.136 38.686 42.0207 38.2743 41.9053C38.0426 43.392 37.8754 44.8916 37.7725 46.3911C37.6695 48.0573 37.618 49.7363 37.7081 51.4153C37.7724 52.2868 37.9011 53.1327 38.0684 53.9914C38.2872 54.9399 38.5445 55.8755 38.8533 56.7983C39.1493 57.6442 39.4839 58.4773 39.8699 59.2847C40.1144 59.7718 40.3846 60.2332 40.6806 60.6946C40.7835 60.8484 40.9121 60.9894 41.0279 61.1432C40.9893 61.1047 40.9508 61.0534 40.9122 61.015C40.9508 61.0662 40.9893 61.1047 41.0279 61.1559C41.0408 61.1559 41.0537 61.1688 41.0537 61.1816C41.1952 61.3226 41.3239 61.4764 41.4783 61.6174C41.5813 61.6943 41.6713 61.7712 41.7743 61.8481C41.9802 61.989 42.1989 62.1172 42.4177 62.2326C42.5721 62.3095 42.7265 62.3735 42.8937 62.4376C43.2798 62.5658 43.6529 62.6683 44.039 62.758C44.2963 62.8093 44.5408 62.835 44.811 62.8734C44.8882 62.8734 44.9654 62.8734 45.0426 62.8734C45.1455 62.8734 45.2614 62.8734 45.3643 62.8606Z" fill="#18B490"/>
</svg>
