<svg width="700" height="633" viewBox="0 0 700 633" fill="none" xmlns="http://www.w3.org/2000/svg">
<path fill-rule="evenodd" clip-rule="evenodd" d="M348.403 131.367C426.812 134.937 509.493 113.901 573.109 159.876C645.419 212.133 709.017 295.955 698.784 384.582C688.935 469.881 596.738 513.248 526.591 562.77C472.482 600.971 414.482 636.51 348.403 631.946C286.008 627.636 243.943 576.363 193.239 539.747C124.896 490.392 24.5083 466.796 5.86923 384.582C-14.3841 295.248 28.5962 192.888 102.256 138.435C170.873 87.7105 263.161 127.485 348.403 131.367Z" fill="#E9E7FF"/>
<path fill-rule="evenodd" clip-rule="evenodd" d="M108.844 516.676C131.264 515.04 155.998 503.577 173.764 515.027C192.052 526.814 190.139 549.627 189.757 568.823C189.382 587.589 190.594 610.577 171.652 620.868C153.233 630.876 130.836 613.788 108.844 612.782C89.3569 611.889 67.9141 625.457 52.6122 615.419C37.0566 605.214 41.509 585.261 41.8349 568.823C42.1529 552.787 40.3222 534.712 54.4303 523.733C68.3422 512.907 89.8324 518.063 108.844 516.676Z" fill="#7854FC"/>
<path fill-rule="evenodd" clip-rule="evenodd" d="M391.68 0.15604C410.667 -1.84961 424.922 15.8946 438.329 29.4997C451.601 42.9689 469.944 57.5681 466.6 76.187C463.323 94.4319 437.228 95.5569 424.112 108.646C411.038 121.692 410.096 149.651 391.68 150.95C373.422 152.237 364.882 128.535 354.334 113.565C346.271 102.122 339.074 90.1881 339.001 76.187C338.927 62.1101 345.924 49.982 353.939 38.4141C364.546 23.1047 373.168 2.1115 391.68 0.15604Z" fill="#7854FC"/>
</svg>
