<svg width="266" height="117" viewBox="0 0 266 117" fill="none" xmlns="http://www.w3.org/2000/svg">
<path d="M41.1878 50.9968C41.3867 51.936 41.3323 52.6834 41.0248 53.2392C40.7486 53.7883 40.1722 54.1557 39.2956 54.3413C39.3722 55.012 39.4733 56.1845 39.5989 57.8588C39.7499 60.1165 39.8363 61.3739 39.858 61.631C41.4673 82.9767 37.8577 94.5844 29.0295 96.4539C26.4312 97.0041 24.2405 96.6994 22.4575 95.5396C20.7059 94.3732 19.5947 92.6786 19.124 90.4559C18.282 86.4801 19.23 82.6159 21.968 78.8632C24.6993 75.0793 28.6077 71.6021 33.6932 68.4317C33.5669 66.1361 33.412 64.0918 33.2286 62.2989L32.5723 55.0292C30.6541 55.2391 28.8811 55.5165 27.2532 55.8612C22.9017 56.7827 19.7824 57.8849 17.8952 59.1677C16.008 60.4505 15.2666 62.0467 15.671 63.9564C15.8699 64.8955 16.3985 65.8467 17.2566 66.8098C17.5107 67.0831 17.6743 67.3919 17.7472 67.7362C17.8864 68.3937 17.668 69.0614 17.092 69.7395C16.5406 70.3796 15.8736 70.7825 15.091 70.9482C14.0892 71.1604 13.2327 70.9002 12.5215 70.1676C11.34 68.9132 10.547 67.3311 10.1426 65.4215C8.55154 57.9081 14.3302 52.7592 27.4786 49.9748C31.2979 49.166 34.7898 48.819 37.9542 48.9339C39.8315 48.9943 40.9093 49.6819 41.1878 50.9968ZM28.5759 91.3C30.1099 90.9752 31.3986 89.492 32.442 86.8506C33.4854 84.2091 33.973 79.8699 33.9049 73.8331C26.9756 78.8004 24.0248 83.7103 25.0524 88.5626C25.2778 89.627 25.7039 90.4036 26.3308 90.8923C26.951 91.3498 27.6994 91.4857 28.5759 91.3ZM68.7833 67.7226C69.1902 67.6364 69.5464 67.7736 69.8517 68.1342C70.157 68.4947 70.376 68.9881 70.5086 69.6142C70.8268 71.1169 70.5618 72.1052 69.7136 72.5792C67.9745 73.6344 65.9879 74.4476 63.7537 75.0189C63.7158 77.7745 62.9894 80.1363 61.5743 82.1041C60.1527 84.0407 58.3305 85.2443 56.1078 85.715C54.2295 86.1127 52.5211 86.0002 50.9827 85.3774C49.4756 84.748 48.2186 83.7549 47.2116 82.3981C46.2047 81.0412 45.5156 79.4863 45.1443 77.7332C44.6405 75.3539 44.6469 73.1447 45.1636 71.1054C45.6737 69.0348 46.6177 67.3139 47.9955 65.9427C49.3667 64.5402 51.0228 63.6334 52.9637 63.2224C55.3429 62.7185 57.4283 63.1437 59.2197 64.4979C61.0358 65.8143 62.3243 67.6512 63.0853 70.0087C64.5367 69.6032 66.2236 68.9188 68.1457 67.9557C68.3829 67.8401 68.5954 67.7624 68.7833 67.7226ZM55.4294 80.6578C56.4312 80.4457 57.2059 79.8564 57.7536 78.8899C58.3325 77.9169 58.5848 76.6368 58.5104 75.0498C57.4007 74.5979 56.467 73.8961 55.7094 72.9444C54.9831 71.9861 54.494 70.9121 54.2421 69.7225C54.136 69.2216 54.0769 68.7108 54.0648 68.19L53.83 68.2397C52.5777 68.5049 51.6583 69.3375 51.0716 70.7374C50.5096 72.0994 50.4606 73.8761 50.9246 76.0675C51.2893 77.7893 51.8964 79.0345 52.7461 79.8032C53.6271 80.5652 54.5215 80.8501 55.4294 80.6578ZM73.9132 81.9443C72.5044 82.2427 71.2102 81.8462 70.0305 80.7549C68.8755 79.6257 68.0925 78.0906 67.6815 76.1497C67.1843 73.8017 66.8867 71.6242 66.7887 69.6169C66.6841 67.5783 66.7598 65.3871 67.0157 63.0432C67.1299 62.0378 67.4256 61.2719 67.903 60.7456C68.3803 60.2193 69.2294 59.8268 70.4503 59.5683C71.139 59.4224 71.6318 59.4326 71.9287 59.5987C72.2568 59.7581 72.4673 60.057 72.5601 60.4953C72.6132 60.7458 72.62 61.6275 72.5806 63.1405C72.5128 64.3651 72.4845 65.4668 72.4955 66.4458C72.5655 69.8655 72.7165 72.1232 72.9486 73.2189C73.0878 73.8763 73.2655 74.3293 73.4817 74.5779C73.6913 74.7952 73.9682 74.8674 74.3126 74.7945C74.7822 74.695 75.2619 74.1028 75.7517 73.0178C76.2729 71.9261 76.7226 70.3426 77.1008 68.2672C77.5103 66.1852 77.7958 63.6715 77.9571 60.7262C78.0086 59.734 78.2418 58.9814 78.6565 58.4683C79.1025 57.9486 79.842 57.5794 80.8751 57.3606C81.5952 57.2082 82.1159 57.196 82.4375 57.3242C82.7524 57.421 82.9595 57.7043 83.059 58.1738C83.2247 58.9565 83.2875 61.1838 83.2474 64.8558C83.2194 69.0485 83.3049 71.6145 83.5038 72.5537C83.6297 73.1485 83.8544 73.5916 84.1778 73.8829C84.4945 74.1429 84.8564 74.2298 85.2633 74.1436C85.8895 74.011 86.5456 73.4796 87.2317 72.5492C87.9426 71.581 88.8357 70.0835 89.9111 68.0567C90.194 67.5388 90.5702 67.2302 91.0398 67.1308C91.4468 67.0446 91.7996 67.1661 92.0983 67.4954C92.4283 67.818 92.6629 68.308 92.8021 68.9655C93.0673 70.2177 92.9754 71.2511 92.5265 72.0658C91.5317 74.0101 90.3643 75.6802 89.0245 77.0761C87.7159 78.4653 86.0755 79.3688 84.1032 79.7864C82.6005 80.1046 81.3665 79.7608 80.4012 78.755C79.4672 77.7425 78.7781 76.1876 78.3339 74.0901C78.2525 76.3316 77.8023 78.1442 76.9832 79.5279C76.1574 80.8803 75.1341 81.6858 73.9132 81.9443ZM94.1483 77.6592C92.9587 77.9111 91.9808 77.464 91.2148 76.3178C90.48 75.165 89.8209 73.2112 89.2375 70.4563C88.3757 66.3865 88.1361 62.3976 88.5187 58.4896C88.6082 57.522 88.9229 56.7685 89.4629 56.2289C90.0275 55.6514 90.8889 55.24 92.0472 54.9947C92.6733 54.8621 93.1282 54.8476 93.4118 54.9511C93.6954 55.0546 93.8836 55.3255 93.9764 55.7637C94.0825 56.2646 94.0864 57.4414 93.988 59.2939C93.9402 60.6125 93.9217 61.7612 93.9328 62.7401C93.9438 63.7191 94.0326 64.9106 94.1991 66.3145C94.662 63.4035 95.3563 60.9668 96.2818 59.0044C97.2074 57.0421 98.2043 55.5717 99.2728 54.5931C100.373 53.6079 101.439 53.0059 102.472 52.7871C104.507 52.3562 105.74 53.1581 106.171 55.193C106.257 55.6 106.325 56.6159 106.375 58.2409C106.389 59.5462 106.43 60.3553 106.496 60.6684C106.728 61.7641 107.236 62.2291 108.018 62.0633C108.895 61.8777 109.876 60.9503 110.962 59.2812C111.282 58.788 111.662 58.495 112.1 58.4022C112.507 58.316 112.86 58.4375 113.159 58.7668C113.482 59.0581 113.707 59.5012 113.833 60.096C114.078 61.2543 113.957 62.2285 113.47 63.0185C112.786 64.112 111.919 65.1134 110.868 66.0228C109.843 66.8942 108.672 67.4691 107.357 67.7475C105.698 68.0989 104.341 67.9448 103.285 67.2851C102.261 66.6189 101.596 65.5657 101.291 64.1257C101.192 63.6561 101.14 63.1766 101.134 62.6871C101.064 62.0477 101.006 61.6184 100.959 61.3993C100.853 60.8984 100.628 60.6844 100.284 60.7574C99.8142 60.8568 99.3008 61.5216 98.7436 62.7517C98.211 63.9439 97.7514 65.4805 97.3647 67.3614C96.978 69.2423 96.752 71.1873 96.6868 73.1964C96.6541 74.7407 96.4592 75.8287 96.1023 76.4603C95.7701 77.054 95.1188 77.4537 94.1483 77.6592ZM115.518 73.1337C114.329 73.3856 113.351 72.9385 112.585 71.7924C111.85 70.6396 111.191 68.6857 110.607 65.9308C109.745 61.8611 109.506 57.8722 109.889 53.9641C109.978 52.9966 110.293 52.243 110.833 51.7035C111.397 51.126 112.259 50.7146 113.417 50.4693C114.043 50.3367 114.498 50.3221 114.782 50.4256C115.065 50.5291 115.253 50.8 115.346 51.2383C115.452 51.7392 115.456 52.9159 115.358 54.7685C115.31 56.087 115.292 57.2357 115.303 58.2147C115.314 59.1936 115.402 60.3851 115.569 61.7891C116.032 58.878 116.726 56.4413 117.652 54.479C118.577 52.5166 119.574 51.0462 120.643 50.0676C121.742 49.0824 122.809 48.4804 123.842 48.2616C125.877 47.8307 127.11 48.6327 127.541 50.6675C127.799 51.8885 127.922 54.1684 127.91 57.5075C127.892 60.357 127.975 62.2201 128.161 63.0967C128.426 64.3489 129.013 64.8789 129.921 64.6866C130.547 64.554 131.203 64.0226 131.889 63.0922C132.6 62.124 133.493 60.6264 134.568 58.5997C134.851 58.0818 135.227 57.7732 135.697 57.6737C136.104 57.5876 136.457 57.7091 136.756 58.0384C137.086 58.361 137.32 58.851 137.459 59.5084C137.725 60.7607 137.633 61.7941 137.184 62.6088C136.189 64.5531 135.022 66.2232 133.682 67.619C132.373 69.0083 130.733 69.9117 128.76 70.3294C127.164 70.6675 125.862 70.4688 124.856 69.7333C123.843 68.9665 123.151 67.7065 122.78 65.9534C122.594 65.0769 122.482 63.4652 122.443 61.1183C122.432 59.0599 122.348 57.655 122.188 56.9037C122.082 56.4028 121.857 56.1888 121.513 56.2617C121.106 56.3479 120.639 57.0028 120.113 58.2263C119.612 59.4118 119.153 60.9484 118.734 62.8359C118.348 64.7169 118.122 66.6619 118.057 68.671C118.024 70.2153 117.829 71.3032 117.472 71.9349C117.14 72.5286 116.489 72.9282 115.518 73.1337ZM154.156 53.7647C154.563 53.6785 154.916 53.8 155.215 54.1293C155.545 54.4519 155.779 54.9419 155.918 55.5994C156.184 56.8516 156.092 57.885 155.643 58.6997C154.783 60.3538 153.414 62.001 151.538 63.6415C149.692 65.2753 147.564 66.3474 145.153 66.8579C141.866 67.554 139.126 67.2021 136.932 65.8022C134.739 64.4023 133.314 62.1527 132.657 59.0534C132.2 56.8933 132.23 54.7936 132.746 52.7543C133.256 50.6837 134.194 48.9315 135.558 47.4977C136.954 46.0573 138.67 45.1216 140.704 44.6907C142.52 44.3061 144.092 44.5457 145.42 45.4094C146.741 46.2417 147.597 47.5814 147.988 49.4285C148.445 51.5886 148.057 53.617 146.823 55.5138C145.614 57.3726 143.259 59.1471 139.757 60.8372C140.845 62.1116 142.484 62.5167 144.676 62.0526C146.084 61.7543 147.578 60.931 149.157 59.5826C150.761 58.1963 152.051 56.5656 153.028 54.6906C153.31 54.1728 153.687 53.8641 154.156 53.7647ZM140.881 49.4617C139.722 49.7069 138.879 50.5889 138.35 52.1074C137.852 53.6193 137.806 55.33 138.21 57.2397L138.23 57.3336C139.984 56.5042 141.301 55.5385 142.18 54.4365C143.058 53.3345 143.375 52.2044 143.13 51.0461C143.004 50.4513 142.732 50.0182 142.315 49.7467C141.922 49.4373 141.444 49.3423 140.881 49.4617ZM165.667 39.4044C166.387 39.252 166.907 39.2398 167.229 39.368C167.55 39.4961 167.758 39.7794 167.85 40.2176C168.01 40.969 168.169 43.7318 168.33 48.5061C168.545 53.0727 168.676 55.7762 168.723 56.6167C169.268 64.9076 169.021 71.6164 167.98 76.7432C166.94 81.87 164.729 84.7914 161.348 85.5073C159.752 85.8455 158.346 85.6197 157.132 84.8301C155.925 84.0717 155.152 82.8943 154.814 81.2977C154.503 79.8263 154.513 78.254 154.846 76.5808C155.21 74.901 156.087 72.867 157.479 70.4789C158.908 68.1155 161.026 65.2956 163.832 62.0192L163.744 60.9093C163.718 59.7046 163.617 57.9923 163.441 55.7726C163.293 58.1592 162.781 60.0666 161.906 61.4949C161.024 62.8919 159.957 63.723 158.705 63.9881C157.296 64.2865 156.002 63.89 154.822 62.7987C153.667 61.6695 152.884 60.1344 152.473 58.1935C151.976 55.8455 151.678 53.668 151.58 51.6607C151.476 49.6222 151.551 47.4309 151.807 45.087C151.921 44.0816 152.217 43.3157 152.694 42.7894C153.172 42.2631 154.021 41.8706 155.242 41.6121C155.93 41.4662 156.423 41.4764 156.72 41.6425C157.048 41.8019 157.259 42.1008 157.352 42.5391C157.405 42.7896 157.411 43.6713 157.372 45.1843C157.304 46.4089 157.276 47.5106 157.287 48.4896C157.308 49.8262 157.351 51.1091 157.415 52.3385C157.473 53.5366 157.581 54.5113 157.74 55.2627C157.992 56.4523 158.447 56.9775 159.104 56.8383C159.574 56.7388 160.053 56.1466 160.543 55.0616C161.064 53.9699 161.514 52.3864 161.892 50.311C162.302 48.229 162.587 45.7153 162.749 42.77C162.8 41.7778 163.033 41.0252 163.448 40.5121C163.894 39.9924 164.633 39.6232 165.667 39.4044ZM160.9 80.843C161.683 80.6772 162.367 79.5837 162.953 77.5625C163.539 75.5412 163.87 72.3147 163.945 67.8829C161.966 70.4283 160.604 72.6466 159.859 74.5378C159.153 76.4537 158.932 78.0378 159.197 79.29C159.31 79.8222 159.497 80.2406 159.758 80.5452C160.05 80.8432 160.431 80.9424 160.9 80.843Z" fill="#18B490"/>
<path fill-rule="evenodd" clip-rule="evenodd" d="M259.655 17.498C260.395 18.778 261.415 19.848 262.535 20.798C262.835 21.058 263.205 21.178 263.585 21.168C264.135 21.168 264.685 20.918 265.025 20.478C265.635 19.688 265.435 18.618 264.705 17.998C264.655 17.958 264.615 17.918 264.565 17.878C264.215 17.548 263.865 17.218 263.535 16.868C263.355 16.648 263.175 16.418 263.005 16.178C262.431 15.2917 261.909 14.3714 261.387 13.4531C261.109 12.9624 260.83 12.4722 260.545 11.988C259.843 10.7995 259.056 9.64893 258.277 8.50859L258.215 8.41802C258.126 8.28755 258.037 8.15682 257.948 8.02594C256.926 6.52181 255.891 4.99875 254.695 3.62801C254.055 2.90801 253.405 2.20802 252.685 1.56801L252.651 1.53889C252.101 1.05676 251.501 0.532084 250.825 0.238009C250.165 -0.0419901 249.455 -0.121992 248.815 0.258005C248.535 0.418009 248.285 0.668017 248.145 0.95801C248.047 1.14759 247.98 1.3476 247.946 1.54963C247.697 1.68292 247.456 1.83044 247.225 1.998C245.89 2.92802 244.68 4.04116 243.478 5.14702C243.194 5.40859 242.91 5.66976 242.625 5.928L242.635 5.91799C241.315 7.05799 239.985 8.16799 238.595 9.20799C237.175 10.278 235.725 11.308 234.265 12.318C233.615 12.748 232.955 13.168 232.285 13.578L231.175 14.238C230.575 14.588 230.195 15.168 230.195 15.878C230.195 16.848 231.005 17.638 231.965 17.648C232.425 17.658 232.785 17.508 233.175 17.288C233.355 17.188 233.515 17.058 233.635 16.898C234.735 16.238 235.815 15.558 236.865 14.828C238.185 13.908 239.475 12.978 240.765 12.018C242.005 11.098 243.195 10.118 244.365 9.108C245.282 8.31429 246.187 7.50008 247.088 6.68797C247.277 6.51782 247.466 6.34776 247.655 6.178C248.175 5.72799 248.705 5.288 249.265 4.88799C249.301 4.85868 249.343 4.83472 249.383 4.8122C249.397 4.80401 249.411 4.796 249.425 4.78799C249.435 4.80393 249.443 4.81704 249.45 4.82884C249.455 4.83924 249.46 4.84862 249.465 4.858C249.525 4.98799 249.585 5.11799 249.635 5.248C249.795 5.748 249.915 6.23799 250.025 6.748L250.06 6.93899C250.408 8.85658 250.76 10.7926 250.935 12.738C251.02 14.0373 250.974 15.322 250.928 16.617C250.92 16.837 250.912 17.0573 250.905 17.278C250.885 17.5399 250.866 17.8014 250.848 18.0625C250.781 18.9979 250.714 19.9299 250.605 20.868C250.455 22.098 250.265 23.318 250.065 24.548C250.032 24.7045 250 24.861 249.968 25.0174C249.802 25.8307 249.636 26.6429 249.435 27.448L249.432 27.458C249.113 28.6946 248.794 29.9313 248.455 31.158C248.195 32.1065 247.916 33.0549 247.639 33.9981C247.574 34.2184 247.509 34.4384 247.445 34.658C247.256 35.32 247.03 35.9683 246.805 36.6152C246.697 36.926 246.589 37.2365 246.485 37.548C246.496 37.5021 246.511 37.4594 246.525 37.4182C246.536 37.3876 246.546 37.3578 246.555 37.328L246.495 37.4852C245.885 39.0921 245.28 40.6885 244.515 42.238C243.905 43.418 243.215 44.548 242.485 45.648C241.855 46.568 241.175 47.448 240.455 48.288C239.825 48.988 239.155 49.648 238.445 50.278C237.605 51.008 236.735 51.678 235.825 52.318C235.145 52.768 234.455 53.178 233.735 53.558C233.045 53.898 232.335 54.188 231.605 54.448C230.845 54.688 230.085 54.898 229.315 55.068C228.355 55.258 227.395 55.388 226.425 55.458C225.415 55.508 224.395 55.498 223.375 55.438C223.145 55.418 222.925 55.398 222.695 55.378C224.445 53.948 226.085 52.348 227.425 50.528C228.925 48.498 230.335 46.118 230.585 43.548C230.825 41.098 230.275 38.688 229.205 36.488C228.195 34.418 226.715 32.458 224.875 31.048C222.845 29.488 220.465 28.558 217.915 28.348C215.405 28.138 212.915 28.758 210.805 30.138C208.735 31.488 207.325 33.628 206.735 36.008C206.095 38.578 205.965 41.308 206.205 43.938C206.435 46.448 206.955 49.028 208.165 51.258C209.355 53.448 211.245 55.248 213.435 56.428C213.575 56.498 213.705 56.568 213.845 56.638C213.485 56.788 213.115 56.928 212.755 57.058C211.615 57.448 210.455 57.768 209.275 58.018C208.308 58.2016 207.342 58.3386 206.357 58.4288C206.324 58.4298 206.29 58.4322 206.257 58.4377C206.249 58.4379 206.242 58.438 206.235 58.438C205.065 58.508 203.895 58.508 202.725 58.438H202.715C202.677 58.438 202.636 58.4341 202.594 58.4312C201.172 58.3105 199.778 58.113 198.385 57.848L197.974 57.7532C196.513 57.4167 195.062 57.0826 193.645 56.598C193.035 56.378 192.425 56.128 191.835 55.858C191.355 55.608 190.895 55.348 190.445 55.058C189.965 54.718 189.505 54.358 189.055 53.978C188.575 53.528 188.115 53.058 187.665 52.568C186.885 51.678 186.145 50.748 185.465 49.768C185.225 49.408 185.005 49.038 184.805 48.658C184.705 48.458 184.615 48.258 184.535 48.048C184.501 47.9479 184.477 47.8478 184.452 47.7477C184.44 47.6978 184.428 47.6479 184.415 47.598C184.405 47.548 184.405 47.488 184.395 47.438C184.389 47.3673 184.387 47.2966 184.386 47.2244C184.385 47.1637 184.385 47.1019 184.385 47.038C184.385 46.068 183.585 45.268 182.615 45.268C181.645 45.268 180.845 46.078 180.845 47.038V47.148C180.865 47.978 180.995 48.798 181.325 49.568C181.715 50.488 182.225 51.358 182.805 52.158C183.385 52.958 184.015 53.728 184.645 54.498C185.815 55.948 187.255 57.258 188.845 58.238C190.615 59.328 192.555 60.038 194.545 60.578C197.145 61.288 199.825 61.788 202.515 61.968C203.155 62.008 203.785 62.028 204.405 62.018C208.075 62.018 211.745 61.318 215.145 59.918C216.285 59.448 217.405 58.898 218.485 58.288C219.215 58.458 219.945 58.588 220.685 58.698C225.855 59.448 231.325 58.948 235.955 56.388C237.175 55.718 238.335 54.938 239.425 54.068C240.395 53.288 241.355 52.468 242.225 51.578C243.965 49.768 245.455 47.718 246.715 45.548C248.195 43.008 249.275 40.278 250.215 37.508C250.845 35.668 251.395 33.808 251.905 31.928C252.175 30.958 252.435 29.978 252.685 28.998C252.925 28.048 253.135 27.098 253.335 26.138C253.745 24.218 253.995 22.278 254.215 20.328C254.29 19.6378 254.331 18.9476 254.372 18.2575C254.386 18.0276 254.4 17.7978 254.415 17.568C254.505 16.388 254.535 15.188 254.515 14.008C254.486 12.1179 254.216 10.2436 253.894 8.38121C254.432 9.13248 254.951 9.89637 255.47 10.6589L255.585 10.828L255.764 11.1005C256.635 12.4199 257.509 13.7433 258.295 15.128C258.745 15.928 259.195 16.708 259.655 17.498ZM206.259 58.4376C206.292 58.4347 206.324 58.4318 206.357 58.4288C206.383 58.428 206.409 58.428 206.435 58.428C206.4 58.428 206.367 58.4305 206.335 58.433C206.31 58.4349 206.285 58.4368 206.259 58.4376ZM206.259 58.4376L206.255 58.438L206.257 58.4377L206.259 58.4376ZM215.315 32.008C215.655 31.948 215.995 31.908 216.345 31.868C216.545 31.858 216.745 31.858 216.955 31.848C217.155 31.848 217.345 31.848 217.545 31.858C217.985 31.898 218.425 31.958 218.865 32.038C219.305 32.138 219.745 32.268 220.175 32.408C220.495 32.538 220.815 32.678 221.135 32.828C221.485 33.018 221.825 33.218 222.165 33.438C222.485 33.658 222.785 33.888 223.085 34.138C223.435 34.448 223.755 34.768 224.075 35.108C224.485 35.588 224.865 36.088 225.225 36.608C225.505 37.048 225.765 37.498 226.005 37.958C226.235 38.428 226.435 38.908 226.605 39.388C226.735 39.798 226.845 40.218 226.945 40.638C227.015 41.018 227.065 41.418 227.105 41.808C227.125 42.148 227.125 42.478 227.115 42.808C227.085 43.088 227.055 43.358 227.005 43.638C226.925 43.958 226.845 44.278 226.745 44.598C226.585 45.038 226.395 45.458 226.195 45.878C225.875 46.498 225.525 47.088 225.135 47.668C224.655 48.348 224.145 49.008 223.605 49.638C222.888 50.4416 222.134 51.1891 221.334 51.9074C220.412 52.7084 219.461 53.4707 218.455 54.158C218.295 54.268 218.125 54.378 217.955 54.488C217.735 54.418 217.505 54.348 217.285 54.278C216.725 54.078 216.175 53.848 215.625 53.578C215.165 53.338 214.705 53.068 214.265 52.778C213.885 52.508 213.515 52.218 213.155 51.918C212.875 51.648 212.605 51.378 212.345 51.098C212.115 50.818 211.895 50.528 211.685 50.228C211.545 49.998 211.415 49.778 211.285 49.548C211.035 49.028 210.815 48.508 210.615 47.968C210.395 47.288 210.215 46.608 210.065 45.908C209.895 45.018 209.785 44.128 209.715 43.228C209.665 42.158 209.655 41.088 209.715 40.018C209.775 39.248 209.855 38.488 209.995 37.718C210.115 37.178 210.255 36.648 210.425 36.128C210.481 35.9863 210.538 35.8478 210.597 35.7107C210.641 35.6059 210.687 35.502 210.735 35.398C210.885 35.128 211.035 34.858 211.205 34.598C211.345 34.418 211.485 34.248 211.625 34.078C211.795 33.898 211.955 33.738 212.135 33.578C212.315 33.418 212.505 33.268 212.705 33.128C212.995 32.948 213.285 32.778 213.585 32.618C213.885 32.478 214.185 32.348 214.495 32.238C214.765 32.148 215.035 32.078 215.315 32.008Z" fill="#18B490"/>
</svg>
