<svg width="266" height="139" viewBox="0 0 266 139" fill="none" xmlns="http://www.w3.org/2000/svg">
<path d="M131.307 94.7599C127.196 95.8614 123.697 95.9707 120.811 95.0878C117.915 94.174 116.037 92.1098 115.176 88.8952C114.72 87.1951 114.666 85.8183 115.013 84.7645C115.36 83.7108 116.106 83.0307 117.249 82.7242C118.084 82.5006 118.822 82.5348 119.463 82.8267C120.105 83.1187 120.516 83.6046 120.699 84.2846C120.864 84.9028 120.963 85.4562 120.994 85.9447C121.028 86.0683 121.055 86.293 121.076 86.6186C121.128 86.936 121.199 87.2647 121.29 87.6047C121.663 88.9956 122.636 89.8448 124.209 90.1521C125.813 90.4511 127.882 90.261 130.417 89.5819C133.044 88.8779 134.975 87.8635 136.211 86.5387C137.438 85.1829 137.823 83.655 137.368 81.955C137.086 80.9041 136.506 80.0988 135.627 79.5392C134.74 78.9486 133.72 78.5428 132.568 78.3215C131.407 78.0694 129.8 77.8208 127.746 77.5759C125.118 77.2864 122.935 76.9272 121.196 76.4985C119.489 76.0615 117.904 75.277 116.441 74.145C115.001 72.9739 113.995 71.3219 113.424 69.1892C112.827 66.9637 112.885 64.8281 113.595 62.7824C114.337 60.7285 115.692 58.9242 117.661 57.3697C119.661 55.8069 122.175 54.6197 125.204 53.808C127.461 53.2034 129.623 52.9885 131.69 53.1633C133.75 53.3072 135.518 53.9101 136.995 54.972C138.503 56.0255 139.522 57.5414 140.052 59.5197C140.574 61.467 140.674 63.0139 140.352 64.1603C140.03 65.3068 139.297 66.0333 138.153 66.3397C137.349 66.555 136.603 66.49 135.914 66.1445C135.256 65.7907 134.836 65.2739 134.654 64.5938C134.496 64.0066 134.398 63.4532 134.358 62.9338C134.202 61.9817 134.091 61.382 134.025 61.1347C133.677 59.8365 132.779 59.0172 131.329 58.6767C129.88 58.3363 128.212 58.4187 126.327 58.9239C123.668 59.6362 121.761 60.6773 120.604 62.0474C119.47 63.3783 119.139 64.9247 119.611 66.6865C119.926 67.8611 120.55 68.7704 121.485 69.4145C122.45 70.0503 123.548 70.5014 124.779 70.7679C126.01 71.0344 127.703 71.2931 129.857 71.5441C132.463 71.8729 134.581 72.2331 136.209 72.6249C137.838 73.0166 139.325 73.7446 140.671 74.8086C142.047 75.8644 142.996 77.366 143.518 79.3133C144.495 82.9606 143.858 86.1461 141.606 88.8697C139.377 91.5541 135.944 93.5175 131.307 94.7599ZM154.984 88.2665C153.593 88.6392 152.28 88.312 151.044 87.2849C149.831 86.2186 148.967 84.7273 148.454 82.8109C147.833 80.4926 147.42 78.3339 147.215 76.3347C147.003 74.3046 146.962 72.1124 147.093 69.7583C147.154 68.7482 147.409 67.9676 147.857 67.4167C148.306 66.8658 149.133 66.4289 150.338 66.1059C151.018 65.9237 151.511 65.9076 151.816 66.0577C152.153 66.1996 152.379 66.4868 152.495 66.9196C152.561 67.1668 152.614 68.047 152.655 69.5599C152.653 70.7864 152.683 71.8881 152.746 72.8651C152.997 76.2762 153.268 78.5227 153.558 79.6046C153.732 80.2537 153.933 80.6966 154.162 80.9334C154.383 81.1393 154.664 81.1966 155.004 81.1055C155.467 80.9813 155.915 80.3644 156.346 79.2549C156.809 78.1372 157.174 76.532 157.441 74.4395C157.74 72.3386 157.891 69.8134 157.896 66.8636C157.895 65.8701 158.088 65.1061 158.475 64.5718C158.892 64.0292 159.611 63.6212 160.631 63.3479C161.342 63.1574 161.862 63.1176 162.19 63.2285C162.509 63.3085 162.731 63.5804 162.855 64.044C163.062 64.8168 163.243 67.0376 163.398 70.7065C163.593 74.8949 163.814 77.4527 164.063 78.38C164.22 78.9672 164.468 79.3978 164.807 79.6715C165.137 79.9143 165.503 79.9819 165.904 79.8743C166.523 79.7086 167.15 79.1431 167.785 78.1776C168.444 77.173 169.256 75.6302 170.222 73.5491C170.477 73.017 170.837 72.6888 171.3 72.5646C171.702 72.4569 172.061 72.5596 172.377 72.8725C172.723 73.1772 172.984 73.6541 173.158 74.3032C173.489 75.5395 173.452 76.5764 173.047 77.4138C172.157 79.4081 171.08 81.1378 169.816 82.6029C168.583 84.0596 166.993 85.0489 165.045 85.5707C163.562 85.9682 162.311 85.6904 161.294 84.7372C160.307 83.7758 159.537 82.2596 158.982 80.1887C159.02 82.4313 158.666 84.2653 157.922 85.6905C157.169 87.0848 156.19 87.9435 154.984 88.2665ZM180.527 81.4224C177.498 82.234 174.906 82.0176 172.75 80.7731C170.617 79.4894 169.174 77.4411 168.42 74.6284C167.749 72.1247 167.656 69.7976 168.14 67.6471C168.624 65.4965 169.517 63.7001 170.82 62.2577C172.123 60.8153 173.64 59.8622 175.371 59.3983C177.071 58.9428 178.522 59.1008 179.722 59.8724C180.945 60.6048 181.768 61.7591 182.191 63.3355C182.539 64.6337 182.539 65.8097 182.192 66.8634C181.876 67.9089 181.254 68.5559 180.327 68.8043C179.739 68.9617 179.223 68.951 178.777 68.7722C178.363 68.5851 178.089 68.2443 177.957 67.7497C177.899 67.5333 177.864 67.2778 177.851 66.983C177.838 66.6883 177.831 66.4749 177.828 66.343C177.859 65.838 177.82 65.3845 177.712 64.9827C177.605 64.5809 177.414 64.3008 177.139 64.1424C176.896 63.9757 176.589 63.9421 176.218 64.0415C175.507 64.2319 174.929 64.7346 174.485 65.5493C174.033 66.3331 173.766 67.3157 173.685 68.4969C173.604 69.6781 173.737 70.9178 174.085 72.216C175.046 75.8016 177.087 77.1761 180.209 76.3396C181.476 76 182.724 75.2183 183.953 73.9945C185.205 72.7315 186.314 71.0594 187.281 68.9784C187.536 68.4463 187.895 68.1181 188.359 67.9939C188.76 67.8862 189.119 67.9889 189.435 68.3018C189.782 68.6065 190.042 69.0833 190.216 69.7324C190.53 70.907 190.494 71.9439 190.105 72.8431C189.133 75.0251 187.759 76.884 185.984 78.4197C184.232 79.9163 182.413 80.9171 180.527 81.4224ZM197.597 76.8485C194.568 77.6602 191.975 77.4438 189.82 76.1993C187.687 74.9156 186.244 72.8673 185.49 70.0545C184.819 67.5509 184.726 65.2238 185.21 63.0732C185.693 60.9227 186.587 59.1263 187.89 57.6839C189.193 56.2414 190.71 55.2883 192.441 54.8245C194.141 54.369 195.591 54.527 196.792 55.2986C198.015 56.0309 198.838 57.1853 199.26 58.7617C199.608 60.0599 199.609 61.2359 199.262 62.2896C198.945 63.3351 198.324 63.982 197.396 64.2305C196.809 64.3879 196.293 64.3772 195.847 64.1984C195.433 64.0113 195.159 63.6705 195.027 63.1759C194.969 62.9595 194.933 62.704 194.921 62.4092C194.908 62.1145 194.9 61.9011 194.898 61.7692C194.928 61.2642 194.89 60.8107 194.782 60.4089C194.674 60.0071 194.483 59.727 194.209 59.5686C193.966 59.4019 193.659 59.3682 193.288 59.4676C192.577 59.6581 191.999 60.1607 191.555 60.9755C191.102 61.7593 190.835 62.7419 190.754 63.9231C190.673 65.1043 190.807 66.344 191.155 67.6422C192.115 71.2277 194.157 72.6022 197.279 71.7657C198.546 71.4262 199.794 70.6445 201.023 69.4207C202.275 68.1576 203.384 66.4856 204.35 64.4046C204.605 63.8725 204.965 63.5443 205.428 63.4201C205.83 63.3124 206.189 63.415 206.505 63.728C206.851 64.0326 207.112 64.5095 207.285 65.1586C207.6 66.3332 207.563 67.3701 207.175 68.2693C206.202 70.4513 204.829 72.3102 203.054 73.8459C201.301 75.3424 199.482 76.3433 197.597 76.8485ZM223.657 58.5357C224.059 58.428 224.418 58.5306 224.733 58.8436C225.08 59.1482 225.34 59.6251 225.514 60.2742C225.846 61.5106 225.809 62.5475 225.404 63.3849C224.633 65.0822 223.354 66.7998 221.567 68.5376C219.81 70.267 217.742 71.4506 215.362 72.0884C212.117 72.958 209.361 72.7521 207.097 71.4706C204.832 70.1891 203.289 68.0183 202.469 64.9583C201.898 62.8255 201.816 60.7272 202.224 58.6634C202.623 56.5686 203.466 54.7691 204.753 53.2649C206.07 51.7524 207.733 50.7269 209.743 50.1886C211.535 49.7082 213.118 49.864 214.489 50.656C215.853 51.417 216.779 52.7094 217.267 54.5331C217.839 56.6658 217.559 58.712 216.428 60.6716C215.319 62.592 213.061 64.489 209.654 66.3627C210.807 67.5775 212.466 67.895 214.63 67.3153C216.021 66.9426 217.469 66.0411 218.974 64.6108C220.502 63.1413 221.703 61.4445 222.579 59.5202C222.834 58.9881 223.193 58.6599 223.657 58.5357ZM210.172 54.9435C209.028 55.25 208.233 56.1754 207.785 57.7198C207.368 59.256 207.413 60.9668 207.918 62.8523L207.943 62.9451C209.651 62.0237 210.914 60.9895 211.733 59.8424C212.552 58.6953 212.808 57.55 212.502 56.4063C212.344 55.819 212.05 55.4009 211.619 55.152C211.211 54.8639 210.728 54.7944 210.172 54.9435ZM232.91 68.4797C231.303 68.9104 229.967 68.8708 228.902 68.3608C227.869 67.8426 227.228 67.1199 226.98 66.1926C226.764 65.3889 226.872 64.6148 227.302 63.8702C227.732 63.1255 228.518 62.6 229.662 62.2935C230.064 62.1859 230.54 62.108 231.09 62.0599C231.663 61.9727 232.093 61.9072 232.379 61.8636C232.133 61.0682 231.745 60.3606 231.214 59.7408C230.715 59.1127 230.131 58.5404 229.462 58.0238C228.785 57.4763 228.164 57.0132 227.599 56.6346C227.13 58.715 226.577 60.4864 225.942 61.9486C225.338 63.4025 224.624 64.8195 223.801 66.1995C223.394 66.9049 222.881 67.3405 222.263 67.5061C221.768 67.6387 221.321 67.5763 220.921 67.3191C220.512 67.031 220.238 66.6243 220.097 66.0988C219.931 65.4806 219.994 64.8508 220.286 64.2094L220.69 63.3061C221.827 60.7487 222.646 58.674 223.147 57.0821C223.433 56.0449 223.732 54.6893 224.045 53.0151C224.35 51.31 224.628 49.5628 224.877 47.7733C225.1 46.2559 226.138 45.2487 227.993 44.7518C228.858 44.5199 229.482 44.4356 229.863 44.4991C230.245 44.5625 230.481 44.7643 230.572 45.1043C230.622 45.2897 230.639 45.5999 230.623 46.0349C230.607 46.4698 230.544 46.9172 230.436 47.377C230.178 48.6388 230.152 49.6561 230.359 50.4289C230.483 50.8925 230.774 51.3611 231.233 51.8347C231.722 52.2999 232.418 52.8587 233.322 53.5111C234.659 54.5443 235.699 55.4582 236.442 56.253C237.207 57.0086 237.735 57.9273 238.025 59.0091C238.108 59.3182 238.193 59.7592 238.28 60.3322C239.637 59.3391 240.996 57.3019 242.357 54.2207C242.612 53.6886 242.971 53.3604 243.435 53.2362C243.837 53.1285 244.196 53.2311 244.511 53.5441C244.858 53.8487 245.118 54.3256 245.292 54.9747C245.607 56.1493 245.57 57.1862 245.182 58.0853C244.15 60.4159 243.018 62.1271 241.787 63.219C240.578 64.2717 238.946 65.1064 236.892 65.7231C235.937 67.1053 234.61 68.0242 232.91 68.4797ZM252.696 63.178C251.089 63.6087 249.753 63.569 248.689 63.0591C247.656 62.5409 247.015 61.8181 246.766 60.8909C246.551 60.0872 246.658 59.3131 247.088 58.5684C247.518 57.8238 248.305 57.2982 249.448 56.9918C249.85 56.8841 250.326 56.8062 250.877 56.7582C251.45 56.6709 251.879 56.6055 252.166 56.5618C251.919 55.7665 251.531 55.0589 251.001 54.4391C250.501 53.811 249.917 53.2386 249.249 52.722C248.572 52.1745 247.951 51.7115 247.386 51.3329C246.916 53.4133 246.364 55.1846 245.728 56.6468C245.124 58.1008 244.411 59.5178 243.588 60.8977C243.18 61.6032 242.668 62.0387 242.049 62.2044C241.555 62.3369 241.108 62.2746 240.707 62.0174C240.299 61.7293 240.024 61.3225 239.883 60.7971C239.718 60.1789 239.781 59.5491 240.073 58.9076L240.477 58.0043C241.614 55.4469 242.433 53.3723 242.934 51.7804C243.25 50.7349 243.52 49.5194 243.746 48.134C244.002 46.7402 244.307 44.8527 244.663 42.4715C244.886 40.9541 245.925 39.947 247.779 39.45C248.645 39.2181 249.268 39.1339 249.65 39.1973C250.031 39.2608 250.267 39.4625 250.359 39.8025C250.408 39.988 250.425 40.2982 250.409 40.7331C250.393 41.1681 250.331 41.6155 250.222 42.0753C249.964 43.3371 249.938 44.3544 250.145 45.1271C250.27 45.5908 250.561 46.0594 251.019 46.5329C251.508 46.9982 252.204 47.557 253.108 48.2093C254.445 49.2425 255.485 50.1565 256.228 50.9513C256.994 51.7068 257.521 52.6256 257.811 53.7074C258.159 55.0056 258.181 56.3248 257.878 57.665C257.597 58.966 257.011 60.1169 256.12 61.1177C255.228 62.1185 254.087 62.8053 252.696 63.178Z" fill="#18B490"/>
<path d="M90.864 51.1739C93.3475 52.007 95.6765 53.2502 97.8511 54.6985C98.9448 55.429 99.9999 56.2108 101.004 57.0824C101.544 57.5566 102.084 58.0436 102.535 58.6204C103.294 59.5944 103.101 61.0427 102.123 61.7989C101.132 62.5551 99.6911 62.3628 98.9319 61.3888C98.919 61.3631 98.9062 61.3503 98.8805 61.3375C98.636 61.0812 98.3786 60.8377 98.1084 60.5813C97.2462 59.8508 96.3327 59.1715 95.4062 58.5179C94.4283 57.877 93.4246 57.2874 92.3824 56.7363C91.4302 56.2621 90.4651 55.8391 89.4614 55.4803C88.6379 55.2111 87.8015 54.9804 86.9522 54.7882C86.193 54.6472 85.4467 54.5575 84.6875 54.4934C83.9155 54.455 83.1434 54.4421 82.3585 54.4806C81.5221 54.5447 80.6986 54.66 79.888 54.8138C78.9744 55.0061 78.0865 55.2496 77.1986 55.5315C76.3622 55.8263 75.5516 56.1724 74.7538 56.5569C74.5737 56.6466 74.3935 56.7491 74.2134 56.8517C77.5718 59.1843 80.1839 62.6192 81.6379 66.4642C82.7703 69.4376 83.1821 72.6803 82.9504 75.846C82.7188 78.9476 81.4964 81.9211 79.592 84.3691C77.8935 86.5479 75.3972 88.3423 72.5278 88.3166C69.4653 88.291 67.445 85.6636 65.9009 83.3694C64.0995 80.6651 62.3752 77.7429 61.6803 74.5515C60.9598 71.2448 61.4488 67.8484 62.4653 64.657C63.1988 62.35 64.2925 60.184 65.7337 58.2615C65.0903 58.159 64.4469 58.0821 63.7906 58.0308C63.0958 57.9924 62.4009 57.9923 61.7061 58.018C60.8954 58.0821 60.1105 58.1846 59.3128 58.3384C58.4506 58.5178 57.6142 58.7614 56.7907 59.0433C56.0315 59.3125 55.2981 59.6329 54.5775 59.9789C53.8955 60.325 53.2392 60.7095 52.5959 61.1196C52.1584 61.4272 51.7337 61.7476 51.322 62.0937C50.9231 62.4654 50.5499 62.8371 50.1896 63.2344C49.8165 63.683 49.4562 64.1316 49.1088 64.6058C48.4011 65.6824 47.7963 66.8102 47.2043 67.9509C45.9047 70.5783 44.7724 73.2827 43.5629 75.9613C42.3919 78.5503 41.2596 81.1521 40.3074 83.8308C40.3331 83.7411 40.3717 83.6514 40.3974 83.5488C39.9342 84.8561 39.5353 86.1763 39.175 87.5092C40.0629 87.7143 40.9379 88.009 41.7614 88.3294C43.0353 88.8293 44.232 89.5214 45.3643 90.2776C46.2908 90.9056 47.0886 91.6746 47.8735 92.4692C48.7742 93.392 49.6492 94.3405 50.5113 95.3017C51.2834 96.1604 51.9783 97.0704 52.583 98.0573C53.3808 99.3646 53.8955 100.839 54.1915 102.325C54.4874 103.838 54.5517 105.337 54.3587 106.862C54.1528 108.464 53.5995 110.015 52.9304 111.464C51.7852 113.886 49.8294 116.411 47.1143 117.154C45.8405 117.5 44.5794 117.5 43.2926 117.27C41.8 117 40.2817 116.462 39.0592 115.539C36.4986 113.604 35.2633 110.541 34.2854 107.593C33.1916 104.312 32.9728 100.903 33.1401 97.4677C33.2045 95.8913 33.346 94.3277 33.539 92.764C33.4103 92.8666 33.2817 92.9691 33.153 93.0845C32.6769 93.5202 32.2265 93.9816 31.789 94.4558C30.6824 95.7375 29.7045 97.1089 28.7266 98.4931C27.903 99.7748 27.0924 101.044 26.3203 102.351C25.5354 103.684 24.802 105.055 24.0685 106.427C23.1421 108.311 22.2542 110.208 21.3792 112.117C20.4528 114.155 19.6034 116.231 18.7284 118.295C17.9049 120.243 17.0042 122.166 16.1807 124.126C15.3314 126.164 14.5208 128.202 13.7616 130.278C13.6715 130.535 13.5814 130.791 13.5042 131.047C14.5594 130.906 15.6017 130.791 16.6568 130.663C18.1108 130.496 19.5649 130.317 21.0189 130.15C21.7138 130.073 22.3957 129.996 23.0777 129.92C23.438 129.881 23.7983 129.843 24.1586 129.804C24.5961 129.753 25.0593 129.638 25.5097 129.65C26.5262 129.702 27.427 130.304 27.7101 131.317C27.9803 132.278 27.5556 133.393 26.6678 133.88C25.9215 134.277 25.1237 134.585 24.3388 134.931C23.5796 135.251 22.8203 135.585 22.0483 135.867C20.2082 136.533 18.3682 137.123 16.4895 137.661C15.6402 137.904 14.791 138.122 13.9418 138.353C13.0796 138.584 12.2175 138.776 11.3296 138.917C10.3774 139.058 9.3094 139.058 8.43441 138.609C7.86823 138.315 7.40503 137.866 7.17341 137.289C7.12194 137.276 7.0576 137.264 7.00613 137.238C6.51716 137.084 6.13114 136.828 5.80946 136.443C5.42343 135.956 5.21755 135.431 5.01167 134.854C4.50984 133.393 4.22675 131.816 3.87932 130.317C3.44183 128.471 3.01721 126.626 2.60545 124.78C2.3481 123.601 2.0393 122.435 1.82055 121.243C1.61467 120.128 1.42161 119.025 1.21573 117.923C0.829706 115.77 0.75252 113.565 0.430831 111.399C-0.212546 110.515 -0.13535 109.246 0.662438 108.464C1.53743 107.593 3.00433 107.593 3.87933 108.464C4.39403 108.977 4.74148 109.58 4.87015 110.31C4.99883 111.053 5.06311 111.797 5.14032 112.553C5.24326 113.45 5.33333 114.334 5.46201 115.219C5.56495 116.052 5.66791 116.885 5.80946 117.718C5.97674 118.654 6.14403 119.577 6.31131 120.512C6.77454 122.55 7.21205 124.575 7.68815 126.6C7.89403 127.51 8.11278 128.433 8.33152 129.343C8.47307 129.932 8.60174 130.522 8.73041 131.124C9.16791 129.779 9.60542 128.433 10.1073 127.126C11.0208 124.742 11.9987 122.409 13.0281 120.076C13.9932 117.898 14.9197 115.706 15.859 113.514C16.8112 111.31 17.7506 109.08 18.8057 106.914C19.9381 104.619 21.0961 102.338 22.3957 100.121C23.0649 98.9801 23.7597 97.8651 24.4803 96.75C25.1494 95.7247 25.8571 94.7378 26.5648 93.7509C27.4141 92.559 28.4049 91.4183 29.4471 90.3801C30.5795 89.2394 31.9049 88.3038 33.4232 87.727C33.7835 87.5861 34.1438 87.4835 34.517 87.4066C34.5298 87.3554 34.5427 87.3169 34.5427 87.2785C35.2504 84.305 36.2669 81.3572 37.4894 78.5503C38.5574 76.0895 39.6383 73.6415 40.732 71.1935C41.6456 69.1429 42.5463 67.0666 43.6014 65.08C44.3478 63.683 45.1456 62.3244 46.1235 61.0812C47.1401 59.7867 48.3367 58.6588 49.675 57.6976C52.2871 55.8391 55.401 54.5703 58.5407 53.9679C61.809 53.3399 65.1289 53.4809 68.3458 54.2883C68.719 54.378 69.0792 54.4934 69.4524 54.6087C71.2667 53.2502 73.3384 52.1992 75.4615 51.443C77.7777 50.6099 80.2096 50.1614 82.6802 50.046C82.9761 50.0332 83.2592 50.0204 83.5552 50.0204C86.0515 49.8922 88.5221 50.3793 90.864 51.1739ZM73.0166 83.7539C73.1453 83.7283 73.2741 83.6898 73.4027 83.6514C73.5185 83.6001 73.6343 83.5617 73.7501 83.5104C73.9817 83.3822 74.2134 83.2412 74.445 83.1002C74.5737 83.0105 74.7023 82.908 74.831 82.8054C75.1141 82.5491 75.3843 82.2928 75.6288 82.0108C75.9634 81.6263 76.2721 81.2162 76.5681 80.7932C76.7997 80.4344 77.0056 80.0755 77.2115 79.7038C77.4302 79.2424 77.6233 78.7939 77.8034 78.3068C77.9578 77.807 78.0994 77.2943 78.2152 76.7688C78.3181 76.1792 78.3953 75.5896 78.4468 74.9873C78.4725 74.3208 78.4725 73.6543 78.421 72.9879C78.3567 72.1548 78.2409 71.3345 78.0737 70.5271C77.9193 69.835 77.7262 69.1429 77.5075 68.4636C77.263 67.7843 76.9799 67.1178 76.6582 66.477C76.3494 65.9003 76.0148 65.3363 75.6674 64.7852C75.1913 64.1059 74.6894 63.4523 74.149 62.8242C73.763 62.4013 73.3641 62.004 72.9394 61.6067C72.4505 61.1965 71.9487 60.7992 71.434 60.4404C71.0737 60.2097 70.7134 60.0046 70.3531 59.7995C70.2502 59.9021 70.1601 60.0046 70.0571 60.1071C69.6968 60.5172 69.3623 60.9402 69.0406 61.3888C68.6289 62.004 68.2557 62.6448 67.9211 63.2985C67.548 64.0803 67.2005 64.8749 66.9046 65.6824C66.6343 66.5155 66.4028 67.3485 66.2097 68.2073C66.0682 68.9634 65.9524 69.7196 65.8881 70.4886C65.8623 71.0141 65.8623 71.5396 65.8881 72.0651C65.9395 72.5521 66.0039 73.0391 66.094 73.5262C66.1841 73.9491 66.2998 74.3593 66.4285 74.7694C66.7244 75.5897 67.0847 76.3843 67.4707 77.1661C68.1527 78.4478 68.912 79.7038 69.7098 80.9086C70.1215 81.511 70.5461 82.1005 71.0093 82.6645C71.2281 82.908 71.4468 83.1259 71.6784 83.3566C71.7557 83.4206 71.8329 83.4719 71.9101 83.5232C72.013 83.5873 72.1031 83.6514 72.2061 83.7026C72.2318 83.7154 72.2575 83.7283 72.2833 83.7283C72.3347 83.7411 72.3862 83.7539 72.4377 83.7667C72.4891 83.7795 72.5277 83.7795 72.5792 83.7924C72.6564 83.7924 72.7336 83.7924 72.8108 83.7924C72.8751 83.7667 72.9523 83.7667 73.0166 83.7539ZM45.3643 112.861C45.4544 112.848 45.5445 112.835 45.6345 112.822C45.7246 112.797 45.8147 112.771 45.9048 112.745C46.0206 112.707 46.1363 112.656 46.2522 112.604C46.3422 112.553 46.4323 112.502 46.5224 112.45C46.6897 112.335 46.857 112.194 47.0243 112.066C47.2044 111.887 47.3845 111.707 47.5518 111.515C47.7191 111.31 47.8735 111.105 48.0279 110.9C48.2466 110.554 48.4525 110.208 48.6455 109.861C48.9157 109.31 49.1602 108.746 49.379 108.17C49.5205 107.734 49.6492 107.298 49.7522 106.85C49.8294 106.427 49.8937 106.016 49.9323 105.594C49.9451 105.183 49.9452 104.786 49.9195 104.376C49.868 103.966 49.8165 103.556 49.7393 103.146C49.6364 102.71 49.5205 102.287 49.3918 101.864C49.2632 101.518 49.1216 101.185 48.9672 100.851C48.7742 100.505 48.5812 100.159 48.3625 99.826C48.0536 99.3902 47.7191 98.9545 47.3716 98.5443C46.1492 97.1729 44.914 95.7888 43.5371 94.5584C43.1897 94.2764 42.8294 94.0072 42.4562 93.7509C42.0187 93.4689 41.5684 93.2126 41.118 92.9691C40.5904 92.7127 40.05 92.4821 39.5096 92.277C39.0978 92.136 38.686 92.0207 38.2743 91.9053C38.0426 93.392 37.8754 94.8916 37.7725 96.3911C37.6695 98.0573 37.618 99.7363 37.7081 101.415C37.7724 102.287 37.9011 103.133 38.0684 103.991C38.2872 104.94 38.5445 105.875 38.8533 106.798C39.1493 107.644 39.4839 108.477 39.8699 109.285C40.1144 109.772 40.3846 110.233 40.6806 110.695C40.7835 110.848 40.9121 110.989 41.0279 111.143C40.9893 111.105 40.9508 111.053 40.9122 111.015C40.9508 111.066 40.9893 111.105 41.0279 111.156C41.0408 111.156 41.0537 111.169 41.0537 111.182C41.1952 111.323 41.3239 111.476 41.4783 111.617C41.5813 111.694 41.6713 111.771 41.7743 111.848C41.9802 111.989 42.1989 112.117 42.4177 112.233C42.5721 112.309 42.7265 112.374 42.8937 112.438C43.2798 112.566 43.6529 112.668 44.039 112.758C44.2963 112.809 44.5408 112.835 44.811 112.873C44.8882 112.873 44.9654 112.873 45.0426 112.873C45.1455 112.873 45.2614 112.873 45.3643 112.861Z" fill="#18B490"/>
</svg>
