<svg width="154" height="80" viewBox="0 0 154 80" fill="none" xmlns="http://www.w3.org/2000/svg">
<path d="M14.7562 44.3207C10.6452 43.2192 7.56042 41.5644 5.50176 39.3564C3.45138 37.1174 2.85686 34.3906 3.71821 31.176C4.17374 29.476 4.81523 28.2564 5.6427 27.5174C6.47016 26.7784 7.45573 26.5621 8.59938 26.8686C9.43394 27.0922 10.056 27.4908 10.4655 28.0643C10.875 28.6378 10.9887 29.2646 10.8064 29.9446C10.6408 30.5628 10.4495 31.0913 10.2325 31.5301C10.1994 31.6537 10.1105 31.8618 9.96588 32.1544C9.85215 32.4552 9.74973 32.7756 9.65863 33.1156C9.28593 34.5065 9.70394 35.7283 10.9127 36.781C12.1523 37.842 14.0394 38.7121 16.574 39.3912C19.2013 40.0952 21.381 40.1824 23.1132 39.6526C24.8536 39.092 25.9515 37.9616 26.4071 36.2616C26.6887 35.2107 26.5888 34.2232 26.1076 33.2991C25.6346 32.3442 24.9544 31.4828 24.0669 30.7149C23.1877 29.9161 21.9202 28.8974 20.2644 27.6586C18.1328 26.0936 16.4215 24.6909 15.1306 23.4505C13.8705 22.2184 12.8901 20.7465 12.1892 19.0348C11.5276 17.3004 11.4825 15.3669 12.054 13.2341C12.6503 11.0086 13.7676 9.18774 15.406 7.77153C17.0753 6.36359 19.151 5.47869 21.6333 5.11681C24.1464 4.76321 26.9176 4.99224 29.9467 5.8039C32.2031 6.4085 34.183 7.30341 35.8862 8.48864C37.5978 9.64296 38.8277 11.0492 39.5761 12.7074C40.3553 14.3739 40.4799 16.1962 39.9498 18.1744C39.4281 20.1217 38.741 21.5112 37.8887 22.343C37.0364 23.1747 36.0384 23.4374 34.8947 23.1309C34.0911 22.9156 33.4773 22.4861 33.0535 21.8425C32.6605 21.2071 32.5552 20.5495 32.7374 19.8694C32.8947 19.2822 33.086 18.7537 33.3113 18.284C33.6525 17.3815 33.8562 16.8067 33.9225 16.5594C34.2703 15.2612 33.9017 14.1023 32.8166 13.0827C31.7315 12.0631 30.2462 11.3007 28.3607 10.7955C25.7025 10.0832 23.53 10.0312 21.8431 10.6393C20.1954 11.2248 19.1355 12.3985 18.6634 14.1603C18.3487 15.3349 18.435 16.4347 18.9223 17.4597C19.4405 18.4931 20.166 19.4329 21.0988 20.2791C22.0315 21.1254 23.368 22.1957 25.1083 23.4903C27.2007 25.0779 28.8542 26.4486 30.069 27.6023C31.2838 28.756 32.2077 30.13 32.8407 31.7241C33.5046 33.3265 33.5756 35.1014 33.0538 37.0487C32.0765 40.6961 29.9319 43.1361 26.62 44.369C23.3473 45.5791 19.3927 45.5631 14.7562 44.3207ZM38.5078 50.5359C37.1169 50.1632 36.143 49.2231 35.5862 47.7156C35.0686 46.1855 35.0665 44.4623 35.58 42.5459C36.2012 40.2276 36.9231 38.1517 37.7457 36.3182C38.5765 34.4537 39.6373 32.5348 40.928 30.5617C41.4855 29.7172 42.0963 29.1686 42.7604 28.9158C43.4244 28.6631 44.3592 28.6982 45.5647 29.0212C46.2447 29.2034 46.6793 29.4359 46.8686 29.7185C47.0888 30.0094 47.141 30.3712 47.025 30.8039C46.9588 31.0512 46.5651 31.8402 45.8442 33.171C45.2286 34.2318 44.7039 35.201 44.27 36.0786C42.7821 39.1585 41.8933 41.2393 41.6034 42.3212C41.4295 42.9703 41.3825 43.4546 41.4625 43.7742C41.5508 44.0629 41.765 44.2528 42.105 44.3439C42.5686 44.4681 43.2647 44.1577 44.1932 43.4126C45.1526 42.6758 46.2712 41.4682 47.5492 39.7898C48.858 38.1196 50.2519 36.0085 51.7309 33.4563C52.2266 32.5953 52.7756 32.0301 53.3778 31.7608C54.011 31.4998 54.8376 31.5059 55.8576 31.7792C56.5685 31.9697 57.0382 32.1949 57.2667 32.4549C57.5035 32.684 57.5597 33.0304 57.4355 33.494C57.2285 34.2668 56.2748 36.2806 54.5744 39.5354C52.6488 43.2599 51.5618 45.5858 51.3133 46.5131C51.156 47.1004 51.1554 47.5972 51.3115 48.0034C51.476 48.3788 51.7591 48.6203 52.161 48.728C52.7791 48.8936 53.6049 48.7173 54.6382 48.1991C55.7108 47.6583 57.1857 46.7283 59.0631 45.4093C59.5499 45.0759 60.0252 44.9714 60.4888 45.0956C60.8907 45.2033 61.1501 45.4716 61.267 45.9005C61.4149 46.3376 61.4019 46.8808 61.228 47.5299C60.8967 48.7663 60.3463 49.6458 59.5768 50.1684C57.8088 51.4505 56.0112 52.4099 54.1841 53.0468C52.3879 53.6919 50.5162 53.7535 48.5689 53.2317C47.0852 52.8342 46.1412 51.9683 45.7367 50.6342C45.3631 49.3083 45.4538 47.6099 46.0087 45.539C44.92 47.5 43.697 48.9116 42.3397 49.7737C40.9906 50.6048 39.7133 50.8589 38.5078 50.5359ZM64.0506 57.3801C61.0215 56.5684 58.8847 55.0848 57.6402 52.9292C56.4348 50.7511 56.209 48.2556 56.9627 45.4428C57.6336 42.9391 58.7162 40.8771 60.2105 39.2566C61.7048 37.6362 63.3768 36.5271 65.2265 35.9295C67.0762 35.3319 68.8665 35.265 70.5975 35.7288C72.2975 36.1843 73.4745 37.0463 74.1285 38.3148C74.8217 39.5606 74.957 40.9717 74.5346 42.5481C74.1868 43.8463 73.5991 44.865 72.7717 45.604C71.9751 46.3513 71.1132 46.6007 70.1859 46.3522C69.5986 46.1949 69.1568 45.9274 68.8604 45.5498C68.5949 45.1805 68.5285 44.7486 68.661 44.254C68.719 44.0377 68.8161 43.7987 68.9525 43.5371C69.0888 43.2754 69.189 43.087 69.2531 42.9716C69.5319 42.5494 69.7251 42.1373 69.8328 41.7355C69.9404 41.3337 69.9151 40.9956 69.7567 40.7213C69.6292 40.4552 69.38 40.2725 69.0091 40.1731C68.2982 39.9826 67.5466 40.1291 66.7545 40.6125C65.9707 41.0651 65.2484 41.7826 64.5876 42.765C63.9268 43.7475 63.4225 44.8878 63.0746 46.186C62.1139 49.7715 63.1944 51.9825 66.3163 52.819C67.5836 53.1586 69.0554 53.1058 70.7318 52.6605C72.4474 52.1925 74.2438 51.299 76.1212 49.98C76.6081 49.6467 77.0833 49.5421 77.547 49.6663C77.9488 49.774 78.2082 50.0423 78.3252 50.4712C78.4731 50.9083 78.46 51.4515 78.2861 52.1006C77.9714 53.2751 77.421 54.1547 76.635 54.7391C74.7018 56.1426 72.5827 57.0656 70.2777 57.5081C68.0118 57.928 65.9361 57.8853 64.0506 57.3801ZM81.1204 61.9539C78.0912 61.1422 75.9544 59.6586 74.7099 57.5031C73.5046 55.3249 73.2787 52.8294 74.0324 50.0166C74.7033 47.513 75.7859 45.4509 77.2802 43.8304C78.7745 42.21 80.4465 41.1009 82.2962 40.5033C84.1459 39.9057 85.9363 39.8388 87.6672 40.3026C89.3672 40.7581 90.5442 41.6201 91.1982 42.8886C91.8914 44.1344 92.0268 45.5456 91.6044 47.122C91.2565 48.4202 90.6689 49.4388 89.8414 50.1778C89.0448 50.9251 88.1829 51.1745 87.2556 50.926C86.6683 50.7687 86.2265 50.5012 85.9301 50.1236C85.6647 49.7543 85.5982 49.3224 85.7307 48.8279C85.7887 48.6115 85.8858 48.3725 86.0222 48.1109C86.1586 47.8493 86.2588 47.6608 86.3228 47.5454C86.6016 47.1232 86.7948 46.7112 86.9025 46.3093C87.0101 45.9075 86.9848 45.5694 86.8264 45.2951C86.6989 45.029 86.4497 44.8463 86.0788 44.7469C85.3679 44.5564 84.6164 44.7029 83.8242 45.1864C83.0404 45.6389 82.3181 46.3564 81.6573 47.3389C80.9965 48.3213 80.4922 49.4616 80.1443 50.7598C79.1836 54.3454 80.2642 56.5564 83.386 57.3929C84.6533 57.7324 86.1252 57.6796 87.8015 57.2343C89.5171 56.7664 91.3136 55.8729 93.1909 54.5538C93.6778 54.2205 94.153 54.1159 94.6167 54.2401C95.0185 54.3478 95.2779 54.6161 95.3949 55.045C95.5428 55.4822 95.5298 56.0253 95.3558 56.6744C95.0411 57.849 94.4907 58.7285 93.7047 59.313C91.7716 60.7164 89.6525 61.6394 87.3474 62.0819C85.0815 62.5018 83.0058 62.4591 81.1204 61.9539ZM112.846 59.1245C113.247 59.2322 113.507 59.5005 113.624 59.9294C113.772 60.3666 113.759 60.9097 113.585 61.5588C113.253 62.7952 112.703 63.6747 111.934 64.1974C110.417 65.2818 108.451 66.1298 106.034 66.7412C103.648 67.3608 101.266 67.3518 98.8855 66.714C95.64 65.8444 93.3569 64.2885 92.0363 62.0463C90.7156 59.8041 90.4652 57.1529 91.2852 54.0929C91.8566 51.9601 92.8349 50.102 94.2199 48.5185C95.6132 46.9041 97.243 45.7672 99.1093 45.1077C101.006 44.4566 102.96 44.4002 104.969 44.9385C106.761 45.4189 108.054 46.3449 108.846 47.7166C109.646 49.0574 109.802 50.6397 109.313 52.4633C108.742 54.5961 107.476 56.2282 105.517 57.3595C103.596 58.4683 100.692 58.9822 96.8047 58.9013C97.1965 60.5302 98.4742 61.6345 100.638 62.2143C102.029 62.587 103.734 62.5302 105.752 62.0441C107.81 61.5354 109.699 60.6668 111.42 59.4382C111.907 59.1049 112.382 59.0003 112.846 59.1245ZM102.963 49.271C101.819 48.9646 100.668 49.3683 99.5079 50.482C98.379 51.6041 97.562 53.1079 97.0568 54.9933L97.0319 55.0861C98.9715 55.142 100.583 54.878 101.866 54.2941C103.148 53.7103 103.943 52.8465 104.249 51.7028C104.407 51.1156 104.361 50.6064 104.112 50.1753C103.902 49.7215 103.519 49.4201 102.963 49.271ZM115.887 72.3627C114.279 71.932 113.142 71.2298 112.476 70.2561C111.84 69.2907 111.646 68.3443 111.895 67.417C112.11 66.6133 112.59 65.9966 113.335 65.5666C114.079 65.1367 115.023 65.075 116.167 65.3814C116.569 65.4891 117.02 65.6597 117.521 65.8932C118.061 66.1041 118.465 66.2623 118.735 66.3677C118.92 65.5558 118.937 64.7488 118.788 63.9468C118.669 63.1531 118.449 62.3654 118.129 61.5838C117.816 60.7712 117.51 60.0597 117.21 59.4492C115.763 61.0161 114.399 62.274 113.118 63.2227C111.868 64.1797 110.541 65.05 109.138 65.8337C108.433 66.241 107.771 66.3618 107.153 66.1962C106.658 66.0637 106.302 65.786 106.084 65.3632C105.874 64.9094 105.84 64.4198 105.981 63.8944C106.146 63.2762 106.516 62.7623 107.09 62.3528L107.891 61.7725C110.154 60.1261 111.901 58.7389 113.131 57.6108C113.896 56.8552 114.833 55.8308 115.942 54.5377C117.059 53.2136 118.172 51.839 119.283 50.4139C120.235 49.2112 121.638 48.8584 123.493 49.3553C124.358 49.5872 124.94 49.826 125.239 50.0716C125.537 50.3173 125.641 50.6101 125.55 50.9501C125.5 51.1356 125.36 51.4127 125.128 51.7814C124.897 52.1501 124.619 52.5063 124.295 52.8502C123.441 53.8139 122.91 54.6821 122.703 55.4548C122.579 55.9184 122.597 56.4699 122.757 57.1091C122.948 57.7565 123.271 58.5887 123.728 59.6054C124.369 61.1687 124.813 62.4802 125.059 63.54C125.344 64.5772 125.342 65.6367 125.052 66.7185C124.969 67.0276 124.822 67.4521 124.611 67.9919C126.283 67.8104 128.479 66.7257 131.198 64.7377C131.685 64.4044 132.16 64.2998 132.624 64.4241C133.025 64.5317 133.285 64.8 133.402 65.2289C133.55 65.6661 133.537 66.2092 133.363 66.8583C133.048 68.0329 132.498 68.9124 131.712 69.4969C129.653 70.9992 127.817 71.9153 126.205 72.2452C124.631 72.5525 122.801 72.4596 120.714 71.9665C119.196 72.6862 117.587 72.8182 115.887 72.3627ZM135.673 77.6645C134.066 77.2338 132.929 76.5316 132.262 75.5579C131.626 74.5924 131.433 73.646 131.681 72.7187C131.896 71.9151 132.376 71.2983 133.121 70.8684C133.866 70.4385 134.81 70.3767 135.953 70.6832C136.355 70.7908 136.806 70.9614 137.307 71.195C137.847 71.4059 138.252 71.564 138.522 71.6695C138.706 70.8575 138.724 70.0506 138.574 69.2485C138.455 68.4548 138.236 67.6671 137.915 66.8855C137.603 66.073 137.297 65.3615 136.996 64.751C135.549 66.3179 134.185 67.5757 132.904 68.5244C131.654 69.4814 130.328 70.3518 128.925 71.1355C128.219 71.5427 127.558 71.6636 126.939 71.4979C126.445 71.3654 126.089 71.0877 125.871 70.6649C125.661 70.2112 125.626 69.7216 125.767 69.1961C125.933 68.5779 126.302 68.0641 126.876 67.6546L127.678 67.0742C129.941 65.4279 131.687 64.0407 132.917 62.9125C133.714 62.1652 134.556 61.2479 135.443 60.1606C136.362 59.0816 137.571 57.6 139.069 55.7157C140.021 54.513 141.424 54.1601 143.279 54.6571C144.144 54.889 144.726 55.1277 145.025 55.3734C145.324 55.619 145.427 55.9119 145.336 56.2519C145.287 56.4373 145.146 56.7144 144.915 57.0831C144.683 57.4518 144.406 57.8081 144.082 58.1519C143.227 59.1156 142.696 59.9838 142.489 60.7565C142.365 61.2202 142.383 61.7716 142.543 62.4108C142.734 63.0583 143.058 63.8904 143.514 64.9072C144.155 66.4704 144.599 67.7819 144.845 68.8417C145.13 69.8789 145.128 70.9384 144.838 72.0202C144.49 73.3185 143.85 74.472 142.917 75.4809C142.023 76.4672 140.94 77.1709 139.668 77.5919C138.396 78.013 137.064 78.0372 135.673 77.6645Z" fill="#18B490"/>
</svg>
