<svg width="422" height="407" viewBox="0 0 422 407" fill="none" xmlns="http://www.w3.org/2000/svg">
<g filter="url(#filter0_f_384_5630)">
<circle cx="369" cy="26" r="305" fill="#1F1445"/>
</g>
<circle cx="288" cy="358" r="1" transform="rotate(180 288 358)" fill="#9180FF"/>
<circle cx="274" cy="395" r="1" transform="rotate(180 274 395)" fill="#9180FF"/>
<circle cx="250" cy="325" r="1" transform="rotate(180 250 325)" fill="#9180FF"/>
<circle cx="320" cy="327" r="1" transform="rotate(180 320 327)" fill="#9180FF"/>
<circle cx="332" cy="373" r="1" transform="rotate(180 332 373)" fill="#9180FF"/>
<circle cx="362" cy="289" r="1" transform="rotate(180 362 289)" fill="#9180FF"/>
<ellipse cx="345" cy="405.5" rx="1" ry="1.5" transform="rotate(180 345 405.5)" fill="#9180FF"/>
<ellipse cx="360" cy="346.5" rx="1" ry="1.5" transform="rotate(180 360 346.5)" fill="#9180FF"/>
<circle cx="309" cy="288" r="1" transform="rotate(180 309 288)" fill="#9180FF"/>
<ellipse cx="273.5" cy="289" rx="1.5" ry="1" transform="rotate(180 273.5 289)" fill="#9180FF"/>
<ellipse cx="386.5" cy="366" rx="1.5" ry="1" transform="rotate(180 386.5 366)" fill="#9180FF"/>
<defs>
<filter id="filter0_f_384_5630" x="0" y="-343" width="738" height="738" filterUnits="userSpaceOnUse" color-interpolation-filters="sRGB">
<feFlood flood-opacity="0" result="BackgroundImageFix"/>
<feBlend mode="normal" in="SourceGraphic" in2="BackgroundImageFix" result="shape"/>
<feGaussianBlur stdDeviation="32" result="effect1_foregroundBlur_384_5630"/>
</filter>
</defs>
</svg>
