<svg width="175" height="89" viewBox="0 0 175 89" fill="none" xmlns="http://www.w3.org/2000/svg">
<path d="M33.7233 23.6704C33.7039 23.691 33.6838 23.7119 33.6619 23.7303C33.6824 23.7111 33.7029 23.691 33.7233 23.6704Z" fill="#18B490"/>
<path d="M44.1466 25.9829C44.1566 25.973 44.1669 25.9635 44.1775 25.9544C44.1777 25.9543 44.1774 25.9546 44.1775 25.9544C44.1674 25.9638 44.1567 25.9736 44.1466 25.9829Z" fill="#18B490"/>
<path fill-rule="evenodd" clip-rule="evenodd" d="M25.3947 47.3137C25.1878 47.7039 24.9779 48.0996 24.7151 48.4045C24.4256 48.7538 24.0202 48.9583 23.6206 48.8731C23.557 48.8731 23.499 48.8731 23.4353 48.8561C22.2823 48.6485 22.3146 46.8653 22.3407 45.4265C22.3456 45.1527 22.3504 44.8913 22.3467 44.6557C22.3293 44.4427 22.3119 44.2382 22.2888 44.0252C22.254 43.8207 22.2135 43.6162 22.1729 43.4032C22.0397 42.875 21.8776 42.3637 21.7097 41.844C21.5624 41.4038 21.4464 40.9463 21.3295 40.4857C21.3039 40.3848 21.2782 40.2837 21.2522 40.1826C21.1726 39.8604 21.0796 39.5438 20.9865 39.2265C20.917 38.9899 20.8475 38.7528 20.7831 38.5127C20.6612 38.0643 20.5583 37.6047 20.4559 37.1475C20.4319 37.04 20.4078 36.9327 20.3836 36.8257C20.3846 36.8272 20.3855 36.8291 20.3862 36.8312C20.3687 36.758 20.351 36.685 20.3334 36.6121C20.1799 35.9763 20.0282 35.3483 19.9261 34.6871C19.8566 34.2328 19.7975 33.7786 19.7383 33.3243C19.7087 33.097 19.6791 32.8696 19.6481 32.6423C19.5724 32.1434 19.4742 31.6545 19.3759 31.1652C19.3164 30.8689 19.2568 30.5725 19.2022 30.2737C19.1671 30.0798 19.1353 29.8823 19.1033 29.6838C19.0511 29.359 18.9984 29.0319 18.9301 28.7145C18.8722 28.476 18.7911 28.2459 18.7216 28.0159C18.6733 27.8595 18.6469 27.6961 18.64 27.5326C18.5263 27.5747 18.4125 27.6249 18.2931 27.6751C18.1946 27.7262 18.0962 27.7858 17.9978 27.854C17.9514 27.8966 17.9051 27.9307 17.8646 27.9733C17.8356 28.0073 17.8009 28.05 17.7719 28.084C17.7509 28.1115 17.7318 28.139 17.7134 28.167C17.6862 28.2085 17.6606 28.2513 17.6329 28.297V28.3056C17.6503 28.28 17.6619 28.2544 17.6793 28.2289C17.6503 28.28 17.6213 28.3396 17.5924 28.3993L17.3666 28.9872C17.2362 29.3729 17.1076 29.7598 16.9791 30.1464C16.594 31.3051 16.2097 32.4615 15.7799 33.5795C15.5382 34.2086 15.29 34.8295 15.042 35.4499C14.672 36.3754 14.3025 37.2998 13.9558 38.2485C13.6604 39.1517 13.3709 40.0463 13.1219 40.975C13.0004 41.4201 12.8846 41.8685 12.769 42.3166C12.6256 42.8721 12.4824 43.427 12.3285 43.9741C12.0506 44.9539 11.7437 45.9166 11.3209 46.7772C11.0488 47.3395 10.7419 47.8592 10.4292 48.3875C10.3807 48.468 10.3322 48.5487 10.2837 48.6294C9.97286 49.1468 9.66027 49.667 9.3347 50.1682C9.17835 50.4153 9.02199 50.6624 8.85405 50.8839C8.65716 51.1395 8.45448 51.4291 8.22285 51.6166C7.97963 51.8126 7.73065 51.9745 7.45268 51.983C7.44697 51.983 7.44126 51.983 7.43556 51.9836C7.42389 51.9848 7.41221 51.9886 7.40055 52C7.1747 52 6.92571 51.9404 6.7404 51.7614C6.38137 51.4206 6.13237 50.935 5.90652 50.4153C5.56487 49.6399 5.31585 48.805 5.19425 47.9018C5.11309 47.286 5.05084 46.6562 4.98891 46.0295C4.96688 45.8066 4.94487 45.5841 4.92208 45.3628C4.85545 44.6692 4.7843 43.9821 4.71263 43.29L4.68465 43.0198C4.52251 41.4521 4.34879 39.8929 4.14033 38.3337C4.13453 38.3082 4.12875 38.2741 4.12296 38.24C3.86236 36.6042 3.5844 34.9853 3.28328 33.3665L3.28127 33.3559C2.97503 31.7406 2.66878 30.1253 2.36832 28.51C1.89725 25.953 1.56344 23.3481 1.22995 20.7457C1.14118 20.0531 1.05245 19.3606 0.961157 18.6693C0.746899 17.042 0.561607 15.4146 0.393668 13.7702C0.231526 12.177 0.144667 10.5752 0.0635868 8.9734C0.0114715 8.02768 -0.0174755 7.0649 0.0114715 6.11916C0.0404186 5.16491 0.104109 4.1851 0.341535 3.28197C0.555792 2.45552 0.909042 1.60353 1.45338 1.16047C1.95718 0.76002 2.49572 0.632223 3.06323 0.73446C3.9608 0.904873 4.85259 1.30529 5.70964 1.75686C5.81152 1.8104 5.91364 1.86393 6.01593 1.91755C6.402 2.11992 6.79017 2.3234 7.17471 2.53219C9.25941 3.66538 11.3325 4.82411 13.394 6.04248L13.396 6.04365C13.7795 6.26996 14.163 6.49628 14.5465 6.72233C14.5512 5.89037 14.5135 5.04465 14.4763 4.21037L14.4654 3.96357V3.98913C14.4654 3.97633 14.4639 3.96357 14.4625 3.9508C14.461 3.93801 14.4596 3.92521 14.4596 3.91245V3.87836C14.4422 3.5205 14.4248 3.15417 14.4074 2.79631C14.4021 2.60648 14.3917 2.42395 14.381 2.23518L14.3785 2.19139C14.3611 1.83354 14.3669 1.50979 14.419 1.16047C14.4769 0.725932 14.7144 0.427723 14.9518 0.197689C15.1892 -0.0323451 15.4787 -0.0238426 15.7451 0.0358044C15.991 0.0904072 16.2332 0.254398 16.4687 0.413812C16.5271 0.453386 16.5851 0.492674 16.6427 0.52996C17.604 1.16044 18.5652 1.76539 19.5265 2.37031C21.617 3.69092 23.7075 4.96896 25.8443 6.11065C26.8454 6.65372 27.8194 7.27624 28.7977 7.9015L28.9019 7.96803C29.6723 8.46227 30.4495 8.93611 31.2257 9.40931C31.4531 9.5479 31.6803 9.68644 31.9073 9.82541C32.9265 10.4474 33.9399 11.0949 34.9301 11.8021C35.674 12.3392 36.3922 12.9522 37.108 13.5632C37.2893 13.718 37.4704 13.8726 37.6518 14.0258C38.1209 14.4263 38.5841 14.8267 39.059 15.2016C39.1954 15.3081 39.3319 15.4131 39.4681 15.518C39.8116 15.7824 40.1534 16.0456 40.4893 16.3263C40.7597 16.5529 41.026 16.7914 41.2919 17.0295C41.4759 17.1943 41.6596 17.3588 41.8444 17.5191C42.296 17.9025 42.7535 18.2689 43.2168 18.6182C43.4575 18.791 43.7026 18.9553 43.9482 19.1199C44.4413 19.4504 44.9361 19.7821 45.3999 20.1859C46.1006 20.7993 46.7666 21.498 47.2993 22.4181C47.4788 22.7334 47.6641 23.0657 47.8031 23.4235C47.9189 23.7217 48 24.0285 48 24.3778C48 24.9657 47.7684 25.4598 47.5078 25.8858C46.9287 26.8316 46.2164 27.6069 45.5042 28.3226C43.6743 30.1544 41.5317 31.2024 39.3717 31.8244C38.3724 32.112 37.368 32.3023 36.3585 32.4935L36.1578 32.5315C35.9355 32.5736 35.7129 32.6139 35.4902 32.6543C34.7209 32.7938 33.9505 32.9335 33.1871 33.145C32.9844 33.2131 32.7759 33.2813 32.579 33.375C32.5166 33.4087 32.4557 33.4457 32.3953 33.4824C32.2873 33.5478 32.1808 33.6125 32.0694 33.6562C31.9069 33.7221 31.739 33.7562 31.5761 33.7892L31.5599 33.7925C31.4531 34.0477 31.3618 34.3113 31.2703 34.5752C31.2029 34.7696 31.1355 34.9642 31.0618 35.1557C30.8997 35.5817 30.7318 35.9992 30.5581 36.4082C30.3269 36.9586 30.0744 37.491 29.8226 38.0217C29.7275 38.2222 29.6325 38.4225 29.5389 38.6234C29.3825 38.9813 29.2262 39.3476 29.0698 39.7225C28.9625 39.9811 28.8606 40.2437 28.7588 40.5061C28.6024 40.9093 28.4461 41.3121 28.2707 41.6992C28.0455 42.196 27.8024 42.6752 27.5586 43.1557C27.4637 43.3427 27.3687 43.5299 27.2746 43.7184C26.6898 44.8772 26.0933 46.0189 25.4853 47.1435C25.4551 47.1999 25.4249 47.2567 25.3947 47.3137ZM16.5538 7.90087C16.5545 7.89487 16.5552 7.88883 16.5558 7.88283C16.6066 7.38264 16.5951 6.86937 16.5836 6.36024C16.582 6.28829 16.5804 6.21643 16.579 6.14471C16.5674 5.65056 16.5558 5.16491 16.5385 4.67075C16.5269 4.35551 16.5153 4.04024 16.4979 3.725C16.608 3.79315 16.7122 3.86136 16.8222 3.9295C17.355 4.2703 17.8935 4.6111 18.4263 4.9519L18.4271 4.95245C19.4286 5.59128 20.4302 6.23008 21.4433 6.83484C22.4856 7.46532 23.5338 8.06177 24.5877 8.64113C24.7591 8.7357 24.9313 8.82675 25.1034 8.91778C25.3965 9.07278 25.6893 9.22764 25.9775 9.39941C26.4697 9.69762 26.962 10.0044 27.4484 10.3196C28.2387 10.827 29.0348 11.3141 29.8306 11.8009C31.2797 12.6874 32.7275 13.5732 34.1368 14.5797C34.9475 15.2016 35.735 15.8662 36.5226 16.5393C37.3333 17.2294 38.1556 17.8854 38.9837 18.533C39.4214 18.8752 39.8445 19.2532 40.2668 19.6304C40.6434 19.9668 41.0193 20.3026 41.4042 20.6119C41.9692 21.0612 42.5467 21.4623 43.1251 21.8642C43.4243 22.072 43.7237 22.2799 44.0217 22.4948C44.2937 22.7162 44.5541 22.9547 44.8146 23.1931C44.9999 23.3891 45.1857 23.5939 45.371 23.8069C45.4752 23.9433 45.5736 24.0966 45.6663 24.25L45.6779 24.267C45.669 24.2774 45.6607 24.2887 45.6526 24.3002C45.6342 24.3264 45.6169 24.3541 45.5968 24.3778C45.1441 24.9407 44.6664 25.4594 44.1775 25.9544C44.1412 25.9912 44.1045 26.0282 44.068 26.0648C44.0934 26.0398 44.1189 26.0103 44.1466 25.9829C43.815 26.2865 43.4781 26.5588 43.1357 26.8231C42.5856 27.2065 42.0355 27.5643 41.468 27.871C40.663 28.2459 39.8407 28.5526 39.0127 28.8168C37.8778 29.139 36.7302 29.3479 35.5807 29.5571C35.3928 29.5913 35.2049 29.6255 35.017 29.6602C34.3568 29.7795 33.6967 29.9073 33.0423 30.0692L33.014 30.0771C32.6873 30.1682 32.3557 30.2607 32.0405 30.4015C31.889 30.4758 31.7464 30.563 31.601 30.6519L31.5367 30.6912C31.4718 30.7071 31.4056 30.7212 31.339 30.7353C31.1203 30.7818 30.8968 30.8292 30.697 30.9468C30.0878 31.3104 29.7866 32.1524 29.499 32.9565L29.4925 32.9746C29.1856 33.8436 28.8555 34.6616 28.4907 35.471C28.4336 35.5923 28.3762 35.7137 28.3188 35.8351C28.0092 36.4898 27.6978 37.1483 27.4194 37.831C27.3056 38.1103 27.1944 38.3925 27.0832 38.675C26.8721 39.2115 26.6606 39.7488 26.4292 40.2678C25.937 41.2732 25.4332 42.2615 24.9178 43.2413C24.7383 43.5821 24.5588 43.9229 24.3792 44.2722C24.3792 44.2467 24.3792 44.2297 24.3734 44.2126C24.304 43.2328 24.1013 42.3126 23.8291 41.4095C23.7695 41.2098 23.7043 41.0157 23.6387 40.8208C23.5896 40.6747 23.5404 40.5282 23.4932 40.3786C23.3716 39.9781 23.2732 39.5691 23.1748 39.1517C23.0792 38.7725 22.9721 38.3998 22.8649 38.027C22.7578 37.6543 22.6507 37.2815 22.5551 36.9023C22.4046 36.2207 22.2482 35.5562 22.0861 34.8746C22.0966 34.9105 22.1049 34.9465 22.1137 34.9843C22.1195 35.0092 22.1255 35.0349 22.1324 35.062C22.0108 34.5167 21.9124 33.9544 21.8313 33.3921C21.8018 33.1749 21.7743 32.9567 21.7467 32.7383C21.6932 32.3139 21.6395 31.8884 21.5707 31.4665C21.5092 31.1002 21.4347 30.7387 21.3601 30.3769C21.2942 30.0571 21.2282 29.737 21.1711 29.4132C21.1354 29.2192 21.1039 29.0226 21.0725 28.826C21.0224 28.5131 20.9723 28.2 20.9047 27.8966C20.8838 27.802 20.8613 27.7096 20.8376 27.6185C21.1891 27.6649 21.5413 27.7007 21.895 27.7091C22.4632 27.7287 23.0383 27.6532 23.6071 27.5785C23.7802 27.5558 23.9528 27.5331 24.1244 27.5132C24.6456 27.4535 25.1668 27.3854 25.688 27.3087C26.2323 27.232 26.7766 27.0701 27.3094 26.8997C27.613 26.803 27.9176 26.7112 28.2221 26.6195C28.9632 26.3964 29.7042 26.1732 30.4307 25.8773C30.9518 25.6643 31.4672 25.4343 31.9536 25.0849C32.0707 25.0009 32.1888 24.9193 32.3068 24.8377C32.6795 24.5801 33.0526 24.3223 33.3955 23.9858C33.4593 23.9261 33.5216 23.8643 33.5839 23.8025C33.6461 23.7408 33.7083 23.6791 33.7719 23.6195C33.7559 23.6352 33.7399 23.6527 33.7233 23.6704C33.7666 23.6268 33.8098 23.5806 33.853 23.5343C34.0963 23.3042 34.3452 23.0657 34.5479 22.7675C34.7738 22.4352 34.9417 22.0603 35.0286 21.6002C35.1154 21.1316 35.0807 20.663 34.988 20.22C35.1096 19.9729 35.1849 19.6747 35.1849 19.3424C35.1849 18.5245 34.7159 17.8343 34.1599 17.8343C34.108 17.8343 34.0613 17.8343 34.0152 17.8258C33.913 17.8108 33.8154 17.7891 33.7143 17.7667L33.6735 17.7576C33.3608 17.6469 33.0481 17.5106 32.7412 17.3657C31.7702 16.865 30.817 16.2807 29.8677 15.6987C29.6054 15.5379 29.3434 15.3773 29.0814 15.2187C28.1491 14.6478 27.2225 14.0855 26.2844 13.5317C24.0781 12.2196 21.866 10.9416 19.6424 9.68059C18.6105 9.09602 17.5814 8.50109 16.5538 7.90087ZM20.3897 36.8456C20.3915 36.8532 20.3933 36.8607 20.3951 36.8683C20.3925 36.8604 20.391 36.8526 20.3897 36.8456ZM15.8783 26.7634C16.1794 26.0818 16.5848 25.5621 17.0712 25.1787C17.7661 24.6334 18.5768 24.4204 19.3933 24.4204C19.625 24.4204 19.8508 24.4374 20.0767 24.4715C20.1685 24.4858 20.2606 24.5004 20.3528 24.515C20.7546 24.5788 21.1587 24.6429 21.5591 24.6845C21.536 24.6803 21.5129 24.6781 21.4897 24.676C21.4665 24.6739 21.4433 24.6717 21.4201 24.6675C21.8139 24.7101 22.2077 24.7015 22.6015 24.676C22.6941 24.6661 22.7869 24.6563 22.8796 24.6466C24.1484 24.5126 25.4204 24.3784 26.6724 24.037C26.8802 23.9731 27.0882 23.9103 27.2962 23.8475C28.3918 23.5167 29.4864 23.1863 30.5523 22.6993C31.0199 22.4413 31.4583 22.1258 31.9033 21.8057L32.0231 21.7195C32.1679 21.6002 32.3069 21.4809 32.4458 21.3446V21.3531C32.5038 21.302 32.5617 21.2424 32.6196 21.1827L32.7759 21.0294C32.747 21.0549 32.7238 21.0805 32.6949 21.106C32.8049 20.9953 32.9091 20.8845 33.0134 20.7738C33.0076 20.7227 33.0018 20.6715 33.0018 20.6204C32.608 20.4756 32.22 20.2796 31.8378 20.0751C31.3518 19.814 30.8689 19.5302 30.3868 19.2468C30.2083 19.1419 30.03 19.037 29.8516 18.9334C29.3018 18.6099 28.754 18.2723 28.207 17.9351C27.8033 17.6863 27.4 17.4377 26.9967 17.1953C26.0652 16.6277 25.1375 16.077 24.2075 15.5249C23.9927 15.3974 23.7778 15.2698 23.5627 15.142C22.2508 14.3621 20.929 13.6109 19.6086 12.8606C18.895 12.455 18.1819 12.0497 17.4708 11.6402C16.1344 10.8719 14.8025 10.0868 13.4709 9.30169C12.6908 8.84173 11.9107 8.38182 11.1298 7.92542C9.10885 6.73261 7.06469 5.63353 5.01473 4.55999C4.94277 4.52702 4.87097 4.49394 4.79927 4.46092C4.25939 4.21219 3.72533 3.96617 3.17325 3.79318C3.02269 3.75912 2.87792 3.72503 2.73315 3.70797H2.62892C2.61154 3.7165 2.59417 3.725 2.5768 3.725C2.5744 3.725 2.57199 3.72646 2.56918 3.72818C2.56521 3.73062 2.56042 3.73353 2.55363 3.73353H2.54206C2.53766 3.73678 2.53409 3.74001 2.53103 3.74279C2.52606 3.74729 2.52248 3.75056 2.51889 3.75056L2.4552 3.8443C2.43783 3.87839 2.42623 3.90395 2.40886 3.93801C2.38569 3.98913 2.36254 4.04024 2.34517 4.09136C2.322 4.16804 2.30463 4.23622 2.28146 4.31289C2.24092 4.50034 2.20618 4.68778 2.17723 4.87523C2.13669 5.22455 2.10775 5.57388 2.08458 5.93171C2.06141 6.82634 2.0788 7.72947 2.11354 8.62407C2.14249 9.26308 2.15986 9.90209 2.21198 10.5411C2.26478 11.1937 2.31276 11.8534 2.36033 12.5072L2.37412 12.6967C2.45962 13.8508 2.60186 14.9986 2.744 16.1454C2.76554 16.3193 2.78708 16.4932 2.80843 16.6671C3.12692 19.2742 3.47439 21.8729 3.82762 24.4715L3.85259 24.628C4.047 25.846 4.24251 27.0709 4.46461 28.28C4.64805 29.2802 4.83819 30.2772 5.02809 31.2728C5.14393 31.8802 5.25969 32.487 5.37376 33.0939C5.6575 34.6275 5.94127 36.1781 6.15552 37.7458C6.36978 39.3561 6.55509 40.975 6.72303 42.6023C6.79831 43.3862 6.87938 44.17 6.96046 44.9453C6.99204 45.2334 7.02056 45.5216 7.04908 45.8097C7.09901 46.3139 7.14891 46.8182 7.21525 47.3225C7.2442 47.4843 7.27317 47.6462 7.30791 47.8081C7.34845 47.9615 7.39477 48.1234 7.44109 48.2767C7.45849 48.3236 7.4759 48.3684 7.49331 48.4132C7.51064 48.4579 7.52798 48.5026 7.54532 48.5494C7.88932 48.0643 8.20969 47.5328 8.52916 47.0028C8.5969 46.8905 8.66458 46.7782 8.73245 46.6664C9.09147 46.0615 9.44471 45.4566 9.75742 44.8005C9.89639 44.4852 10.018 44.1615 10.1338 43.8292C10.4355 42.8896 10.6868 41.9111 10.9379 40.9331C11.058 40.4655 11.1781 39.9981 11.3036 39.5351C11.6221 38.3678 11.9927 37.2346 12.398 36.127C12.6301 35.4928 12.8812 34.8782 13.1328 34.2624C13.3206 33.8026 13.5087 33.3421 13.6894 32.8723C14.0948 31.8329 14.4769 30.7849 14.8476 29.7114C15.0213 29.1917 15.1892 28.6719 15.3629 28.1522L15.3898 28.073C15.5425 27.6232 15.6923 27.1819 15.8783 26.7634Z" fill="#18B490"/>
<path d="M92.5698 45.481C93.2412 45.4146 93.7373 45.513 94.0581 45.776C94.408 46.0362 94.6061 46.3998 94.6523 46.8668C94.7273 47.6258 94.5602 48.3203 94.1509 48.9503C93.7707 49.5774 93.1005 49.9532 92.14 50.0776C89.8105 50.3669 87.7207 50.3967 85.8704 50.167C84.2279 54.7214 82.0754 58.5893 79.4128 61.7707C76.7766 64.92 73.9843 66.6405 71.0361 66.932C68.0002 67.2322 65.5633 65.6898 63.7253 62.3049C61.8873 58.92 60.671 54.2209 60.0764 48.2075C59.5684 43.0699 59.4773 38.4216 59.803 34.2628C59.9156 32.7188 60.1795 31.6611 60.5946 31.0895C61.036 30.4858 61.8405 30.1262 63.0081 30.0107C64.9347 29.8202 65.9803 30.5569 66.1448 32.2208C66.1621 32.396 66.1647 32.72 66.1525 33.1928C65.7963 38.5337 65.8289 43.3352 66.2503 47.5971C66.6919 52.0633 67.3931 55.428 68.3538 57.6911C69.3407 59.9221 70.5786 60.964 72.0673 60.8168C73.5853 60.6667 75.1307 59.4528 76.7035 57.175C78.2763 54.8972 79.6498 52.0937 80.8239 48.7647C78.9336 47.8315 77.4494 46.5339 76.3713 44.872C75.2903 43.1808 74.6358 41.1822 74.4078 38.8761C74.1798 36.57 74.3381 34.5941 74.8828 32.9486C75.4539 31.2709 76.3134 29.9774 77.4615 29.068C78.6388 28.1557 79.9864 27.6245 81.5043 27.4745C83.3726 27.2897 84.9131 27.8154 86.1259 29.0514C87.368 30.2845 88.1044 32.0687 88.3353 34.4039C88.6673 37.7609 88.2997 41.4965 87.2327 45.6108C88.8058 45.7206 90.5848 45.6773 92.5698 45.481ZM78.7999 38.1323C79.0828 40.993 80.2115 43.0184 82.1862 44.2086C83.0014 40.8266 83.3037 38.0702 83.093 35.9392C82.9717 34.7132 82.7231 33.8387 82.3472 33.3159C81.9684 32.7638 81.5016 32.5152 80.947 32.57C80.1589 32.6479 79.5628 33.1785 79.159 34.1617C78.7522 35.1157 78.6325 36.4392 78.7999 38.1323ZM95.5389 40.766C94.3129 40.8872 93.3659 40.7008 92.6981 40.2068C92.0273 39.6836 91.6415 38.9112 91.5404 37.8895C91.4394 36.8678 91.7498 35.9823 92.4716 35.233C93.2196 34.4516 94.1921 34.0017 95.3889 33.8833C96.469 33.7766 97.3707 33.9527 98.094 34.4117C98.8174 34.8708 99.2267 35.582 99.3219 36.5453C99.4374 37.7129 99.1503 38.6845 98.4606 39.4602C97.768 40.2066 96.7941 40.6419 95.5389 40.766ZM97.5135 64.314C95.6161 64.5016 94.1632 63.9673 93.1547 62.7111C92.1753 61.452 91.576 59.7132 91.3567 57.4947C91.2268 56.1811 91.2214 54.4867 91.3404 52.4116C91.4858 50.3044 91.7331 48.3345 92.0825 46.5019C92.2529 45.5418 92.5397 44.865 92.9429 44.4714C93.3461 44.0778 94.0294 43.8334 94.9927 43.7382C96.4814 43.591 97.2749 44.0136 97.373 45.0061C97.4452 45.7359 97.3353 47.4564 97.0433 50.1676C96.6602 53.4479 96.5249 55.6572 96.6375 56.7957C96.7241 57.6714 96.9072 58.3313 97.1869 58.7752C97.4667 59.2192 97.8838 59.4138 98.4385 59.3589C98.9639 59.307 99.5846 58.8771 100.301 58.0694C101.017 57.2617 101.953 56.0048 103.111 54.2986C103.421 53.8553 103.795 53.612 104.233 53.5687C104.612 53.5311 104.922 53.6774 105.161 54.0075C105.429 54.3347 105.593 54.8048 105.654 55.4178C105.769 56.5855 105.581 57.5178 105.09 58.2148C102.549 62.0327 100.024 64.0657 97.5135 64.314ZM111.143 63.9391C109.625 64.0891 108.423 63.8543 107.536 63.2345C106.679 62.6119 106.207 61.8627 106.12 60.987C106.045 60.228 106.257 59.5438 106.757 58.9343C107.257 58.3248 108.047 57.9667 109.127 57.8599C109.506 57.8224 109.949 57.8229 110.454 57.8614C110.985 57.8678 111.383 57.8726 111.649 57.8759C111.545 57.1198 111.299 56.4219 110.911 55.7823C110.553 55.1397 110.11 54.5351 109.582 53.9682C109.052 53.3722 108.559 52.8609 108.104 52.4342C107.369 54.246 106.606 55.7658 105.814 56.9937C105.05 58.2188 104.194 59.3941 103.244 60.5197C102.771 61.0971 102.242 61.4146 101.658 61.4724C101.191 61.5185 100.796 61.3955 100.472 61.1033C100.146 60.7818 99.9577 60.373 99.9087 59.8768C99.8509 59.2929 100.002 58.7327 100.361 58.196L100.861 57.4392C102.271 55.2954 103.32 53.541 104.011 52.1757C104.423 51.2801 104.896 50.0986 105.429 48.631C105.959 47.1343 106.47 45.5952 106.962 44.0137C107.39 42.6745 108.479 41.9183 110.231 41.7451C111.048 41.6643 111.624 41.681 111.96 41.7952C112.296 41.9094 112.479 42.1271 112.511 42.4482C112.528 42.6233 112.497 42.9064 112.418 43.2974C112.339 43.6884 112.216 44.0838 112.049 44.4835C111.627 45.5863 111.453 46.5026 111.525 47.2324C111.568 47.6703 111.762 48.1375 112.106 48.6341C112.479 49.1277 113.025 49.7369 113.745 50.4616C114.801 51.5952 115.605 52.5768 116.159 53.4064C116.739 54.2039 117.079 55.1134 117.18 56.1351C117.209 56.427 117.22 56.8386 117.214 57.3698C118.589 56.6737 120.122 55.0336 121.812 52.4495C122.122 52.0062 122.496 51.7629 122.934 51.7196C123.313 51.682 123.622 51.8283 123.861 52.1584C124.13 52.4856 124.294 52.9557 124.355 53.5687C124.464 54.678 124.276 55.6103 123.791 56.3658C122.51 58.3199 121.232 59.6991 119.956 60.5032C118.705 61.2753 117.105 61.7872 115.155 62.039C114.086 63.147 112.748 63.7803 111.143 63.9391ZM125.001 37.8529C123.775 37.9741 122.828 37.7877 122.16 37.2937C121.489 36.7705 121.103 35.9981 121.002 34.9764C120.901 33.9547 121.212 33.0692 121.933 32.3199C122.681 31.5385 123.654 31.0886 124.851 30.9702C125.931 30.8635 126.832 31.0396 127.556 31.4986C128.279 31.9577 128.688 32.6689 128.784 33.6322C128.899 34.7998 128.612 35.7714 127.922 36.5471C127.23 37.2935 126.256 37.7288 125.001 37.8529ZM126.975 61.4009C125.078 61.5885 123.625 61.0542 122.616 59.798C121.637 58.5389 121.038 56.8001 120.818 54.5816C120.689 53.268 120.683 51.5736 120.802 49.4985C120.948 47.3913 121.195 45.4214 121.544 43.5888C121.715 42.6287 122.001 41.9519 122.405 41.5583C122.808 41.1647 123.491 40.9203 124.454 40.8251C125.943 40.6779 126.737 41.1005 126.835 42.093C126.907 42.8228 126.797 44.5433 126.505 47.2545C126.122 50.5348 125.987 52.7441 126.099 53.8826C126.186 54.7583 126.369 55.4182 126.649 55.8621C126.928 56.3061 127.346 56.5007 127.9 56.4458C128.426 56.3939 129.046 55.964 129.762 55.1563C130.478 54.3486 131.415 53.0917 132.573 51.3855C132.883 50.9422 133.257 50.6989 133.695 50.6556C134.074 50.618 134.383 50.7643 134.622 51.0944C134.89 51.4216 135.055 51.8917 135.115 52.5047C135.231 53.6724 135.043 54.6047 134.552 55.3017C132.011 59.1196 129.486 61.1526 126.975 61.4009ZM153.345 44.9985C153.725 44.961 154.036 45.1219 154.277 45.4812C154.519 45.8404 154.669 46.312 154.727 46.8958C154.865 48.297 154.524 49.1708 153.704 49.5172C152.013 50.3034 150.121 50.8442 148.028 51.1395C147.716 53.6464 146.816 55.7251 145.328 57.3754C143.838 58.9966 142.057 59.9097 139.984 60.1146C138.233 60.2878 136.687 60.0132 135.348 59.2907C134.039 58.5654 132.993 57.5339 132.213 56.1963C131.432 54.8586 130.961 53.3724 130.799 51.7377C130.58 49.5192 130.808 47.507 131.485 45.701C132.158 43.8658 133.191 42.393 134.585 41.2825C135.975 40.1428 137.576 39.4835 139.385 39.3045C141.604 39.0852 143.461 39.6826 144.957 41.097C146.479 42.4793 147.468 44.2827 147.924 46.5073C149.287 46.2841 150.893 45.8306 152.741 45.1467C152.969 45.0652 153.17 45.0158 153.345 44.9985ZM139.875 55.4386C140.809 55.3462 141.575 54.8874 142.171 54.062C142.797 53.2338 143.155 52.093 143.248 50.6395C142.282 50.116 141.502 49.3825 140.908 48.4391C140.342 47.4927 140.005 46.465 139.895 45.3557C139.849 44.8886 139.847 44.4173 139.888 43.9415L139.669 43.9632C138.502 44.0786 137.58 44.7446 136.904 45.9609C136.255 47.1452 136.031 48.7591 136.234 50.8025C136.392 52.408 136.82 53.6037 137.517 54.3896C138.243 55.1726 139.029 55.5223 139.875 55.4386ZM155.229 58.6072C154.12 58.7169 153.274 58.211 152.692 57.0895C152.138 55.9652 151.735 54.1186 151.481 51.5498C151.105 47.755 151.289 44.0965 152.031 40.5744C152.21 39.7018 152.573 39.047 153.119 38.6098C153.692 38.1405 154.518 37.8524 155.598 37.7456C156.182 37.6879 156.598 37.7205 156.846 37.8434C157.094 37.9662 157.238 38.232 157.279 38.6407C157.325 39.1077 157.21 40.1802 156.933 41.8582C156.757 43.0547 156.624 44.0995 156.536 44.9926C156.447 45.8856 156.408 46.9801 156.418 48.276C157.134 45.6704 158.012 43.5202 159.053 41.8256C160.093 40.1309 161.15 38.8916 162.222 38.1076C163.323 37.3208 164.356 36.8797 165.319 36.7845C166.253 36.6921 166.978 36.871 167.494 37.3211C168.037 37.739 168.354 38.4151 168.446 39.3492C168.521 40.1082 168.502 41.5544 168.389 43.6879C168.273 45.4974 168.207 47.2136 168.191 48.8364C168.171 50.43 168.258 52.2048 168.452 54.1605C168.562 55.2698 168.407 56.0956 167.989 56.6381C167.598 57.1484 166.891 57.4541 165.869 57.5551C164.906 57.6504 164.181 57.4715 163.694 57.0186C163.207 56.5656 162.915 55.8429 162.816 54.8504C162.701 53.6828 162.715 51.736 162.858 49.01C162.977 46.6401 163.005 45.134 162.942 44.4918C162.896 44.0248 162.712 43.8071 162.391 43.8388C162.011 43.8764 161.52 44.426 160.918 45.4878C160.342 46.5175 159.768 47.8711 159.197 49.5488C158.655 51.2236 158.254 52.9729 157.992 54.7969C157.806 56.2006 157.519 57.1722 157.13 57.7118C156.768 58.2193 156.134 58.5177 155.229 58.6072Z" fill="#18B490"/>
</svg>
