<svg width="180" height="48" viewBox="0 0 180 48" fill="none" xmlns="http://www.w3.org/2000/svg">
<g filter="url(#filter0_d_659_103)">
<rect x="4" y="4" width="172" height="40" rx="8" fill="#F5F5FD" shape-rendering="crispEdges"/>
<rect x="4.5" y="4.5" width="171" height="39" rx="7.5" stroke="#C3C0F2" shape-rendering="crispEdges"/>
<path d="M24 19V26M28 19V23M32 19V28M21 15H35C36.1046 15 37 15.8954 37 17V31C37 32.1046 36.1046 33 35 33H21C19.8954 33 19 32.1046 19 31V17C19 15.8954 19.8954 15 21 15Z" stroke="#8673DF" stroke-width="2" stroke-linecap="round" stroke-linejoin="round"/>
<path d="M50.7762 30L55.3842 18.8H56.6642L61.2402 30H59.2562L55.6722 20.928H56.3442L52.7282 30H50.7762ZM53.0482 27.84V26.24H58.9842V27.84H53.0482ZM67.9666 30V25.568C67.9666 25.056 67.8012 24.6347 67.4706 24.304C67.1506 23.9733 66.7346 23.808 66.2226 23.808C65.8812 23.808 65.5772 23.8827 65.3106 24.032C65.0439 24.1813 64.8359 24.3893 64.6866 24.656C64.5372 24.9227 64.4626 25.2267 64.4626 25.568L63.7746 25.184C63.7746 24.5973 63.9026 24.08 64.1586 23.632C64.4146 23.1733 64.7666 22.816 65.2146 22.56C65.6732 22.2933 66.1852 22.16 66.7506 22.16C67.3266 22.16 67.8386 22.3093 68.2866 22.608C68.7346 22.896 69.0866 23.2747 69.3426 23.744C69.5986 24.2027 69.7266 24.6827 69.7266 25.184V30H67.9666ZM62.7026 30V22.32H64.4626V30H62.7026ZM74.8311 30.16C74.1377 30.16 73.5084 29.984 72.9431 29.632C72.3884 29.28 71.9457 28.8053 71.6151 28.208C71.2951 27.6 71.1351 26.9227 71.1351 26.176C71.1351 25.4187 71.2951 24.7413 71.6151 24.144C71.9457 23.536 72.3884 23.056 72.9431 22.704C73.5084 22.3413 74.1377 22.16 74.8311 22.16C75.4177 22.16 75.9351 22.288 76.3831 22.544C76.8417 22.7893 77.2044 23.1307 77.4711 23.568C77.7377 24.0053 77.8711 24.5013 77.8711 25.056V27.264C77.8711 27.8187 77.7377 28.3147 77.4711 28.752C77.2151 29.1893 76.8577 29.536 76.3991 29.792C75.9404 30.0373 75.4177 30.16 74.8311 30.16ZM75.1191 28.496C75.5564 28.496 75.9351 28.4 76.2551 28.208C76.5857 28.0053 76.8417 27.728 77.0231 27.376C77.2044 27.024 77.2951 26.6187 77.2951 26.16C77.2951 25.7013 77.2044 25.296 77.0231 24.944C76.8417 24.592 76.5857 24.32 76.2551 24.128C75.9351 23.9253 75.5564 23.824 75.1191 23.824C74.6924 23.824 74.3137 23.9253 73.9831 24.128C73.6631 24.32 73.4071 24.592 73.2151 24.944C73.0337 25.296 72.9431 25.7013 72.9431 26.16C72.9431 26.6187 73.0337 27.024 73.2151 27.376C73.4071 27.728 73.6631 28.0053 73.9831 28.208C74.3137 28.4 74.6924 28.496 75.1191 28.496ZM78.9431 30H77.1831V27.936L77.4871 26.064L77.1831 24.208V18.48H78.9431V30ZM84.2994 30V22.32H86.0594V30H84.2994ZM89.4034 30V25.424C89.4034 24.912 89.2434 24.5173 88.9234 24.24C88.6034 23.952 88.2088 23.808 87.7394 23.808C87.4194 23.808 87.1314 23.872 86.8754 24C86.6301 24.128 86.4328 24.3147 86.2834 24.56C86.1341 24.7947 86.0594 25.0827 86.0594 25.424L85.3714 25.04C85.3714 24.4533 85.4994 23.9467 85.7554 23.52C86.0114 23.0933 86.3581 22.7627 86.7954 22.528C87.2328 22.2827 87.7234 22.16 88.2674 22.16C88.8114 22.16 89.3021 22.2773 89.7394 22.512C90.1768 22.7467 90.5234 23.0773 90.7794 23.504C91.0354 23.9307 91.1634 24.4427 91.1634 25.04V30H89.4034ZM94.5074 30V25.424C94.5074 24.912 94.3474 24.5173 94.0274 24.24C93.7074 23.952 93.3128 23.808 92.8434 23.808C92.5341 23.808 92.2514 23.872 91.9954 24C91.7394 24.128 91.5368 24.3147 91.3874 24.56C91.2381 24.7947 91.1634 25.0827 91.1634 25.424L90.1714 25.04C90.2248 24.4533 90.3954 23.9467 90.6834 23.52C90.9714 23.0933 91.3394 22.7627 91.7874 22.528C92.2461 22.2827 92.7474 22.16 93.2914 22.16C93.8461 22.16 94.3474 22.2773 94.7954 22.512C95.2434 22.7467 95.6008 23.0773 95.8674 23.504C96.1341 23.9307 96.2674 24.4427 96.2674 25.04V30H94.5074ZM101.333 30.16C100.682 30.16 100.101 30.016 99.5887 29.728C99.0874 29.44 98.6927 29.0453 98.4047 28.544C98.1274 28.032 97.9887 27.4453 97.9887 26.784V22.32H99.7487V26.704C99.7487 27.0773 99.8074 27.3973 99.9247 27.664C100.053 27.92 100.234 28.1173 100.469 28.256C100.714 28.3947 101.002 28.464 101.333 28.464C101.845 28.464 102.234 28.3147 102.501 28.016C102.778 27.7067 102.917 27.2693 102.917 26.704V22.32H104.677V26.784C104.677 27.456 104.533 28.048 104.245 28.56C103.967 29.0613 103.578 29.456 103.077 29.744C102.575 30.0213 101.994 30.16 101.333 30.16ZM110.082 30.16C109.325 30.16 108.637 29.984 108.018 29.632C107.41 29.28 106.93 28.8 106.578 28.192C106.226 27.584 106.05 26.9067 106.05 26.16C106.05 25.4027 106.226 24.7253 106.578 24.128C106.93 23.52 107.41 23.04 108.018 22.688C108.637 22.336 109.325 22.16 110.082 22.16C110.68 22.16 111.234 22.2773 111.746 22.512C112.269 22.736 112.712 23.0613 113.074 23.488L111.922 24.656C111.698 24.3893 111.426 24.192 111.106 24.064C110.797 23.9253 110.456 23.856 110.082 23.856C109.645 23.856 109.256 23.9573 108.914 24.16C108.584 24.352 108.322 24.6187 108.13 24.96C107.949 25.3013 107.858 25.7013 107.858 26.16C107.858 26.608 107.949 27.008 108.13 27.36C108.322 27.7013 108.584 27.9733 108.914 28.176C109.256 28.368 109.645 28.464 110.082 28.464C110.456 28.464 110.797 28.4 111.106 28.272C111.426 28.1333 111.698 27.9307 111.922 27.664L113.074 28.832C112.712 29.2587 112.269 29.5893 111.746 29.824C111.234 30.048 110.68 30.16 110.082 30.16ZM119.707 30V25.568C119.707 25.056 119.542 24.6347 119.211 24.304C118.891 23.9733 118.475 23.808 117.963 23.808C117.622 23.808 117.318 23.8827 117.051 24.032C116.785 24.1813 116.577 24.3893 116.427 24.656C116.278 24.9227 116.203 25.2267 116.203 25.568L115.515 25.184C115.515 24.5973 115.643 24.08 115.899 23.632C116.155 23.1733 116.507 22.816 116.955 22.56C117.414 22.2933 117.926 22.16 118.491 22.16C119.067 22.16 119.579 22.288 120.027 22.544C120.475 22.8 120.827 23.1573 121.083 23.616C121.339 24.064 121.467 24.5867 121.467 25.184V30H119.707ZM114.443 30V18.48H116.203V30H114.443ZM126.659 30V22.32H128.419V30H126.659ZM131.763 30V25.424C131.763 24.912 131.603 24.5173 131.283 24.24C130.963 23.952 130.568 23.808 130.099 23.808C129.779 23.808 129.491 23.872 129.235 24C128.989 24.128 128.792 24.3147 128.643 24.56C128.493 24.7947 128.419 25.0827 128.419 25.424L127.731 25.04C127.731 24.4533 127.859 23.9467 128.115 23.52C128.371 23.0933 128.717 22.7627 129.155 22.528C129.592 22.2827 130.083 22.16 130.627 22.16C131.171 22.16 131.661 22.2773 132.099 22.512C132.536 22.7467 132.883 23.0773 133.139 23.504C133.395 23.9307 133.523 24.4427 133.523 25.04V30H131.763ZM136.867 30V25.424C136.867 24.912 136.707 24.5173 136.387 24.24C136.067 23.952 135.672 23.808 135.203 23.808C134.893 23.808 134.611 23.872 134.355 24C134.099 24.128 133.896 24.3147 133.747 24.56C133.597 24.7947 133.523 25.0827 133.523 25.424L132.531 25.04C132.584 24.4533 132.755 23.9467 133.043 23.52C133.331 23.0933 133.699 22.7627 134.147 22.528C134.605 22.2827 135.107 22.16 135.651 22.16C136.205 22.16 136.707 22.2773 137.155 22.512C137.603 22.7467 137.96 23.0773 138.227 23.504C138.493 23.9307 138.627 24.4427 138.627 25.04V30H136.867ZM144.06 30.16C143.313 30.16 142.636 29.984 142.028 29.632C141.42 29.2693 140.935 28.784 140.572 28.176C140.22 27.568 140.044 26.8907 140.044 26.144C140.044 25.3973 140.22 24.7253 140.572 24.128C140.935 23.5307 141.42 23.056 142.028 22.704C142.636 22.3413 143.313 22.16 144.06 22.16C144.817 22.16 145.5 22.336 146.108 22.688C146.716 23.04 147.196 23.52 147.548 24.128C147.911 24.7253 148.092 25.3973 148.092 26.144C148.092 26.8907 147.911 27.568 147.548 28.176C147.196 28.784 146.716 29.2693 146.108 29.632C145.5 29.984 144.817 30.16 144.06 30.16ZM144.06 28.464C144.497 28.464 144.881 28.368 145.212 28.176C145.553 27.9733 145.815 27.696 145.996 27.344C146.188 26.992 146.284 26.592 146.284 26.144C146.284 25.696 146.188 25.3013 145.996 24.96C145.804 24.6187 145.543 24.352 145.212 24.16C144.881 23.9573 144.497 23.856 144.06 23.856C143.633 23.856 143.249 23.9573 142.908 24.16C142.577 24.352 142.316 24.6187 142.124 24.96C141.943 25.3013 141.852 25.696 141.852 26.144C141.852 26.592 141.943 26.992 142.124 27.344C142.316 27.696 142.577 27.9733 142.908 28.176C143.249 28.368 143.633 28.464 144.06 28.464ZM149.656 30V22.32H151.416V30H149.656ZM151.416 25.728L150.808 25.424C150.808 24.4533 151.021 23.6693 151.448 23.072C151.885 22.464 152.541 22.16 153.416 22.16C153.8 22.16 154.146 22.2293 154.456 22.368C154.765 22.5067 155.053 22.7307 155.32 23.04L154.168 24.224C154.029 24.0747 153.874 23.968 153.704 23.904C153.533 23.84 153.336 23.808 153.112 23.808C152.621 23.808 152.216 23.9627 151.896 24.272C151.576 24.5813 151.416 25.0667 151.416 25.728ZM159.605 30.16C158.837 30.16 158.144 29.9893 157.525 29.648C156.917 29.296 156.432 28.816 156.069 28.208C155.717 27.6 155.541 26.9173 155.541 26.16C155.541 25.4027 155.717 24.7253 156.069 24.128C156.421 23.52 156.896 23.04 157.493 22.688C158.101 22.336 158.773 22.16 159.509 22.16C160.224 22.16 160.853 22.3253 161.397 22.656C161.952 22.9867 162.384 23.44 162.693 24.016C163.013 24.592 163.173 25.248 163.173 25.984C163.173 26.112 163.162 26.2453 163.141 26.384C163.13 26.512 163.109 26.656 163.077 26.816H156.773V25.376H162.165L161.509 25.952C161.488 25.4827 161.397 25.088 161.237 24.768C161.077 24.448 160.848 24.2027 160.549 24.032C160.261 23.8613 159.904 23.776 159.477 23.776C159.029 23.776 158.64 23.872 158.309 24.064C157.978 24.256 157.722 24.528 157.541 24.88C157.36 25.2213 157.269 25.632 157.269 26.112C157.269 26.592 157.365 27.0133 157.557 27.376C157.749 27.7387 158.021 28.0213 158.373 28.224C158.725 28.416 159.13 28.512 159.589 28.512C159.984 28.512 160.346 28.4427 160.677 28.304C161.018 28.1653 161.306 27.9627 161.541 27.696L162.661 28.832C162.288 29.2693 161.834 29.6 161.301 29.824C160.768 30.048 160.202 30.16 159.605 30.16Z" fill="#8673DF"/>
</g>
<defs>
<filter id="filter0_d_659_103" x="0" y="0" width="180" height="48" filterUnits="userSpaceOnUse" color-interpolation-filters="sRGB">
<feFlood flood-opacity="0" result="BackgroundImageFix"/>
<feColorMatrix in="SourceAlpha" type="matrix" values="0 0 0 0 0 0 0 0 0 0 0 0 0 0 0 0 0 0 127 0" result="hardAlpha"/>
<feOffset/>
<feGaussianBlur stdDeviation="2"/>
<feComposite in2="hardAlpha" operator="out"/>
<feColorMatrix type="matrix" values="0 0 0 0 0.658824 0 0 0 0 0.623529 0 0 0 0 0.917647 0 0 0 1 0"/>
<feBlend mode="normal" in2="BackgroundImageFix" result="effect1_dropShadow_659_103"/>
<feBlend mode="normal" in="SourceGraphic" in2="effect1_dropShadow_659_103" result="shape"/>
</filter>
</defs>
</svg>
