<svg width="348" height="155" viewBox="0 0 348 155" fill="none" xmlns="http://www.w3.org/2000/svg">
<path d="M2 152.317C8.74939 141.349 19.1925 133.576 31.8469 130.666C42.8592 128.134 55.7113 126.73 66.7198 130.125C73.7712 132.3 79.2779 137.862 85.2001 141.956C96.3269 149.647 105.228 153.076 118.295 147.523C132.482 141.493 149.333 131.269 157.498 117.831C162.146 110.18 170.236 87.3948 161.828 79.6328C149.653 68.3951 129.944 97.9038 126.8 106.077C121.34 120.273 126.452 133.59 142.265 136.311C162.136 139.73 182.913 126.573 198.247 115.511C236.445 87.9556 268.065 52.4895 306.964 25.8156C316.226 19.4647 325.95 13.8333 335.264 7.56729C336.089 7.01271 344.978 2 340.677 2C331.008 2 320.971 5.97068 312.067 9.26841C304.907 11.9204 296.332 14.6968 290.107 19.3205C285.686 22.6049 300.98 17.3161 306.191 15.5316C309.24 14.4875 346.03 0.868546 345.78 3.77844C345.226 10.2415 341.348 18.0342 339.285 23.9599C334.485 37.7489 328.982 51.1156 323.511 64.632" stroke="#DDDCF8" stroke-width="4" stroke-linecap="round"/>
</svg>
