<svg width="431" height="7095" viewBox="0 0 431 7095" fill="none" xmlns="http://www.w3.org/2000/svg">
<path d="M48.038 512L195.494 153.6H236.454L382.886 512H319.398L204.71 221.696H226.214L110.502 512H48.038ZM120.742 442.88V391.68H310.694V442.88H120.742Z" fill="#A89FEA" fill-opacity="0.1"/>
<path d="M72.162 1157V798.6H131.042V1157H72.162ZM300.002 1157V798.6H358.882V1157H300.002ZM112.61 998.28V944.52H312.802V998.28H112.61Z" fill="#A89FEA" fill-opacity="0.1"/>
<path d="M38.912 1802V1443.6H79.872L228.864 1688.85H202.24L351.232 1443.6H392.192V1802H333.312V1547.02L346.624 1550.61L236.032 1732.37H195.072L84.48 1550.61L97.792 1547.02V1802H38.912Z" fill="#A89FEA" fill-opacity="0.1"/>
<path d="M48.038 2447L195.494 2088.6H236.454L382.886 2447H319.398L204.71 2156.7H226.214L110.502 2447H48.038ZM120.742 2377.88V2326.68H310.694V2377.88H120.742Z" fill="#A89FEA" fill-opacity="0.1"/>
<path d="M105.36 3092V3038.24H199.568C224.144 3038.24 245.648 3032.95 264.08 3022.37C282.853 3011.79 297.36 2997.11 307.6 2978.34C318.181 2959.22 323.472 2937.21 323.472 2912.29C323.472 2887.71 318.181 2866.04 307.6 2847.26C297.019 2828.49 282.341 2813.81 263.568 2803.23C245.136 2792.65 223.803 2787.36 199.568 2787.36H105.36V2733.6H201.104C227.045 2733.6 251.109 2738.21 273.296 2747.42C295.483 2756.3 314.768 2768.93 331.152 2785.31C347.877 2801.35 360.848 2820.3 370.064 2842.14C379.28 2863.65 383.888 2887.2 383.888 2912.8C383.888 2938.06 379.28 2961.61 370.064 2983.46C360.848 3005.3 348.048 3024.42 331.664 3040.8C315.28 3056.84 295.995 3069.47 273.808 3078.69C251.621 3087.56 227.728 3092 202.128 3092H105.36ZM64.912 3092V2733.6H123.792V3092H64.912Z" fill="#A89FEA" fill-opacity="0.1"/>
<path d="M215.49 3742.12C204.567 3742.12 195.522 3738.54 188.354 3731.37C181.527 3723.86 178.114 3714.81 178.114 3704.23C178.114 3693.31 181.527 3684.26 188.354 3677.1C195.522 3669.93 204.567 3666.34 215.49 3666.34C226.413 3666.34 235.287 3669.93 242.114 3677.1C249.282 3684.26 252.866 3693.31 252.866 3704.23C252.866 3714.81 249.282 3723.86 242.114 3731.37C235.287 3738.54 226.413 3742.12 215.49 3742.12Z" fill="#A89FEA" fill-opacity="0.1"/>
<path d="M134.11 4229.94V4181.3H224.734C242.825 4181.3 256.819 4176.69 266.718 4167.47C276.958 4157.91 282.078 4144.77 282.078 4128.05C282.078 4113.03 277.129 4100.4 267.23 4090.16C257.331 4079.92 243.337 4074.8 225.246 4074.8H134.11V4023.6H227.806C250.334 4023.6 270.131 4028.21 287.198 4037.42C304.265 4046.3 317.406 4058.59 326.622 4074.29C336.179 4089.65 340.958 4107.23 340.958 4127.02C340.958 4147.85 336.179 4165.94 326.622 4181.3C317.406 4196.66 304.265 4208.6 287.198 4217.14C270.131 4225.67 250.334 4229.94 227.806 4229.94H134.11ZM93.662 4382V4023.6H152.542V4382H93.662ZM290.27 4382L164.83 4226.35L219.614 4206.38L364.51 4382H290.27Z" fill="#A89FEA" fill-opacity="0.1"/>
<path d="M103.412 5027V4668.6H162.292V5027H103.412ZM143.86 5027V4973.24H344.564V5027H143.86ZM143.86 4869.82V4818.1H327.156V4869.82H143.86ZM143.86 4722.36V4668.6H342.004V4722.36H143.86Z" fill="#A89FEA" fill-opacity="0.1"/>
<path d="M72.162 5672V5313.6H131.042V5672H72.162ZM300.002 5672V5313.6H358.882V5672H300.002ZM112.61 5513.28V5459.52H312.802V5513.28H112.61Z" fill="#A89FEA" fill-opacity="0.1"/>
<path d="M48.038 6317L195.494 5958.6H236.454L382.886 6317H319.398L204.71 6026.7H226.214L110.502 6317H48.038ZM120.742 6247.88V6196.68H310.694V6247.88H120.742Z" fill="#A89FEA" fill-opacity="0.1"/>
<path d="M70.912 6962V6603.6H111.872L129.792 6671.18V6962H70.912ZM319.232 6962L104.704 6681.94L111.872 6603.6L326.4 6883.66L319.232 6962ZM319.232 6962L301.312 6899.02V6603.6H360.192V6962H319.232Z" fill="#A89FEA" fill-opacity="0.1"/>
</svg>
