<svg width="154" height="48" viewBox="0 0 154 48" fill="none" xmlns="http://www.w3.org/2000/svg">
<g filter="url(#filter0_d_659_79)">
<rect x="4" y="4" width="146" height="40" rx="8" fill="#F5F5FD" shape-rendering="crispEdges"/>
<rect x="4.5" y="4.5" width="145" height="39" rx="7.5" stroke="#C3C0F2" shape-rendering="crispEdges"/>
<path d="M28.5 34H34C34.5304 34 35.0391 33.7893 35.4142 33.4142C35.7893 33.0391 36 32.5304 36 32V19L31 14H22C21.4696 14 20.9609 14.2107 20.5858 14.5858C20.2107 14.9609 20 15.4696 20 16V25.5M30 14V18C30 18.5304 30.2107 19.0391 30.5858 19.4142C30.9609 19.7893 31.4696 20 32 20H36M29.378 27.626C29.5752 27.4288 29.7317 27.1946 29.8385 26.9369C29.9452 26.6792 30.0001 26.4029 30.0001 26.124C30.0001 25.8451 29.9452 25.5688 29.8385 25.3111C29.7317 25.0534 29.5752 24.8192 29.378 24.622C29.1808 24.4248 28.9466 24.2683 28.6889 24.1615C28.4312 24.0548 28.1549 23.9999 27.876 23.9999C27.5971 23.9999 27.3208 24.0548 27.0631 24.1615C26.8054 24.2683 26.5712 24.4248 26.374 24.622L21.364 29.634C21.1262 29.8716 20.9522 30.1653 20.858 30.488L20.021 33.358C19.9959 33.444 19.9944 33.5353 20.0166 33.6221C20.0389 33.7089 20.0841 33.7882 20.1474 33.8516C20.2108 33.9149 20.2901 33.9601 20.3769 33.9824C20.4637 34.0046 20.555 34.0031 20.641 33.978L23.511 33.141C23.8337 33.0468 24.1274 32.8728 24.365 32.635L29.378 27.626Z" stroke="#8673DF" stroke-width="2" stroke-linecap="round" stroke-linejoin="round"/>
<path d="M56.4603 30.16C55.6496 30.16 54.8976 30.016 54.2043 29.728C53.5216 29.4293 52.9243 29.0187 52.4123 28.496C51.9003 27.9627 51.5056 27.3493 51.2283 26.656C50.9509 25.952 50.8123 25.2 50.8123 24.4C50.8123 23.6 50.9509 22.8533 51.2283 22.16C51.5056 21.456 51.9003 20.8427 52.4123 20.32C52.9243 19.7973 53.5216 19.3867 54.2043 19.088C54.8976 18.7893 55.6496 18.64 56.4603 18.64C57.3669 18.64 58.1509 18.7893 58.8123 19.088C59.4736 19.3867 60.0603 19.792 60.5723 20.304L59.3243 21.552C58.9936 21.1893 58.5883 20.9067 58.1083 20.704C57.6389 20.5013 57.0896 20.4 56.4603 20.4C55.9056 20.4 55.3989 20.496 54.9403 20.688C54.4816 20.88 54.0816 21.1573 53.7403 21.52C53.4096 21.872 53.1536 22.2933 52.9723 22.784C52.7909 23.2747 52.7003 23.8133 52.7003 24.4C52.7003 24.9867 52.7909 25.5253 52.9723 26.016C53.1536 26.5067 53.4096 26.9333 53.7403 27.296C54.0816 27.648 54.4816 27.92 54.9403 28.112C55.3989 28.304 55.9056 28.4 56.4603 28.4C57.1429 28.4 57.7189 28.2987 58.1883 28.096C58.6683 27.8827 59.0736 27.5947 59.4043 27.232L60.6523 28.48C60.1403 29.0027 59.5376 29.4133 58.8443 29.712C58.1509 30.0107 57.3563 30.16 56.4603 30.16ZM65.4398 30.16C64.6931 30.16 64.0158 29.984 63.4078 29.632C62.7998 29.2693 62.3144 28.784 61.9518 28.176C61.5998 27.568 61.4238 26.8907 61.4238 26.144C61.4238 25.3973 61.5998 24.7253 61.9518 24.128C62.3144 23.5307 62.7998 23.056 63.4078 22.704C64.0158 22.3413 64.6931 22.16 65.4398 22.16C66.1971 22.16 66.8798 22.336 67.4878 22.688C68.0958 23.04 68.5758 23.52 68.9278 24.128C69.2904 24.7253 69.4718 25.3973 69.4718 26.144C69.4718 26.8907 69.2904 27.568 68.9278 28.176C68.5758 28.784 68.0958 29.2693 67.4878 29.632C66.8798 29.984 66.1971 30.16 65.4398 30.16ZM65.4398 28.464C65.8771 28.464 66.2611 28.368 66.5918 28.176C66.9331 27.9733 67.1944 27.696 67.3758 27.344C67.5678 26.992 67.6638 26.592 67.6638 26.144C67.6638 25.696 67.5678 25.3013 67.3758 24.96C67.1838 24.6187 66.9224 24.352 66.5918 24.16C66.2611 23.9573 65.8771 23.856 65.4398 23.856C65.0131 23.856 64.6291 23.9573 64.2878 24.16C63.9571 24.352 63.6958 24.6187 63.5038 24.96C63.3224 25.3013 63.2318 25.696 63.2318 26.144C63.2318 26.592 63.3224 26.992 63.5038 27.344C63.6958 27.696 63.9571 27.9733 64.2878 28.176C64.6291 28.368 65.0131 28.464 65.4398 28.464ZM75.1474 30.16C74.5607 30.16 74.038 30.0373 73.5794 29.792C73.1207 29.536 72.758 29.1893 72.4914 28.752C72.2354 28.3147 72.1074 27.8187 72.1074 27.264V25.056C72.1074 24.5013 72.2407 24.0053 72.5074 23.568C72.774 23.1307 73.1367 22.7893 73.5954 22.544C74.054 22.288 74.5714 22.16 75.1474 22.16C75.8407 22.16 76.4647 22.3413 77.0194 22.704C77.5847 23.056 78.0274 23.536 78.3474 24.144C78.678 24.7413 78.8434 25.4187 78.8434 26.176C78.8434 26.9227 78.678 27.6 78.3474 28.208C78.0274 28.8053 77.5847 29.28 77.0194 29.632C76.4647 29.984 75.8407 30.16 75.1474 30.16ZM74.8594 28.496C75.286 28.496 75.6594 28.4 75.9794 28.208C76.31 28.0053 76.566 27.728 76.7474 27.376C76.9394 27.024 77.0354 26.6187 77.0354 26.16C77.0354 25.7013 76.9394 25.296 76.7474 24.944C76.566 24.592 76.31 24.32 75.9794 24.128C75.6594 23.9253 75.286 23.824 74.8594 23.824C74.4327 23.824 74.054 23.9253 73.7234 24.128C73.3927 24.32 73.1367 24.592 72.9554 24.944C72.774 25.296 72.6834 25.7013 72.6834 26.16C72.6834 26.6187 72.774 27.024 72.9554 27.376C73.1367 27.728 73.3927 28.0053 73.7234 28.208C74.054 28.4 74.4327 28.496 74.8594 28.496ZM71.0354 33.2V22.32H72.7954V24.384L72.4914 26.256L72.7954 28.112V33.2H71.0354ZM82.631 30.08L79.351 22.32H81.287L83.527 28.016H82.967L85.335 22.32H87.287L83.719 30.08H82.631ZM80.343 33.2L82.727 28.288L83.719 30.08L82.295 33.2H80.343ZM90.3191 30L87.2311 22.32H89.0551L91.1351 27.904L90.5911 27.92L92.6231 22.32H93.6471L95.6791 27.92L95.1351 27.904L97.2151 22.32H99.0391L95.9511 30H94.9271L92.8471 24.688H93.4231L91.3431 30H90.3191ZM100.242 30V22.32H102.002V30H100.242ZM102.002 25.728L101.394 25.424C101.394 24.4533 101.607 23.6693 102.034 23.072C102.471 22.464 103.127 22.16 104.002 22.16C104.386 22.16 104.732 22.2293 105.042 22.368C105.351 22.5067 105.639 22.7307 105.906 23.04L104.754 24.224C104.615 24.0747 104.46 23.968 104.29 23.904C104.119 23.84 103.922 23.808 103.698 23.808C103.207 23.808 102.802 23.9627 102.482 24.272C102.162 24.5813 102.002 25.0667 102.002 25.728ZM106.873 30V22.32H108.633V30H106.873ZM107.753 20.912C107.455 20.912 107.204 20.8107 107.001 20.608C106.809 20.4053 106.713 20.1547 106.713 19.856C106.713 19.5573 106.809 19.3067 107.001 19.104C107.204 18.9013 107.455 18.8 107.753 18.8C108.063 18.8 108.313 18.9013 108.505 19.104C108.697 19.3067 108.793 19.5573 108.793 19.856C108.793 20.1547 108.697 20.4053 108.505 20.608C108.313 20.8107 108.063 20.912 107.753 20.912ZM111.875 30V19.12H113.635V30H111.875ZM110.035 23.92V22.32H115.475V23.92H110.035ZM116.87 30V22.32H118.63V30H116.87ZM117.75 20.912C117.451 20.912 117.201 20.8107 116.998 20.608C116.806 20.4053 116.71 20.1547 116.71 19.856C116.71 19.5573 116.806 19.3067 116.998 19.104C117.201 18.9013 117.451 18.8 117.75 18.8C118.059 18.8 118.31 18.9013 118.502 19.104C118.694 19.3067 118.79 19.5573 118.79 19.856C118.79 20.1547 118.694 20.4053 118.502 20.608C118.31 20.8107 118.059 20.912 117.75 20.912ZM125.968 30V25.568C125.968 25.056 125.803 24.6347 125.472 24.304C125.152 23.9733 124.736 23.808 124.224 23.808C123.883 23.808 123.579 23.8827 123.312 24.032C123.045 24.1813 122.837 24.3893 122.688 24.656C122.539 24.9227 122.464 25.2267 122.464 25.568L121.776 25.184C121.776 24.5973 121.904 24.08 122.16 23.632C122.416 23.1733 122.768 22.816 123.216 22.56C123.675 22.2933 124.187 22.16 124.752 22.16C125.328 22.16 125.84 22.3093 126.288 22.608C126.736 22.896 127.088 23.2747 127.344 23.744C127.6 24.2027 127.728 24.6827 127.728 25.184V30H125.968ZM120.704 30V22.32H122.464V30H120.704ZM132.817 33.36C132.006 33.36 131.297 33.2107 130.689 32.912C130.081 32.624 129.59 32.2133 129.217 31.68L130.369 30.528C130.678 30.912 131.03 31.2 131.425 31.392C131.819 31.584 132.294 31.68 132.849 31.68C133.542 31.68 134.091 31.4987 134.497 31.136C134.902 30.784 135.105 30.2987 135.105 29.68V27.792L135.409 26.096L135.105 24.384V22.32H136.865V29.68C136.865 30.416 136.694 31.056 136.353 31.6C136.011 32.1547 135.537 32.5867 134.929 32.896C134.321 33.2053 133.617 33.36 132.817 33.36ZM132.737 29.84C132.054 29.84 131.435 29.6747 130.881 29.344C130.337 29.0027 129.905 28.5387 129.585 27.952C129.275 27.3653 129.121 26.7093 129.121 25.984C129.121 25.2587 129.275 24.608 129.585 24.032C129.905 23.456 130.337 23.0027 130.881 22.672C131.435 22.3307 132.054 22.16 132.737 22.16C133.345 22.16 133.878 22.2827 134.337 22.528C134.795 22.7733 135.153 23.1147 135.409 23.552C135.665 23.9787 135.793 24.48 135.793 25.056V26.944C135.793 27.5093 135.659 28.0107 135.393 28.448C135.137 28.8853 134.779 29.2267 134.321 29.472C133.862 29.7173 133.334 29.84 132.737 29.84ZM133.089 28.176C133.515 28.176 133.889 28.0853 134.209 27.904C134.529 27.7227 134.774 27.472 134.945 27.152C135.126 26.8213 135.217 26.4373 135.217 26C135.217 25.5627 135.126 25.184 134.945 24.864C134.774 24.5333 134.529 24.2773 134.209 24.096C133.889 23.9147 133.515 23.824 133.089 23.824C132.662 23.824 132.283 23.9147 131.953 24.096C131.633 24.2773 131.382 24.5333 131.201 24.864C131.019 25.184 130.929 25.5627 130.929 26C130.929 26.4267 131.019 26.8053 131.201 27.136C131.382 27.4667 131.633 27.7227 131.953 27.904C132.283 28.0853 132.662 28.176 133.089 28.176Z" fill="#8673DF"/>
</g>
<defs>
<filter id="filter0_d_659_79" x="0" y="0" width="154" height="48" filterUnits="userSpaceOnUse" color-interpolation-filters="sRGB">
<feFlood flood-opacity="0" result="BackgroundImageFix"/>
<feColorMatrix in="SourceAlpha" type="matrix" values="0 0 0 0 0 0 0 0 0 0 0 0 0 0 0 0 0 0 127 0" result="hardAlpha"/>
<feOffset/>
<feGaussianBlur stdDeviation="2"/>
<feComposite in2="hardAlpha" operator="out"/>
<feColorMatrix type="matrix" values="0 0 0 0 0.658824 0 0 0 0 0.623529 0 0 0 0 0.917647 0 0 0 1 0"/>
<feBlend mode="normal" in2="BackgroundImageFix" result="effect1_dropShadow_659_79"/>
<feBlend mode="normal" in="SourceGraphic" in2="effect1_dropShadow_659_79" result="shape"/>
</filter>
</defs>
</svg>
