<svg width="1880" height="443" viewBox="0 0 1880 443" fill="none" xmlns="http://www.w3.org/2000/svg">
<g filter="url(#filter0_d_722_13)">
<path d="M36.1621 308V35.5391H128.98C161.797 35.5391 190.254 41.1699 214.352 52.4316C238.449 63.5723 257.158 79.375 270.479 99.8398C283.799 120.184 290.459 144.16 290.459 171.77C290.459 199.258 283.799 223.234 270.479 243.699C257.158 264.164 238.449 280.027 214.352 291.289C190.254 302.43 161.797 308 128.98 308H36.1621ZM100.1 252.236H131.16C151.262 252.236 168.275 249.148 182.201 242.973C196.127 236.676 206.723 227.533 213.988 215.545C221.375 203.557 225.068 188.965 225.068 171.77C225.068 154.574 221.375 139.982 213.988 127.994C206.723 116.006 196.127 106.924 182.201 100.748C168.275 94.4512 151.262 91.3027 131.16 91.3027H100.1V252.236ZM492.443 288.201C469.799 303.822 445.156 311.633 418.516 311.633C398.414 311.633 380.311 307.395 364.205 298.918C348.221 290.32 335.566 278.695 326.242 264.043C316.918 249.27 312.256 232.68 312.256 214.273C312.256 196.715 316.434 181.094 324.789 167.41C333.145 153.605 344.527 142.707 358.938 134.715C373.469 126.723 389.877 122.727 408.162 122.727C427.174 122.727 443.885 127.146 458.295 135.986C472.705 144.826 483.906 157.117 491.898 172.859C500.012 188.48 504.068 206.645 504.068 227.352V233.164H376.193C378.373 239.098 381.643 244.365 386.002 248.967C390.482 253.568 396.053 257.262 402.713 260.047C409.373 262.711 417.002 264.043 425.6 264.043C443.4 264.043 460.111 258.291 475.732 246.787L492.443 288.201ZM373.65 206.281H449.213C448.486 199.5 446.428 193.506 443.037 188.299C439.646 183.092 435.166 179.035 429.596 176.129C424.146 173.223 418.031 171.77 411.25 171.77C404.348 171.77 398.232 173.344 392.904 176.492C387.697 179.52 383.398 183.637 380.008 188.844C376.738 193.93 374.619 199.742 373.65 206.281ZM718.768 126.359L645.203 308H587.623L514.24 126.359H577.996L616.504 248.24L655.193 126.359H718.768ZM909.127 288.201C886.482 303.822 861.84 311.633 835.199 311.633C815.098 311.633 796.994 307.395 780.889 298.918C764.904 290.32 752.25 278.695 742.926 264.043C733.602 249.27 728.939 232.68 728.939 214.273C728.939 196.715 733.117 181.094 741.473 167.41C749.828 153.605 761.211 142.707 775.621 134.715C790.152 126.723 806.561 122.727 824.846 122.727C843.857 122.727 860.568 127.146 874.979 135.986C889.389 144.826 900.59 157.117 908.582 172.859C916.695 188.48 920.752 206.645 920.752 227.352V233.164H792.877C795.057 239.098 798.326 244.365 802.686 248.967C807.166 253.568 812.736 257.262 819.396 260.047C826.057 262.711 833.686 264.043 842.283 264.043C860.084 264.043 876.795 258.291 892.416 246.787L909.127 288.201ZM790.334 206.281H865.896C865.17 199.5 863.111 193.506 859.721 188.299C856.33 183.092 851.85 179.035 846.279 176.129C840.83 173.223 834.715 171.77 827.934 171.77C821.031 171.77 814.916 173.344 809.588 176.492C804.381 179.52 800.082 183.637 796.691 188.844C793.422 193.93 791.303 199.742 790.334 206.281ZM1014.84 308H950.904V28.2734H1014.84V308ZM1143.44 311.633C1124.43 311.633 1107.48 307.576 1092.58 299.463C1077.81 291.229 1066.19 280.027 1057.71 265.859C1049.23 251.57 1044.99 235.344 1044.99 217.18C1044.99 199.016 1049.23 182.85 1057.71 168.682C1066.19 154.393 1077.81 143.191 1092.58 135.078C1107.48 126.844 1124.43 122.727 1143.44 122.727C1162.21 122.727 1178.92 126.844 1193.58 135.078C1208.35 143.191 1219.91 154.393 1228.27 168.682C1236.75 182.85 1240.98 199.016 1240.98 217.18C1240.98 235.344 1236.75 251.57 1228.27 265.859C1219.91 280.027 1208.35 291.229 1193.58 299.463C1178.92 307.576 1162.21 311.633 1143.44 311.633ZM1143.08 258.23C1150.1 258.23 1156.4 256.475 1161.97 252.963C1167.54 249.451 1171.9 244.547 1175.05 238.25C1178.32 231.953 1179.95 224.809 1179.95 216.816C1179.95 209.066 1178.32 202.104 1175.05 195.928C1171.9 189.752 1167.54 184.908 1161.97 181.396C1156.4 177.885 1150.1 176.129 1143.08 176.129C1135.94 176.129 1129.58 177.885 1124.01 181.396C1118.44 184.908 1114.02 189.752 1110.75 195.928C1107.6 202.104 1106.03 209.066 1106.03 216.816C1106.03 224.809 1107.6 231.953 1110.75 238.25C1114.02 244.547 1118.44 249.451 1124.01 252.963C1129.58 256.475 1135.94 258.23 1143.08 258.23ZM1331.08 398.82H1271.32V126.359H1323.63L1326.54 150.518C1334.04 141.799 1343.07 135.018 1353.6 130.174C1364.14 125.209 1375.58 122.727 1387.93 122.727C1404.16 122.727 1418.57 126.844 1431.16 135.078C1443.76 143.191 1453.69 154.393 1460.95 168.682C1468.22 182.85 1471.85 199.016 1471.85 217.18C1471.85 235.344 1468.22 251.57 1460.95 265.859C1453.69 280.027 1443.76 291.229 1431.16 299.463C1418.57 307.576 1404.16 311.633 1387.93 311.633C1376.67 311.633 1366.2 309.635 1356.51 305.639C1346.94 301.521 1338.46 295.83 1331.08 288.564V398.82ZM1371.04 258.23C1378.79 258.23 1385.63 256.475 1391.56 252.963C1397.62 249.451 1402.28 244.607 1405.55 238.432C1408.94 232.135 1410.64 225.051 1410.64 217.18C1410.64 209.188 1408.94 202.104 1405.55 195.928C1402.16 189.752 1397.5 184.908 1391.56 181.396C1385.63 177.764 1378.79 175.947 1371.04 175.947C1363.77 175.947 1357.17 177.582 1351.24 180.852C1345.43 184 1340.77 188.42 1337.25 194.111C1333.74 199.682 1331.68 206.16 1331.08 213.547V221.357C1331.68 228.502 1333.74 234.859 1337.25 240.43C1340.77 246 1345.43 250.359 1351.24 253.508C1357.17 256.656 1363.77 258.23 1371.04 258.23ZM1672.02 288.201C1649.37 303.822 1624.73 311.633 1598.09 311.633C1577.99 311.633 1559.88 307.395 1543.78 298.918C1527.79 290.32 1515.14 278.695 1505.82 264.043C1496.49 249.27 1491.83 232.68 1491.83 214.273C1491.83 196.715 1496.01 181.094 1504.36 167.41C1512.72 153.605 1524.1 142.707 1538.51 134.715C1553.04 126.723 1569.45 122.727 1587.74 122.727C1606.75 122.727 1623.46 127.146 1637.87 135.986C1652.28 144.826 1663.48 157.117 1671.47 172.859C1679.59 188.48 1683.64 206.645 1683.64 227.352V233.164H1555.77C1557.95 239.098 1561.22 244.365 1565.58 248.967C1570.06 253.568 1575.63 257.262 1582.29 260.047C1588.95 262.711 1596.58 264.043 1605.17 264.043C1622.97 264.043 1639.69 258.291 1655.31 246.787L1672.02 288.201ZM1553.22 206.281H1628.79C1628.06 199.5 1626 193.506 1622.61 188.299C1619.22 183.092 1614.74 179.035 1609.17 176.129C1603.72 173.223 1597.61 171.77 1590.82 171.77C1583.92 171.77 1577.81 173.344 1572.48 176.492C1567.27 179.52 1562.97 183.637 1559.58 188.844C1556.31 193.93 1554.19 199.742 1553.22 206.281ZM1773.37 308H1713.79V126.359H1765.56L1767.56 156.33C1773.62 145.674 1781.67 137.439 1791.72 131.627C1801.77 125.693 1813.27 122.727 1826.23 122.727C1830.23 122.727 1834.28 123.029 1838.4 123.635C1842.64 124.24 1846.88 125.148 1851.12 126.359L1843.85 179.943C1835.37 177.279 1827.44 175.947 1820.05 175.947C1810.61 175.947 1802.38 178.006 1795.35 182.123C1788.33 186.24 1782.88 191.992 1779 199.379C1775.25 206.766 1773.37 215.484 1773.37 225.535V308Z" fill="white"/>
</g>
<defs>
<filter id="filter0_d_722_13" x="0.462109" y="0.573437" width="1886.35" height="441.947" filterUnits="userSpaceOnUse" color-interpolation-filters="sRGB">
<feFlood flood-opacity="0" result="BackgroundImageFix"/>
<feColorMatrix in="SourceAlpha" type="matrix" values="0 0 0 0 0 0 0 0 0 0 0 0 0 0 0 0 0 0 127 0" result="hardAlpha"/>
<feOffset dy="8"/>
<feGaussianBlur stdDeviation="17.85"/>
<feComposite in2="hardAlpha" operator="out"/>
<feColorMatrix type="matrix" values="0 0 0 0 0 0 0 0 0 0 0 0 0 0 0 0 0 0 0.05 0"/>
<feBlend mode="normal" in2="BackgroundImageFix" result="effect1_dropShadow_722_13"/>
<feBlend mode="normal" in="SourceGraphic" in2="effect1_dropShadow_722_13" result="shape"/>
</filter>
</defs>
</svg>
