<svg width="1920" height="211" viewBox="0 0 1920 211" fill="none" xmlns="http://www.w3.org/2000/svg">
<path d="M-2 209C11.0196 195.488 23.6501 181.719 38.5124 169.884C56 155.958 85.7644 139.268 110.856 127.013C145.464 110.111 181.8 95.81 219.13 85.0438C243.219 78.0965 268.569 72.2332 293.966 72.0551C324.044 71.8442 351.634 79.9482 379.251 90.2243C457.267 119.254 532.709 154.275 614.93 172.586C706.794 193.045 805.631 180.586 889.595 140.978C947.349 113.734 1001.06 79.7286 1059.84 54.2613C1105.22 34.5992 1153.09 19.8078 1202.12 10.49C1234.65 4.3078 1270.65 -0.937127 1303.8 3.88297C1337.93 8.84413 1360.03 28.9192 1384.59 49.5313C1410.38 71.1859 1438.29 84.9078 1471.88 93.3777C1533.24 108.847 1597.31 114.601 1660.62 109.295C1714.16 104.806 1764.04 91.2036 1812.86 70.5535C1848.2 55.6049 1882.75 39.0015 1918 23.8541" stroke="url(#paint0_linear_659_21)" stroke-width="4" stroke-linecap="round"/>
<defs>
<linearGradient id="paint0_linear_659_21" x1="-2" y1="105.5" x2="1918" y2="105.5" gradientUnits="userSpaceOnUse">
<stop stop-color="#F1F0FA"/>
<stop offset="0.437121" stop-color="#D4D4DF" stop-opacity="0"/>
<stop offset="0.529812" stop-color="#BAB9C5" stop-opacity="0"/>
<stop offset="0.626411" stop-color="#D6D5E5" stop-opacity="0"/>
<stop offset="1" stop-color="#ECEBFF"/>
</linearGradient>
</defs>
</svg>
