<svg width="348" height="41" viewBox="0 0 348 41" fill="none" xmlns="http://www.w3.org/2000/svg">
<g clip-path="url(#clip0_661_398)">
<rect width="348" height="41" fill="white"/>
<path d="M333.432 6.29913C332.131 6.49001 330.96 6.49001 329.659 6.68089C327.968 6.87178 326.277 7.25354 324.456 7.44443C321.595 7.82619 318.733 8.58972 316.001 9.54413C313.01 10.6894 310.148 12.2165 307.417 14.3162C306.896 14.698 306.376 15.2706 305.726 15.4615C305.075 15.8433 304.555 16.225 303.904 16.6068C302.994 17.1794 302.214 17.5612 301.303 17.943C300.262 18.3247 299.222 18.7065 298.181 18.8974C297.271 19.0883 296.36 19.0883 295.45 19.0883C294.539 19.0883 293.759 18.8974 292.848 18.8974C291.677 18.7065 290.507 18.3247 289.336 17.7521C288.165 17.1794 286.995 16.6068 285.824 15.8433C283.873 14.5071 281.922 12.98 279.971 11.453C279.06 10.6894 278.28 9.9259 277.369 8.97149C276.329 8.01707 275.288 7.06266 274.247 6.10825C273.467 5.34472 272.556 4.77207 271.646 4.19942C271.126 3.81765 270.475 3.62677 269.825 3.43589C269.174 3.24501 268.654 3.24501 268.004 3.05412C267.614 3.05412 267.223 3.05412 266.963 3.24501C266.443 3.43589 265.923 3.62677 265.402 3.81765C264.622 4.19942 263.841 4.77207 263.061 5.34472C261.5 6.49001 260.069 7.63531 258.508 8.7806C256.557 10.3077 254.736 11.6438 252.655 12.98C251.484 13.7436 250.183 14.3162 249.013 14.8888C247.322 15.6524 245.761 16.0341 244.07 16.4159C242.509 16.7977 240.818 16.7977 239.257 16.9886C237.436 16.9886 235.615 16.7977 233.794 16.4159C231.453 15.8433 229.241 15.2706 226.9 14.5071C224.819 13.7436 222.738 12.7891 220.786 11.6438C218.835 10.3077 216.884 8.97149 214.933 7.44443C212.722 5.72648 210.51 4.00854 208.169 2.86324C207.259 2.29059 206.348 2.09971 205.307 1.71794C204.267 1.33618 203.096 1.33618 201.926 1.33618C200.755 1.33618 199.714 1.71794 198.544 2.09971C197.373 2.48148 196.332 3.24501 195.292 4.00854C192.82 5.91736 190.609 8.39884 188.398 10.8803C187.097 12.4074 185.796 13.9344 184.495 15.4615C183.455 16.6068 182.284 17.943 181.113 19.0883C179.943 20.2336 178.642 21.188 177.341 22.1424C176.691 22.5242 176.171 22.9059 175.52 23.0968C174.74 23.4786 173.829 23.6695 173.049 23.8603C172.659 23.8603 172.398 23.8603 172.008 23.8603C171.748 23.8603 171.488 23.8603 171.228 23.8603C170.577 23.6695 169.927 23.2877 169.277 22.9059C166.935 21.188 164.724 19.0883 162.643 16.7977C161.602 15.6524 160.692 14.5071 159.781 13.1709C159.131 12.2165 158.48 11.453 157.83 10.4985C156.139 8.20796 154.578 5.5356 152.757 3.43589C151.977 2.67236 151.196 1.90883 150.286 1.1453C149.765 0.763531 149.245 0.572648 148.725 0.381765C148.595 0.381765 148.335 0.190883 148.204 0.190883C147.814 0.190883 147.424 0 147.164 0C147.034 0 146.774 0 146.644 0L146.513 0C146.253 0 145.863 0 145.603 0.190883C144.953 0.381765 144.432 0.572648 143.782 0.763531C142.611 1.33618 141.441 1.90883 140.27 2.67236C139.359 3.24501 138.449 3.81765 137.538 4.58118C136.888 4.96295 136.238 5.5356 135.587 5.91736C134.547 6.68089 133.636 7.44442 132.595 8.20796C132.075 8.58972 131.555 8.97149 131.165 9.35325C130.254 10.1168 129.344 11.0712 128.563 11.8347C127.913 12.4074 127.262 12.98 126.612 13.7436C124.921 15.2706 123.36 16.9886 121.669 18.5156C118.157 21.9515 114.515 25.3874 110.613 27.8689C109.702 28.4415 108.922 28.8233 108.011 29.3959C106.971 29.9686 105.8 30.3503 104.629 30.5412C104.109 30.5412 103.719 30.7321 103.198 30.7321C102.418 30.7321 101.768 30.7321 100.987 30.5412C99.9465 30.3503 98.9059 29.9686 97.9954 29.3959C96.9548 28.6324 95.9142 27.678 95.0037 26.7236C93.4428 25.0056 92.142 22.9059 90.8413 20.8062C90.1909 19.8518 89.5405 18.7065 88.8902 17.7521C88.1097 16.6068 87.1992 15.4615 86.4187 14.3162C85.6383 13.3618 84.9879 12.5983 84.0774 12.0256C83.2969 12.4074 82.7766 12.0256 82.2563 11.8347C81.736 11.6438 81.2157 11.453 80.6954 11.453C80.3052 11.453 80.045 11.453 79.6548 11.6438C79.1345 11.8347 78.7443 12.0256 78.224 12.4074C77.8338 12.7891 77.3135 13.1709 76.9232 13.5527C76.533 14.1253 76.1428 14.698 75.8826 15.2706C75.2323 16.4159 74.5819 17.5612 74.0616 18.7065C73.5413 19.6609 73.021 20.4244 72.6307 21.3789C72.1104 22.3333 71.4601 23.4786 70.9398 24.433C69.7691 26.5327 68.4683 28.2506 67.0375 29.9686C65.9969 31.1139 64.8262 32.0683 63.6556 33.0227C62.4849 33.5954 61.4443 33.9771 60.2736 34.3589C58.5826 34.5498 57.0217 34.5498 55.3307 34.3589C52.7292 33.7862 50.2578 32.6409 47.7864 31.1139C45.5751 29.5868 43.4939 28.0598 41.4127 26.1509C40.3721 25.1965 39.3315 24.2421 38.2909 23.0968C37.2503 22.1424 36.2097 20.9971 35.1691 20.0427C34.1285 18.8974 33.0879 17.943 32.0473 16.9886C31.0067 16.0341 29.836 15.0797 28.6653 14.3162C26.454 12.7891 24.1127 11.8347 21.7713 12.0256C21.251 12.0256 20.6007 12.2165 20.0804 12.2165C19.43 12.4074 18.9097 12.5983 18.3894 12.7891C17.8691 12.98 17.3488 13.3618 16.9586 13.5527C16.4383 13.9344 15.918 14.3162 15.3977 14.5071C12.6661 15.8433 10.4548 17.7521 8.37359 19.8518C6.55254 21.7606 4.73149 23.8603 3.17058 26.3418C2.39013 27.4871 1.73976 28.6324 1.08938 29.7777C0.82923 30.3503 0.569079 30.923 0.439004 31.6865C0.439004 31.8774 0.308929 32.2592 0.308929 32.4501C0.178853 33.0227 0.178853 33.5954 0.0487782 34.168C-0.081297 34.9315 0.0487782 35.6951 0.439004 36.2677C0.82923 36.6495 1.34953 36.8404 1.86983 36.6495C2.26006 36.4586 2.52021 36.2677 2.91043 36.2677C3.43073 36.0768 3.82096 35.6951 4.34126 35.3133C4.99164 34.7407 5.25179 33.4045 4.86156 32.4501C4.60141 31.8774 4.34126 31.6865 3.95103 31.4956C5.25179 29.3959 6.68261 27.4871 8.11344 25.5783C10.5849 22.9059 13.1864 20.8062 15.918 18.8974C16.5683 18.5156 17.2187 18.1339 17.8691 17.7521C18.6495 17.5612 19.5601 17.1794 20.3405 16.9886C21.121 16.7977 21.7713 16.7977 22.5518 16.9886C23.0721 17.1794 23.4623 17.1794 23.9826 17.3703C24.7631 17.7521 25.4134 18.1339 26.0638 18.5156C27.3646 19.47 28.6653 20.4244 29.836 21.5697C31.2668 22.9059 32.5676 24.433 33.9984 25.96C35.2992 27.2962 36.73 28.8233 38.1608 30.1595C39.5916 31.4956 41.0225 32.8318 42.4533 33.9771C45.3149 36.2677 48.3067 38.1765 51.2984 39.5127C54.4202 40.8489 57.8022 41.4215 61.1841 40.658C62.745 40.2763 64.1759 39.7036 65.6067 38.9401C67.0375 37.9857 68.3383 37.0312 69.5089 35.6951C70.8097 34.3589 71.9804 32.6409 73.151 30.923C73.8014 29.9686 74.3217 29.0142 74.842 28.0598C75.6225 26.5327 76.4029 25.1965 77.1834 23.6695C78.0939 21.9515 79.0044 20.0427 80.1751 18.3247C80.3052 18.3247 80.3052 18.1339 80.4353 18.1339C80.5653 18.1339 80.6954 17.943 80.8255 17.943H80.9556C81.2157 17.943 81.3458 18.1339 81.6059 18.1339C82.1262 18.5156 82.6465 18.8974 83.1668 19.47C84.5977 20.9971 85.7683 22.9059 86.939 24.8148C88.4999 27.1053 90.0608 29.5868 91.7518 31.6865C92.5323 32.6409 93.3127 33.4045 94.0932 34.168C95.0037 35.1224 96.0443 35.6951 97.0849 36.2677C97.9954 36.8404 99.036 37.0312 100.077 37.413C101.247 37.6039 102.548 37.7948 103.719 37.6039C104.759 37.6039 105.8 37.2221 106.71 37.0312C107.881 36.6495 109.052 36.0768 110.222 35.5042C112.434 34.3589 114.515 32.8318 116.466 31.3048C119.458 29.0142 122.189 26.1509 124.921 23.4786C126.222 22.1424 127.522 20.8062 128.953 19.47C130.514 17.943 132.075 16.6068 133.636 15.0797C133.766 14.8888 134.026 14.698 134.156 14.698C134.677 14.3162 135.197 13.9344 135.717 13.3618C136.498 12.7891 137.278 12.0256 138.189 11.453C138.319 11.2621 138.579 11.2621 138.709 11.0712C139.229 10.6894 139.88 10.3077 140.4 9.9259C141.31 9.35325 142.351 8.58972 143.262 8.01707C144.172 7.44442 145.213 7.06266 146.253 6.68089C146.513 6.68089 146.644 6.68089 146.904 6.68089C147.034 6.68089 147.294 6.68089 147.424 6.68089C147.814 6.87178 148.204 7.06266 148.725 7.25354C149.375 7.82619 150.026 8.39884 150.676 9.16237C152.627 11.6438 154.318 14.3162 156.139 16.7977C157.31 18.3247 158.48 19.8518 159.651 21.3789C160.822 22.715 161.992 23.8603 163.163 25.1965C164.464 26.5327 165.765 27.4871 167.065 28.6324C168.236 29.5868 169.667 30.1595 170.968 30.5412C171.618 30.7321 172.138 30.7321 172.789 30.5412C173.569 30.5412 174.35 30.3503 175.13 29.9686C176.431 29.5868 177.732 29.0142 178.902 28.2506C180.333 27.2962 181.634 26.3418 182.935 25.1965C184.756 23.4786 186.316 21.5697 188.007 19.6609C188.918 18.5156 189.959 17.3703 190.869 16.225C191.65 15.2706 192.43 14.5071 193.21 13.5527C194.901 11.6438 196.592 10.1168 198.544 8.7806C199.454 8.20796 200.365 7.82619 201.405 7.63531C201.926 7.63531 202.316 7.44443 202.836 7.44443C203.226 7.44443 203.616 7.44443 204.137 7.63531C205.698 8.01707 207.129 8.58972 208.559 9.35325C209.73 10.1168 211.031 11.0712 212.201 11.8347C212.982 12.4074 213.632 12.98 214.413 13.5527C215.063 14.1253 215.844 14.698 216.624 15.2706C218.055 16.225 219.486 17.1794 220.917 18.1339C222.477 19.0883 224.038 19.6609 225.599 20.2336C228.981 21.5697 232.363 22.3333 235.745 22.9059C237.436 23.2877 239.257 23.2877 240.948 23.2877C242.639 23.2877 244.33 22.9059 246.021 22.5242C249.013 21.9515 252.004 20.6153 254.866 18.8974C256.687 17.7521 258.378 16.4159 260.199 15.0797C262.28 13.5527 264.362 11.8347 266.573 10.3077C266.963 10.1168 267.483 9.9259 267.874 9.73502C268.134 9.73502 268.394 9.73502 268.654 9.73502C269.304 9.9259 269.825 10.1168 270.475 10.4985C272.426 11.8347 274.117 13.7436 275.938 15.4615C277.759 17.3703 279.711 18.8974 281.662 20.4244C283.613 21.9515 285.694 23.0968 287.775 24.2421C290.117 25.3874 292.588 25.96 295.059 26.1509C297.271 26.3418 299.482 25.96 301.563 25.1965C303.384 24.6239 305.205 23.4786 306.896 22.3333C307.677 21.7606 308.327 21.3789 309.108 20.8062C309.628 20.4244 310.018 20.0427 310.538 19.6609C311.189 19.0883 311.969 18.7065 312.62 18.1339C316.132 16.0341 319.774 14.8888 323.546 14.1253C325.497 13.7436 327.578 13.5527 329.659 13.1709C331.35 12.98 333.171 12.7891 334.862 12.5983C338.374 12.2165 342.017 11.8347 345.529 12.0256C346.959 12.0256 348 10.3077 348 8.39884C348 6.49001 346.829 4.77207 345.529 4.77207C342.797 4.77207 340.065 5.15383 337.464 5.34472C336.033 5.91736 334.732 6.10825 333.432 6.29913ZM267.483 9.9259C267.614 9.9259 267.614 9.9259 267.744 9.9259C267.614 9.9259 267.483 9.9259 267.483 9.9259Z" fill="#DDDCF8"/>
</g>
<defs>
<clipPath id="clip0_661_398">
<rect width="348" height="41" fill="white"/>
</clipPath>
</defs>
</svg>
