<svg width="212" height="48" viewBox="0 0 212 48" fill="none" xmlns="http://www.w3.org/2000/svg">
<g filter="url(#filter0_d_659_111)">
<rect x="4" y="4" width="204" height="40" rx="8" fill="#F5F5FD" shape-rendering="crispEdges"/>
<rect x="4.5" y="4.5" width="203" height="39" rx="7.5" stroke="#C3C0F2" shape-rendering="crispEdges"/>
<path d="M28 30H28.01M23 14H33C34.1046 14 35 14.8954 35 16V32C35 33.1046 34.1046 34 33 34H23C21.8954 34 21 33.1046 21 32V16C21 14.8954 21.8954 14 23 14Z" stroke="#8673DF" stroke-width="2" stroke-linecap="round" stroke-linejoin="round"/>
<path d="M51.2488 30V18.8H52.5288L57.1848 26.464H56.3528L61.0088 18.8H62.2888V30H60.4488V22.032L60.8648 22.144L57.4088 27.824H56.1288L52.6728 22.144L53.0888 22.032V30H51.2488ZM68.0976 30.16C67.3509 30.16 66.6736 29.984 66.0656 29.632C65.4576 29.2693 64.9722 28.784 64.6096 28.176C64.2576 27.568 64.0816 26.8907 64.0816 26.144C64.0816 25.3973 64.2576 24.7253 64.6096 24.128C64.9722 23.5307 65.4576 23.056 66.0656 22.704C66.6736 22.3413 67.3509 22.16 68.0976 22.16C68.8549 22.16 69.5376 22.336 70.1456 22.688C70.7536 23.04 71.2336 23.52 71.5856 24.128C71.9482 24.7253 72.1296 25.3973 72.1296 26.144C72.1296 26.8907 71.9482 27.568 71.5856 28.176C71.2336 28.784 70.7536 29.2693 70.1456 29.632C69.5376 29.984 68.8549 30.16 68.0976 30.16ZM68.0976 28.464C68.5349 28.464 68.9189 28.368 69.2496 28.176C69.5909 27.9733 69.8522 27.696 70.0336 27.344C70.2256 26.992 70.3216 26.592 70.3216 26.144C70.3216 25.696 70.2256 25.3013 70.0336 24.96C69.8416 24.6187 69.5802 24.352 69.2496 24.16C68.9189 23.9573 68.5349 23.856 68.0976 23.856C67.6709 23.856 67.2869 23.9573 66.9456 24.16C66.6149 24.352 66.3536 24.6187 66.1616 24.96C65.9802 25.3013 65.8896 25.696 65.8896 26.144C65.8896 26.592 65.9802 26.992 66.1616 27.344C66.3536 27.696 66.6149 27.9733 66.9456 28.176C67.2869 28.368 67.6709 28.464 68.0976 28.464ZM77.8052 30.16C77.2185 30.16 76.6959 30.0373 76.2372 29.792C75.7785 29.536 75.4159 29.1893 75.1492 28.752C74.8932 28.3147 74.7652 27.8187 74.7652 27.264V25.056C74.7652 24.5013 74.8985 24.0053 75.1652 23.568C75.4319 23.1307 75.7945 22.7893 76.2532 22.544C76.7119 22.288 77.2292 22.16 77.8052 22.16C78.4985 22.16 79.1225 22.3413 79.6772 22.704C80.2425 23.056 80.6852 23.536 81.0052 24.144C81.3359 24.7413 81.5012 25.4187 81.5012 26.176C81.5012 26.9227 81.3359 27.6 81.0052 28.208C80.6852 28.8053 80.2425 29.28 79.6772 29.632C79.1225 29.984 78.4985 30.16 77.8052 30.16ZM77.5172 28.496C77.9439 28.496 78.3172 28.4 78.6372 28.208C78.9679 28.0053 79.2239 27.728 79.4052 27.376C79.5972 27.024 79.6932 26.6187 79.6932 26.16C79.6932 25.7013 79.5972 25.296 79.4052 24.944C79.2239 24.592 78.9679 24.32 78.6372 24.128C78.3172 23.9253 77.9439 23.824 77.5172 23.824C77.0905 23.824 76.7119 23.9253 76.3812 24.128C76.0505 24.32 75.7945 24.592 75.6132 24.944C75.4319 25.296 75.3412 25.7013 75.3412 26.16C75.3412 26.6187 75.4319 27.024 75.6132 27.376C75.7945 27.728 76.0505 28.0053 76.3812 28.208C76.7119 28.4 77.0905 28.496 77.5172 28.496ZM73.6932 30V18.48H75.4532V24.208L75.1492 26.064L75.4532 27.936V30H73.6932ZM83.0904 30V22.32H84.8504V30H83.0904ZM83.9704 20.912C83.6718 20.912 83.4211 20.8107 83.2184 20.608C83.0264 20.4053 82.9304 20.1547 82.9304 19.856C82.9304 19.5573 83.0264 19.3067 83.2184 19.104C83.4211 18.9013 83.6718 18.8 83.9704 18.8C84.2798 18.8 84.5304 18.9013 84.7224 19.104C84.9144 19.3067 85.0104 19.5573 85.0104 19.856C85.0104 20.1547 84.9144 20.4053 84.7224 20.608C84.5304 20.8107 84.2798 20.912 83.9704 20.912ZM86.9244 30V18.48H88.6844V30H86.9244ZM94.3112 30.16C93.5432 30.16 92.8499 29.9893 92.2312 29.648C91.6232 29.296 91.1379 28.816 90.7752 28.208C90.4232 27.6 90.2472 26.9173 90.2472 26.16C90.2472 25.4027 90.4232 24.7253 90.7752 24.128C91.1272 23.52 91.6019 23.04 92.1992 22.688C92.8072 22.336 93.4792 22.16 94.2152 22.16C94.9299 22.16 95.5592 22.3253 96.1032 22.656C96.6579 22.9867 97.0899 23.44 97.3992 24.016C97.7192 24.592 97.8792 25.248 97.8792 25.984C97.8792 26.112 97.8685 26.2453 97.8472 26.384C97.8365 26.512 97.8152 26.656 97.7832 26.816H91.4792V25.376H96.8712L96.2152 25.952C96.1939 25.4827 96.1032 25.088 95.9432 24.768C95.7832 24.448 95.5539 24.2027 95.2552 24.032C94.9672 23.8613 94.6099 23.776 94.1832 23.776C93.7352 23.776 93.3459 23.872 93.0152 24.064C92.6845 24.256 92.4285 24.528 92.2472 24.88C92.0659 25.2213 91.9752 25.632 91.9752 26.112C91.9752 26.592 92.0712 27.0133 92.2632 27.376C92.4552 27.7387 92.7272 28.0213 93.0792 28.224C93.4312 28.416 93.8365 28.512 94.2952 28.512C94.6899 28.512 95.0525 28.4427 95.3832 28.304C95.7245 28.1653 96.0125 27.9627 96.2472 27.696L97.3672 28.832C96.9939 29.2693 96.5405 29.6 96.0072 29.824C95.4739 30.048 94.9085 30.16 94.3112 30.16ZM105.909 30.16C105.216 30.16 104.587 29.984 104.021 29.632C103.467 29.28 103.024 28.8053 102.693 28.208C102.373 27.6 102.213 26.9227 102.213 26.176C102.213 25.4187 102.373 24.7413 102.693 24.144C103.024 23.536 103.467 23.056 104.021 22.704C104.587 22.3413 105.216 22.16 105.909 22.16C106.496 22.16 107.013 22.288 107.461 22.544C107.92 22.7893 108.283 23.1307 108.549 23.568C108.816 24.0053 108.949 24.5013 108.949 25.056V27.264C108.949 27.8187 108.816 28.3147 108.549 28.752C108.293 29.1893 107.936 29.536 107.477 29.792C107.019 30.0373 106.496 30.16 105.909 30.16ZM106.197 28.496C106.635 28.496 107.013 28.4 107.333 28.208C107.664 28.0053 107.92 27.728 108.101 27.376C108.283 27.024 108.373 26.6187 108.373 26.16C108.373 25.7013 108.283 25.296 108.101 24.944C107.92 24.592 107.664 24.32 107.333 24.128C107.013 23.9253 106.635 23.824 106.197 23.824C105.771 23.824 105.392 23.9253 105.061 24.128C104.741 24.32 104.485 24.592 104.293 24.944C104.112 25.296 104.021 25.7013 104.021 26.16C104.021 26.6187 104.112 27.024 104.293 27.376C104.485 27.728 104.741 28.0053 105.061 28.208C105.392 28.4 105.771 28.496 106.197 28.496ZM110.021 30H108.261V27.936L108.565 26.064L108.261 24.208V18.48H110.021V30ZM115.642 30.16C114.874 30.16 114.181 29.9893 113.562 29.648C112.954 29.296 112.469 28.816 112.106 28.208C111.754 27.6 111.578 26.9173 111.578 26.16C111.578 25.4027 111.754 24.7253 112.106 24.128C112.458 23.52 112.933 23.04 113.53 22.688C114.138 22.336 114.81 22.16 115.546 22.16C116.261 22.16 116.89 22.3253 117.434 22.656C117.989 22.9867 118.421 23.44 118.73 24.016C119.05 24.592 119.21 25.248 119.21 25.984C119.21 26.112 119.2 26.2453 119.178 26.384C119.168 26.512 119.146 26.656 119.114 26.816H112.81V25.376H118.202L117.546 25.952C117.525 25.4827 117.434 25.088 117.274 24.768C117.114 24.448 116.885 24.2027 116.586 24.032C116.298 23.8613 115.941 23.776 115.514 23.776C115.066 23.776 114.677 23.872 114.346 24.064C114.016 24.256 113.76 24.528 113.578 24.88C113.397 25.2213 113.306 25.632 113.306 26.112C113.306 26.592 113.402 27.0133 113.594 27.376C113.786 27.7387 114.058 28.0213 114.41 28.224C114.762 28.416 115.168 28.512 115.626 28.512C116.021 28.512 116.384 28.4427 116.714 28.304C117.056 28.1653 117.344 27.9627 117.578 27.696L118.698 28.832C118.325 29.2693 117.872 29.6 117.338 29.824C116.805 30.048 116.24 30.16 115.642 30.16ZM123.188 30L119.684 22.32H121.636L124.308 28.576H123.156L125.844 22.32H127.716L124.212 30H123.188ZM132.155 30.16C131.387 30.16 130.694 29.9893 130.075 29.648C129.467 29.296 128.982 28.816 128.619 28.208C128.267 27.6 128.091 26.9173 128.091 26.16C128.091 25.4027 128.267 24.7253 128.619 24.128C128.971 23.52 129.446 23.04 130.043 22.688C130.651 22.336 131.323 22.16 132.059 22.16C132.774 22.16 133.403 22.3253 133.947 22.656C134.502 22.9867 134.934 23.44 135.243 24.016C135.563 24.592 135.723 25.248 135.723 25.984C135.723 26.112 135.712 26.2453 135.691 26.384C135.68 26.512 135.659 26.656 135.627 26.816H129.323V25.376H134.715L134.059 25.952C134.038 25.4827 133.947 25.088 133.787 24.768C133.627 24.448 133.398 24.2027 133.099 24.032C132.811 23.8613 132.454 23.776 132.027 23.776C131.579 23.776 131.19 23.872 130.859 24.064C130.528 24.256 130.272 24.528 130.091 24.88C129.91 25.2213 129.819 25.632 129.819 26.112C129.819 26.592 129.915 27.0133 130.107 27.376C130.299 27.7387 130.571 28.0213 130.923 28.224C131.275 28.416 131.68 28.512 132.139 28.512C132.534 28.512 132.896 28.4427 133.227 28.304C133.568 28.1653 133.856 27.9627 134.091 27.696L135.211 28.832C134.838 29.2693 134.384 29.6 133.851 29.824C133.318 30.048 132.752 30.16 132.155 30.16ZM137.234 30V18.48H138.994V30H137.234ZM144.573 30.16C143.826 30.16 143.149 29.984 142.541 29.632C141.933 29.2693 141.447 28.784 141.085 28.176C140.733 27.568 140.557 26.8907 140.557 26.144C140.557 25.3973 140.733 24.7253 141.085 24.128C141.447 23.5307 141.933 23.056 142.541 22.704C143.149 22.3413 143.826 22.16 144.573 22.16C145.33 22.16 146.013 22.336 146.621 22.688C147.229 23.04 147.709 23.52 148.061 24.128C148.423 24.7253 148.605 25.3973 148.605 26.144C148.605 26.8907 148.423 27.568 148.061 28.176C147.709 28.784 147.229 29.2693 146.621 29.632C146.013 29.984 145.33 30.16 144.573 30.16ZM144.573 28.464C145.01 28.464 145.394 28.368 145.725 28.176C146.066 27.9733 146.327 27.696 146.509 27.344C146.701 26.992 146.797 26.592 146.797 26.144C146.797 25.696 146.701 25.3013 146.509 24.96C146.317 24.6187 146.055 24.352 145.725 24.16C145.394 23.9573 145.01 23.856 144.573 23.856C144.146 23.856 143.762 23.9573 143.421 24.16C143.09 24.352 142.829 24.6187 142.637 24.96C142.455 25.3013 142.365 25.696 142.365 26.144C142.365 26.592 142.455 26.992 142.637 27.344C142.829 27.696 143.09 27.9733 143.421 28.176C143.762 28.368 144.146 28.464 144.573 28.464ZM154.28 30.16C153.694 30.16 153.171 30.0373 152.712 29.792C152.254 29.536 151.891 29.1893 151.624 28.752C151.368 28.3147 151.24 27.8187 151.24 27.264V25.056C151.24 24.5013 151.374 24.0053 151.64 23.568C151.907 23.1307 152.27 22.7893 152.728 22.544C153.187 22.288 153.704 22.16 154.28 22.16C154.974 22.16 155.598 22.3413 156.152 22.704C156.718 23.056 157.16 23.536 157.48 24.144C157.811 24.7413 157.976 25.4187 157.976 26.176C157.976 26.9227 157.811 27.6 157.48 28.208C157.16 28.8053 156.718 29.28 156.152 29.632C155.598 29.984 154.974 30.16 154.28 30.16ZM153.992 28.496C154.419 28.496 154.792 28.4 155.112 28.208C155.443 28.0053 155.699 27.728 155.88 27.376C156.072 27.024 156.168 26.6187 156.168 26.16C156.168 25.7013 156.072 25.296 155.88 24.944C155.699 24.592 155.443 24.32 155.112 24.128C154.792 23.9253 154.419 23.824 153.992 23.824C153.566 23.824 153.187 23.9253 152.856 24.128C152.526 24.32 152.27 24.592 152.088 24.944C151.907 25.296 151.816 25.7013 151.816 26.16C151.816 26.6187 151.907 27.024 152.088 27.376C152.27 27.728 152.526 28.0053 152.856 28.208C153.187 28.4 153.566 28.496 153.992 28.496ZM150.168 33.2V22.32H151.928V24.384L151.624 26.256L151.928 28.112V33.2H150.168ZM159.549 30V22.32H161.309V30H159.549ZM164.653 30V25.424C164.653 24.912 164.493 24.5173 164.173 24.24C163.853 23.952 163.459 23.808 162.989 23.808C162.669 23.808 162.381 23.872 162.125 24C161.88 24.128 161.683 24.3147 161.533 24.56C161.384 24.7947 161.309 25.0827 161.309 25.424L160.621 25.04C160.621 24.4533 160.749 23.9467 161.005 23.52C161.261 23.0933 161.608 22.7627 162.045 22.528C162.483 22.2827 162.973 22.16 163.517 22.16C164.061 22.16 164.552 22.2773 164.989 22.512C165.427 22.7467 165.773 23.0773 166.029 23.504C166.285 23.9307 166.413 24.4427 166.413 25.04V30H164.653ZM169.757 30V25.424C169.757 24.912 169.597 24.5173 169.277 24.24C168.957 23.952 168.563 23.808 168.093 23.808C167.784 23.808 167.501 23.872 167.245 24C166.989 24.128 166.787 24.3147 166.637 24.56C166.488 24.7947 166.413 25.0827 166.413 25.424L165.421 25.04C165.475 24.4533 165.645 23.9467 165.933 23.52C166.221 23.0933 166.589 22.7627 167.037 22.528C167.496 22.2827 167.997 22.16 168.541 22.16C169.096 22.16 169.597 22.2773 170.045 22.512C170.493 22.7467 170.851 23.0773 171.117 23.504C171.384 23.9307 171.517 24.4427 171.517 25.04V30H169.757ZM176.999 30.16C176.231 30.16 175.537 29.9893 174.919 29.648C174.311 29.296 173.825 28.816 173.463 28.208C173.111 27.6 172.935 26.9173 172.935 26.16C172.935 25.4027 173.111 24.7253 173.463 24.128C173.815 23.52 174.289 23.04 174.887 22.688C175.495 22.336 176.167 22.16 176.903 22.16C177.617 22.16 178.247 22.3253 178.791 22.656C179.345 22.9867 179.777 23.44 180.087 24.016C180.407 24.592 180.567 25.248 180.567 25.984C180.567 26.112 180.556 26.2453 180.535 26.384C180.524 26.512 180.503 26.656 180.471 26.816H174.167V25.376H179.559L178.903 25.952C178.881 25.4827 178.791 25.088 178.631 24.768C178.471 24.448 178.241 24.2027 177.943 24.032C177.655 23.8613 177.297 23.776 176.871 23.776C176.423 23.776 176.033 23.872 175.703 24.064C175.372 24.256 175.116 24.528 174.935 24.88C174.753 25.2213 174.663 25.632 174.663 26.112C174.663 26.592 174.759 27.0133 174.951 27.376C175.143 27.7387 175.415 28.0213 175.767 28.224C176.119 28.416 176.524 28.512 176.983 28.512C177.377 28.512 177.74 28.4427 178.071 28.304C178.412 28.1653 178.7 27.9627 178.935 27.696L180.055 28.832C179.681 29.2693 179.228 29.6 178.695 29.824C178.161 30.048 177.596 30.16 176.999 30.16ZM187.342 30V25.568C187.342 25.056 187.176 24.6347 186.846 24.304C186.526 23.9733 186.11 23.808 185.598 23.808C185.256 23.808 184.952 23.8827 184.686 24.032C184.419 24.1813 184.211 24.3893 184.062 24.656C183.912 24.9227 183.838 25.2267 183.838 25.568L183.15 25.184C183.15 24.5973 183.278 24.08 183.534 23.632C183.79 23.1733 184.142 22.816 184.59 22.56C185.048 22.2933 185.56 22.16 186.126 22.16C186.702 22.16 187.214 22.3093 187.662 22.608C188.11 22.896 188.462 23.2747 188.718 23.744C188.974 24.2027 189.102 24.6827 189.102 25.184V30H187.342ZM182.078 30V22.32H183.838V30H182.078ZM192.064 30V19.12H193.824V30H192.064ZM190.224 23.92V22.32H195.664V23.92H190.224Z" fill="#8673DF"/>
</g>
<defs>
<filter id="filter0_d_659_111" x="0" y="0" width="212" height="48" filterUnits="userSpaceOnUse" color-interpolation-filters="sRGB">
<feFlood flood-opacity="0" result="BackgroundImageFix"/>
<feColorMatrix in="SourceAlpha" type="matrix" values="0 0 0 0 0 0 0 0 0 0 0 0 0 0 0 0 0 0 127 0" result="hardAlpha"/>
<feOffset/>
<feGaussianBlur stdDeviation="2"/>
<feComposite in2="hardAlpha" operator="out"/>
<feColorMatrix type="matrix" values="0 0 0 0 0.658824 0 0 0 0 0.623529 0 0 0 0 0.917647 0 0 0 1 0"/>
<feBlend mode="normal" in2="BackgroundImageFix" result="effect1_dropShadow_659_111"/>
<feBlend mode="normal" in="SourceGraphic" in2="effect1_dropShadow_659_111" result="shape"/>
</filter>
</defs>
</svg>
