<svg width="197" height="48" viewBox="0 0 197 48" fill="none" xmlns="http://www.w3.org/2000/svg">
<g filter="url(#filter0_d_659_45)">
<rect x="4" y="4" width="189" height="40" rx="8" fill="#F5F5FD" shape-rendering="crispEdges"/>
<rect x="4.5" y="4.5" width="188" height="39" rx="7.5" stroke="#C3C0F2" shape-rendering="crispEdges"/>
<g clip-path="url(#clip0_659_45)">
<path d="M35 16C35.5304 16 36.0391 16.2107 36.4142 16.5858C36.7893 16.9609 37 17.4696 37 18V30C37 30.5304 36.7893 31.0391 36.4142 31.4142C36.0391 31.7893 35.5304 32 35 32H21C20.4696 32 19.9609 31.7893 19.5858 31.4142C19.2107 31.0391 19 30.5304 19 30V18C19 17.4696 19.2107 16.9609 19.5858 16.5858C19.9609 16.2107 20.4696 16 21 16H35ZM35 24H21V30H35V24ZM35 18H21V22H35V18ZM23 19C23.2652 19 23.5196 19.1054 23.7071 19.2929C23.8946 19.4804 24 19.7348 24 20C24 20.2652 23.8946 20.5196 23.7071 20.7071C23.5196 20.8946 23.2652 21 23 21C22.7348 21 22.4804 20.8946 22.2929 20.7071C22.1054 20.5196 22 20.2652 22 20C22 19.7348 22.1054 19.4804 22.2929 19.2929C22.4804 19.1054 22.7348 19 23 19ZM26 19C26.2652 19 26.5196 19.1054 26.7071 19.2929C26.8946 19.4804 27 19.7348 27 20C27 20.2652 26.8946 20.5196 26.7071 20.7071C26.5196 20.8946 26.2652 21 26 21C25.7348 21 25.4804 20.8946 25.2929 20.7071C25.1054 20.5196 25 20.2652 25 20C25 19.7348 25.1054 19.4804 25.2929 19.2929C25.4804 19.1054 25.7348 19 26 19ZM29 19C29.2652 19 29.5196 19.1054 29.7071 19.2929C29.8946 19.4804 30 19.7348 30 20C30 20.2652 29.8946 20.5196 29.7071 20.7071C29.5196 20.8946 29.2652 21 29 21C28.7348 21 28.4804 20.8946 28.2929 20.7071C28.1054 20.5196 28 20.2652 28 20C28 19.7348 28.1054 19.4804 28.2929 19.2929C28.4804 19.1054 28.7348 19 29 19Z" fill="#8673DF"/>
</g>
<path d="M54.4585 30L50.7785 18.8H52.5865L55.3545 27.424H54.8745L57.5785 18.8H58.8585L61.5625 27.424H61.0825L63.8505 18.8H65.6585L61.9785 30H60.6985L57.9785 21.392H58.4585L55.7385 30H54.4585ZM69.6003 30.16C68.8323 30.16 68.1389 29.9893 67.5203 29.648C66.9123 29.296 66.4269 28.816 66.0643 28.208C65.7123 27.6 65.5363 26.9173 65.5363 26.16C65.5363 25.4027 65.7123 24.7253 66.0643 24.128C66.4163 23.52 66.8909 23.04 67.4883 22.688C68.0963 22.336 68.7683 22.16 69.5043 22.16C70.2189 22.16 70.8483 22.3253 71.3923 22.656C71.9469 22.9867 72.3789 23.44 72.6883 24.016C73.0083 24.592 73.1683 25.248 73.1683 25.984C73.1683 26.112 73.1576 26.2453 73.1363 26.384C73.1256 26.512 73.1043 26.656 73.0723 26.816H66.7683V25.376H72.1603L71.5043 25.952C71.4829 25.4827 71.3923 25.088 71.2323 24.768C71.0723 24.448 70.8429 24.2027 70.5443 24.032C70.2563 23.8613 69.8989 23.776 69.4723 23.776C69.0243 23.776 68.6349 23.872 68.3043 24.064C67.9736 24.256 67.7176 24.528 67.5363 24.88C67.3549 25.2213 67.2643 25.632 67.2643 26.112C67.2643 26.592 67.3603 27.0133 67.5523 27.376C67.7443 27.7387 68.0163 28.0213 68.3683 28.224C68.7203 28.416 69.1256 28.512 69.5843 28.512C69.9789 28.512 70.3416 28.4427 70.6723 28.304C71.0136 28.1653 71.3016 27.9627 71.5363 27.696L72.6563 28.832C72.2829 29.2693 71.8296 29.6 71.2963 29.824C70.7629 30.048 70.1976 30.16 69.6003 30.16ZM78.7911 30.16C78.2045 30.16 77.6818 30.0373 77.2231 29.792C76.7645 29.536 76.4018 29.1893 76.1351 28.752C75.8791 28.3147 75.7511 27.8187 75.7511 27.264V25.056C75.7511 24.5013 75.8845 24.0053 76.1511 23.568C76.4178 23.1307 76.7805 22.7893 77.2391 22.544C77.6978 22.288 78.2151 22.16 78.7911 22.16C79.4845 22.16 80.1085 22.3413 80.6631 22.704C81.2285 23.056 81.6711 23.536 81.9911 24.144C82.3218 24.7413 82.4871 25.4187 82.4871 26.176C82.4871 26.9227 82.3218 27.6 81.9911 28.208C81.6711 28.8053 81.2285 29.28 80.6631 29.632C80.1085 29.984 79.4845 30.16 78.7911 30.16ZM78.5031 28.496C78.9298 28.496 79.3031 28.4 79.6231 28.208C79.9538 28.0053 80.2098 27.728 80.3911 27.376C80.5831 27.024 80.6791 26.6187 80.6791 26.16C80.6791 25.7013 80.5831 25.296 80.3911 24.944C80.2098 24.592 79.9538 24.32 79.6231 24.128C79.3031 23.9253 78.9298 23.824 78.5031 23.824C78.0765 23.824 77.6978 23.9253 77.3671 24.128C77.0365 24.32 76.7805 24.592 76.5991 24.944C76.4178 25.296 76.3271 25.7013 76.3271 26.16C76.3271 26.6187 76.4178 27.024 76.5991 27.376C76.7805 27.728 77.0365 28.0053 77.3671 28.208C77.6978 28.4 78.0765 28.496 78.5031 28.496ZM74.6791 30V18.48H76.4391V24.208L76.1351 26.064L76.4391 27.936V30H74.6791ZM90.5795 30.16C89.8862 30.16 89.2568 29.984 88.6915 29.632C88.1368 29.28 87.6942 28.8053 87.3635 28.208C87.0435 27.6 86.8835 26.9227 86.8835 26.176C86.8835 25.4187 87.0435 24.7413 87.3635 24.144C87.6942 23.536 88.1368 23.056 88.6915 22.704C89.2568 22.3413 89.8862 22.16 90.5795 22.16C91.1662 22.16 91.6835 22.288 92.1315 22.544C92.5902 22.7893 92.9528 23.1307 93.2195 23.568C93.4862 24.0053 93.6195 24.5013 93.6195 25.056V27.264C93.6195 27.8187 93.4862 28.3147 93.2195 28.752C92.9635 29.1893 92.6062 29.536 92.1475 29.792C91.6888 30.0373 91.1662 30.16 90.5795 30.16ZM90.8675 28.496C91.3048 28.496 91.6835 28.4 92.0035 28.208C92.3342 28.0053 92.5902 27.728 92.7715 27.376C92.9528 27.024 93.0435 26.6187 93.0435 26.16C93.0435 25.7013 92.9528 25.296 92.7715 24.944C92.5902 24.592 92.3342 24.32 92.0035 24.128C91.6835 23.9253 91.3048 23.824 90.8675 23.824C90.4408 23.824 90.0622 23.9253 89.7315 24.128C89.4115 24.32 89.1555 24.592 88.9635 24.944C88.7822 25.296 88.6915 25.7013 88.6915 26.16C88.6915 26.6187 88.7822 27.024 88.9635 27.376C89.1555 27.728 89.4115 28.0053 89.7315 28.208C90.0622 28.4 90.4408 28.496 90.8675 28.496ZM94.6915 30H92.9315V27.936L93.2355 26.064L92.9315 24.208V18.48H94.6915V30ZM100.313 30.16C99.5448 30.16 98.8514 29.9893 98.2328 29.648C97.6248 29.296 97.1394 28.816 96.7768 28.208C96.4248 27.6 96.2488 26.9173 96.2488 26.16C96.2488 25.4027 96.4248 24.7253 96.7768 24.128C97.1288 23.52 97.6034 23.04 98.2008 22.688C98.8088 22.336 99.4808 22.16 100.217 22.16C100.931 22.16 101.561 22.3253 102.105 22.656C102.659 22.9867 103.091 23.44 103.401 24.016C103.721 24.592 103.881 25.248 103.881 25.984C103.881 26.112 103.87 26.2453 103.849 26.384C103.838 26.512 103.817 26.656 103.785 26.816H97.4808V25.376H102.873L102.217 25.952C102.195 25.4827 102.105 25.088 101.945 24.768C101.785 24.448 101.555 24.2027 101.257 24.032C100.969 23.8613 100.611 23.776 100.185 23.776C99.7368 23.776 99.3474 23.872 99.0168 24.064C98.6861 24.256 98.4301 24.528 98.2488 24.88C98.0674 25.2213 97.9768 25.632 97.9768 26.112C97.9768 26.592 98.0728 27.0133 98.2648 27.376C98.4568 27.7387 98.7288 28.0213 99.0808 28.224C99.4328 28.416 99.8381 28.512 100.297 28.512C100.691 28.512 101.054 28.4427 101.385 28.304C101.726 28.1653 102.014 27.9627 102.249 27.696L103.369 28.832C102.995 29.2693 102.542 29.6 102.009 29.824C101.475 30.048 100.91 30.16 100.313 30.16ZM107.859 30L104.355 22.32H106.307L108.979 28.576H107.827L110.515 22.32H112.387L108.883 30H107.859ZM116.825 30.16C116.057 30.16 115.364 29.9893 114.745 29.648C114.137 29.296 113.652 28.816 113.289 28.208C112.937 27.6 112.761 26.9173 112.761 26.16C112.761 25.4027 112.937 24.7253 113.289 24.128C113.641 23.52 114.116 23.04 114.713 22.688C115.321 22.336 115.993 22.16 116.729 22.16C117.444 22.16 118.073 22.3253 118.617 22.656C119.172 22.9867 119.604 23.44 119.913 24.016C120.233 24.592 120.393 25.248 120.393 25.984C120.393 26.112 120.383 26.2453 120.361 26.384C120.351 26.512 120.329 26.656 120.297 26.816H113.993V25.376H119.385L118.729 25.952C118.708 25.4827 118.617 25.088 118.457 24.768C118.297 24.448 118.068 24.2027 117.769 24.032C117.481 23.8613 117.124 23.776 116.697 23.776C116.249 23.776 115.86 23.872 115.529 24.064C115.199 24.256 114.943 24.528 114.761 24.88C114.58 25.2213 114.489 25.632 114.489 26.112C114.489 26.592 114.585 27.0133 114.777 27.376C114.969 27.7387 115.241 28.0213 115.593 28.224C115.945 28.416 116.351 28.512 116.809 28.512C117.204 28.512 117.567 28.4427 117.897 28.304C118.239 28.1653 118.527 27.9627 118.761 27.696L119.881 28.832C119.508 29.2693 119.055 29.6 118.521 29.824C117.988 30.048 117.423 30.16 116.825 30.16ZM121.904 30V18.48H123.664V30H121.904ZM129.243 30.16C128.496 30.16 127.819 29.984 127.211 29.632C126.603 29.2693 126.118 28.784 125.755 28.176C125.403 27.568 125.227 26.8907 125.227 26.144C125.227 25.3973 125.403 24.7253 125.755 24.128C126.118 23.5307 126.603 23.056 127.211 22.704C127.819 22.3413 128.496 22.16 129.243 22.16C130 22.16 130.683 22.336 131.291 22.688C131.899 23.04 132.379 23.52 132.731 24.128C133.094 24.7253 133.275 25.3973 133.275 26.144C133.275 26.8907 133.094 27.568 132.731 28.176C132.379 28.784 131.899 29.2693 131.291 29.632C130.683 29.984 130 30.16 129.243 30.16ZM129.243 28.464C129.68 28.464 130.064 28.368 130.395 28.176C130.736 27.9733 130.998 27.696 131.179 27.344C131.371 26.992 131.467 26.592 131.467 26.144C131.467 25.696 131.371 25.3013 131.179 24.96C130.987 24.6187 130.726 24.352 130.395 24.16C130.064 23.9573 129.68 23.856 129.243 23.856C128.816 23.856 128.432 23.9573 128.091 24.16C127.76 24.352 127.499 24.6187 127.307 24.96C127.126 25.3013 127.035 25.696 127.035 26.144C127.035 26.592 127.126 26.992 127.307 27.344C127.499 27.696 127.76 27.9733 128.091 28.176C128.432 28.368 128.816 28.464 129.243 28.464ZM138.951 30.16C138.364 30.16 137.841 30.0373 137.383 29.792C136.924 29.536 136.561 29.1893 136.295 28.752C136.039 28.3147 135.911 27.8187 135.911 27.264V25.056C135.911 24.5013 136.044 24.0053 136.311 23.568C136.577 23.1307 136.94 22.7893 137.399 22.544C137.857 22.288 138.375 22.16 138.951 22.16C139.644 22.16 140.268 22.3413 140.823 22.704C141.388 23.056 141.831 23.536 142.151 24.144C142.481 24.7413 142.647 25.4187 142.647 26.176C142.647 26.9227 142.481 27.6 142.151 28.208C141.831 28.8053 141.388 29.28 140.823 29.632C140.268 29.984 139.644 30.16 138.951 30.16ZM138.663 28.496C139.089 28.496 139.463 28.4 139.783 28.208C140.113 28.0053 140.369 27.728 140.551 27.376C140.743 27.024 140.839 26.6187 140.839 26.16C140.839 25.7013 140.743 25.296 140.551 24.944C140.369 24.592 140.113 24.32 139.783 24.128C139.463 23.9253 139.089 23.824 138.663 23.824C138.236 23.824 137.857 23.9253 137.527 24.128C137.196 24.32 136.94 24.592 136.759 24.944C136.577 25.296 136.487 25.7013 136.487 26.16C136.487 26.6187 136.577 27.024 136.759 27.376C136.94 27.728 137.196 28.0053 137.527 28.208C137.857 28.4 138.236 28.496 138.663 28.496ZM134.839 33.2V22.32H136.599V24.384L136.295 26.256L136.599 28.112V33.2H134.839ZM144.22 30V22.32H145.98V30H144.22ZM149.324 30V25.424C149.324 24.912 149.164 24.5173 148.844 24.24C148.524 23.952 148.129 23.808 147.66 23.808C147.34 23.808 147.052 23.872 146.796 24C146.55 24.128 146.353 24.3147 146.204 24.56C146.054 24.7947 145.98 25.0827 145.98 25.424L145.292 25.04C145.292 24.4533 145.42 23.9467 145.676 23.52C145.932 23.0933 146.278 22.7627 146.716 22.528C147.153 22.2827 147.644 22.16 148.188 22.16C148.732 22.16 149.222 22.2773 149.66 22.512C150.097 22.7467 150.444 23.0773 150.7 23.504C150.956 23.9307 151.084 24.4427 151.084 25.04V30H149.324ZM154.428 30V25.424C154.428 24.912 154.268 24.5173 153.948 24.24C153.628 23.952 153.233 23.808 152.764 23.808C152.454 23.808 152.172 23.872 151.916 24C151.66 24.128 151.457 24.3147 151.308 24.56C151.158 24.7947 151.084 25.0827 151.084 25.424L150.092 25.04C150.145 24.4533 150.316 23.9467 150.604 23.52C150.892 23.0933 151.26 22.7627 151.708 22.528C152.166 22.2827 152.668 22.16 153.212 22.16C153.766 22.16 154.268 22.2773 154.716 22.512C155.164 22.7467 155.521 23.0773 155.788 23.504C156.054 23.9307 156.188 24.4427 156.188 25.04V30H154.428ZM161.669 30.16C160.901 30.16 160.208 29.9893 159.589 29.648C158.981 29.296 158.496 28.816 158.133 28.208C157.781 27.6 157.605 26.9173 157.605 26.16C157.605 25.4027 157.781 24.7253 158.133 24.128C158.485 23.52 158.96 23.04 159.557 22.688C160.165 22.336 160.837 22.16 161.573 22.16C162.288 22.16 162.917 22.3253 163.461 22.656C164.016 22.9867 164.448 23.44 164.757 24.016C165.077 24.592 165.237 25.248 165.237 25.984C165.237 26.112 165.226 26.2453 165.205 26.384C165.194 26.512 165.173 26.656 165.141 26.816H158.837V25.376H164.229L163.573 25.952C163.552 25.4827 163.461 25.088 163.301 24.768C163.141 24.448 162.912 24.2027 162.613 24.032C162.325 23.8613 161.968 23.776 161.541 23.776C161.093 23.776 160.704 23.872 160.373 24.064C160.042 24.256 159.786 24.528 159.605 24.88C159.424 25.2213 159.333 25.632 159.333 26.112C159.333 26.592 159.429 27.0133 159.621 27.376C159.813 27.7387 160.085 28.0213 160.437 28.224C160.789 28.416 161.194 28.512 161.653 28.512C162.048 28.512 162.41 28.4427 162.741 28.304C163.082 28.1653 163.37 27.9627 163.605 27.696L164.725 28.832C164.352 29.2693 163.898 29.6 163.365 29.824C162.832 30.048 162.266 30.16 161.669 30.16ZM172.012 30V25.568C172.012 25.056 171.847 24.6347 171.516 24.304C171.196 23.9733 170.78 23.808 170.268 23.808C169.927 23.808 169.623 23.8827 169.356 24.032C169.089 24.1813 168.881 24.3893 168.732 24.656C168.583 24.9227 168.508 25.2267 168.508 25.568L167.82 25.184C167.82 24.5973 167.948 24.08 168.204 23.632C168.46 23.1733 168.812 22.816 169.26 22.56C169.719 22.2933 170.231 22.16 170.796 22.16C171.372 22.16 171.884 22.3093 172.332 22.608C172.78 22.896 173.132 23.2747 173.388 23.744C173.644 24.2027 173.772 24.6827 173.772 25.184V30H172.012ZM166.748 30V22.32H168.508V30H166.748ZM176.735 30V19.12H178.495V30H176.735ZM174.895 23.92V22.32H180.335V23.92H174.895Z" fill="#8673DF"/>
</g>
<defs>
<filter id="filter0_d_659_45" x="0" y="0" width="197" height="48" filterUnits="userSpaceOnUse" color-interpolation-filters="sRGB">
<feFlood flood-opacity="0" result="BackgroundImageFix"/>
<feColorMatrix in="SourceAlpha" type="matrix" values="0 0 0 0 0 0 0 0 0 0 0 0 0 0 0 0 0 0 127 0" result="hardAlpha"/>
<feOffset/>
<feGaussianBlur stdDeviation="2"/>
<feComposite in2="hardAlpha" operator="out"/>
<feColorMatrix type="matrix" values="0 0 0 0 0.658824 0 0 0 0 0.623529 0 0 0 0 0.917647 0 0 0 1 0"/>
<feBlend mode="normal" in2="BackgroundImageFix" result="effect1_dropShadow_659_45"/>
<feBlend mode="normal" in="SourceGraphic" in2="effect1_dropShadow_659_45" result="shape"/>
</filter>
<clipPath id="clip0_659_45">
<rect width="24" height="24" fill="white" transform="translate(16 12)"/>
</clipPath>
</defs>
</svg>
