<svg width="128" height="128" viewBox="0 0 128 128" fill="none" xmlns="http://www.w3.org/2000/svg">
<path d="M81.5038 9.46537C82.4768 10.6724 82.9728 12.3014 83.9608 15.5554L105.617 86.6914C97.4833 82.4686 88.7527 79.5129 79.7268 77.9264L65.6288 30.2804C65.5175 29.8995 65.2856 29.565 64.9679 29.3272C64.6503 29.0894 64.2641 28.9611 63.8673 28.9615C63.4705 28.962 63.0845 29.0912 62.7674 29.3297C62.4503 29.5682 62.2192 29.9032 62.1088 30.2844L48.1798 77.9024C39.1147 79.4834 30.3453 82.4437 22.1768 86.6804L43.9348 15.5404C44.9308 12.2904 45.4268 10.6644 46.3988 9.45737C47.2572 8.39419 48.3737 7.56862 49.6418 7.05937C51.0748 6.48437 52.7778 6.48438 56.1768 6.48438H71.7198C75.1218 6.48438 76.8248 6.48438 78.2628 7.06337C79.5309 7.57389 80.6461 8.40086 81.5038 9.46537Z" fill="url(#paint0_linear_2012_151)"/>
<path d="M84.094 90.0745C80.524 93.1295 73.398 95.2115 65.191 95.2115C55.121 95.2115 46.676 92.0745 44.437 87.8555C43.637 90.2735 43.457 93.0395 43.457 94.8095C43.457 94.8095 42.93 103.484 48.965 109.519C48.9648 108.775 49.1115 108.037 49.3965 107.349C49.6815 106.661 50.0993 106.035 50.626 105.509C51.1528 104.982 51.7781 104.564 52.4663 104.28C53.1545 103.995 53.8921 103.848 54.637 103.848C60.007 103.848 60.004 108.531 60 112.336V112.672C60 118.445 63.527 123.391 68.543 125.477C67.7692 123.89 67.3684 122.146 67.371 120.379C67.371 114.871 70.601 112.824 74.359 110.441C77.348 108.547 80.668 106.441 82.953 102.219C84.1867 99.9447 84.8313 97.3973 84.828 94.8095C84.8286 93.2027 84.581 91.6056 84.094 90.0745Z" fill="#FF5D01"/>
<path d="M84.094 90.0745C80.524 93.1295 73.398 95.2115 65.191 95.2115C55.121 95.2115 46.676 92.0745 44.437 87.8555C43.637 90.2735 43.457 93.0395 43.457 94.8095C43.457 94.8095 42.93 103.484 48.965 109.519C48.9648 108.775 49.1115 108.037 49.3965 107.349C49.6815 106.661 50.0993 106.035 50.626 105.509C51.1528 104.982 51.7781 104.564 52.4663 104.28C53.1545 103.995 53.8921 103.848 54.637 103.848C60.007 103.848 60.004 108.531 60 112.336V112.672C60 118.445 63.527 123.391 68.543 125.477C67.7692 123.89 67.3684 122.146 67.371 120.379C67.371 114.871 70.601 112.824 74.359 110.441C77.348 108.547 80.668 106.441 82.953 102.219C84.1867 99.9447 84.8313 97.3973 84.828 94.8095C84.8286 93.2027 84.581 91.6056 84.094 90.0745Z" fill="url(#paint1_linear_2012_151)"/>
<defs>
<linearGradient id="paint0_linear_2012_151" x1="88.2995" y1="2.71167" x2="63.8952" y2="86.6906" gradientUnits="userSpaceOnUse">
<stop stop-color="#000014"/>
<stop offset="1" stop-color="#150426"/>
</linearGradient>
<linearGradient id="paint1_linear_2012_151" x1="100.168" y1="65.2455" x2="79.0326" y2="109.491" gradientUnits="userSpaceOnUse">
<stop stop-color="#FF1639"/>
<stop offset="1" stop-color="#FF1639" stop-opacity="0"/>
</linearGradient>
</defs>
</svg>
