<svg width="256" height="153" viewBox="0 0 256 153" fill="none" xmlns="http://www.w3.org/2000/svg">
<g clip-path="url(#clip0_2012_186)">
<path d="M72.392 55.4389C72.392 58.5759 72.732 61.1189 73.325 62.9839C74.0779 65.0821 74.9844 67.1219 76.037 69.0869C76.461 69.7649 76.63 70.4429 76.63 71.0369C76.63 71.8839 76.122 72.7319 75.02 73.5799L69.68 77.1399C68.917 77.6489 68.154 77.9029 67.475 77.9029C66.628 77.9029 65.78 77.4789 64.932 76.7159C63.7889 75.4894 62.7671 74.1552 61.881 72.7319C61.033 71.2919 60.185 69.6799 59.253 67.7309C52.6403 75.5289 44.333 79.4283 34.331 79.4289C27.211 79.4289 21.531 77.3939 17.377 73.3259C13.224 69.2559 11.105 63.8309 11.105 57.0499C11.105 49.8449 13.648 43.9959 18.819 39.5879C23.989 35.1799 30.856 32.9759 39.587 32.9759C42.469 32.9759 45.436 33.2299 48.572 33.6539C51.709 34.0779 54.93 34.7559 58.321 35.5189V29.3309C58.321 22.8879 56.964 18.3959 54.336 15.7679C51.624 13.1399 47.046 11.8679 40.519 11.8679C37.552 11.8679 34.501 12.2079 31.364 12.9709C28.227 13.7339 25.176 14.6659 22.209 15.8529C20.853 16.4459 19.836 16.7849 19.242 16.9549C18.648 17.1249 18.225 17.2089 17.886 17.2089C16.699 17.2089 16.106 16.3609 16.106 14.5809V10.4269C16.106 9.07094 16.276 8.05394 16.699 7.46094C17.123 6.86694 17.886 6.27394 19.073 5.68094C22.0396 4.15427 25.5996 2.8826 29.753 1.86594C33.908 0.763937 38.316 0.255937 42.978 0.255937C53.066 0.255937 60.441 2.54394 65.188 7.12194C69.85 11.6989 72.224 18.6499 72.224 27.9749V55.4389H72.392ZM37.976 68.3239C40.774 68.3239 43.656 67.8159 46.707 66.7979C49.759 65.7809 52.472 63.9159 54.76 61.3729C56.117 59.7629 57.134 57.9829 57.642 55.9479C58.151 53.9139 58.49 51.4549 58.49 48.5729V45.0129C55.9192 44.3877 53.3155 43.9066 50.691 43.5719C48.0482 43.2366 45.387 43.0666 42.723 43.0629C37.043 43.0629 32.89 44.1649 30.093 46.4539C27.296 48.7429 25.939 51.9639 25.939 56.2019C25.939 60.1859 26.956 63.1529 29.075 65.1879C31.11 67.3069 34.077 68.3239 37.976 68.3239ZM106.045 77.4789C104.519 77.4789 103.502 77.2249 102.824 76.6309C102.146 76.1229 101.552 74.9359 101.044 73.3259L81.124 7.79994C80.614 6.10394 80.36 5.00194 80.36 4.40894C80.36 3.05294 81.038 2.28894 82.395 2.28894H90.702C92.312 2.28894 93.415 2.54394 94.008 3.13694C94.686 3.64594 95.195 4.83294 95.703 6.44294L109.944 62.5599L123.168 6.44294C123.592 4.74794 124.101 3.64594 124.778 3.13694C125.457 2.62894 126.644 2.28994 128.17 2.28994H134.951C136.561 2.28994 137.664 2.54394 138.341 3.13694C139.02 3.64594 139.613 4.83294 139.952 6.44294L153.346 63.2379L168.01 6.44294C168.518 4.74794 169.112 3.64594 169.705 3.13694C170.383 2.62894 171.485 2.28994 173.011 2.28994H180.894C182.251 2.28994 183.014 2.96794 183.014 4.40894C183.014 4.83294 182.929 5.25694 182.844 5.76494C182.759 6.27294 182.59 6.95194 182.251 7.88494L161.821 73.4099C161.313 75.1059 160.72 76.2079 160.041 76.7159C159.363 77.2249 158.261 77.5639 156.821 77.5639H149.531C147.92 77.5639 146.818 77.3099 146.139 76.7159C145.461 76.1229 144.868 75.0209 144.529 73.3259L131.389 18.6499L118.335 73.2399C117.912 74.9359 117.403 76.0379 116.725 76.6309C116.047 77.2249 114.86 77.4789 113.335 77.4789H106.045ZM214.972 79.7679C210.564 79.7679 206.156 79.2589 201.918 78.2419C197.679 77.2249 194.374 76.1219 192.17 74.8519C190.813 74.0879 189.88 73.2409 189.542 72.4779C189.212 71.7296 189.039 70.9217 189.033 70.1039V65.7809C189.033 64.0009 189.711 63.1529 190.983 63.1529C191.502 63.1549 192.017 63.241 192.509 63.4079C193.017 63.5779 193.78 63.9159 194.628 64.2549C197.622 65.5726 200.747 66.5672 203.952 67.2219C207.273 67.8952 210.652 68.2359 214.04 68.2389C219.38 68.2389 223.534 67.3069 226.416 65.4419C229.298 63.5769 230.824 60.8649 230.824 57.3889C230.824 55.0159 230.061 53.0659 228.535 51.4549C227.009 49.8439 224.127 48.4039 219.974 47.0469L207.682 43.2329C201.494 41.2829 196.917 38.4009 194.119 34.5859C191.322 30.8559 189.881 26.7029 189.881 22.2949C189.881 18.7349 190.644 15.5983 192.17 12.8849C193.695 10.1729 195.73 7.79994 198.273 5.93494C200.816 3.98494 203.698 2.54394 207.089 1.52694C210.479 0.509938 214.039 0.0859375 217.769 0.0859375C219.634 0.0859375 221.584 0.170937 223.449 0.424937C225.399 0.678937 227.179 1.01794 228.959 1.35694C230.654 1.78094 232.265 2.20494 233.791 2.71394C235.316 3.22194 236.503 3.73027 237.351 4.23894C238.538 4.91794 239.385 5.59594 239.894 6.35894C240.403 7.03694 240.657 7.96927 240.657 9.15594V13.1399C240.657 14.9199 239.979 15.8529 238.707 15.8529C238.029 15.8529 236.927 15.5129 235.487 14.8349C230.654 12.6309 225.228 11.5289 219.211 11.5289C214.379 11.5289 210.564 12.2919 207.936 13.9029C205.309 15.5129 203.952 17.9719 203.952 21.4469C203.952 23.8209 204.8 25.8549 206.495 27.4659C208.19 29.0769 211.327 30.6869 215.82 32.1279L227.857 35.9429C233.96 37.8929 238.368 40.6049 240.996 44.0799C243.624 47.5549 244.896 51.5399 244.896 55.9479C244.896 59.5929 244.132 62.8989 242.691 65.7809C241.166 68.6629 239.131 71.2059 236.503 73.2409C233.875 75.3599 230.739 76.8859 227.094 77.9879C223.279 79.1749 219.295 79.7679 214.972 79.7679Z" fill="#252F3E"/>
<path d="M230.993 120.964C203.105 141.563 162.585 152.498 127.746 152.498C78.9188 152.498 34.9248 134.442 1.69578 104.434C-0.932222 102.061 1.44078 98.8402 4.57678 100.704C40.5188 121.558 84.8528 134.188 130.713 134.188C161.653 134.188 195.645 127.746 226.925 114.522C231.587 112.402 235.571 117.574 230.993 120.964ZM242.607 107.74C239.047 103.163 219.041 105.536 209.971 106.638C207.258 106.978 206.834 104.604 209.293 102.824C225.229 91.6342 251.423 94.8562 254.474 98.5852C257.526 102.4 253.626 128.593 238.707 141.139C236.419 143.089 234.215 142.072 235.232 139.529C238.622 131.136 246.167 112.233 242.607 107.74Z" fill="#FF9900"/>
</g>
<defs>
<clipPath id="clip0_2012_186">
<rect width="256" height="153" fill="white"/>
</clipPath>
</defs>
</svg>
