<svg width="128" height="128" viewBox="0 0 128 128" fill="none" xmlns="http://www.w3.org/2000/svg">
<path d="M115.679 69.2885L100.088 60.3485L97.3992 59.1855L33.6182 59.6215V92.0025H115.679V69.2885Z" fill="white"/>
<path d="M87.295 89.0229C88.058 86.4059 87.767 84.0079 86.495 82.2269C85.332 80.5919 83.37 79.6469 81.007 79.5379L36.27 78.9569C35.979 78.9569 35.725 78.8119 35.579 78.5939C35.433 78.3759 35.397 78.0849 35.47 77.7939C35.615 77.3579 36.051 77.0309 36.524 76.9939L81.661 76.4129C87.003 76.1589 92.818 71.8339 94.853 66.5279L97.433 59.8049C97.542 59.5139 97.578 59.2239 97.506 58.9329C94.6 45.7749 82.862 35.9629 68.834 35.9629C55.896 35.9629 44.921 44.3219 40.996 55.9149C38.3349 53.9332 35.0313 53.0134 31.729 53.3349C25.514 53.9529 20.536 58.9319 19.918 65.1459C19.773 66.7449 19.882 68.3079 20.245 69.7609C10.104 70.0519 2 78.3379 2 88.5499C2 89.4589 2.073 90.3669 2.182 91.2759C2.21328 91.4858 2.31814 91.6778 2.47787 91.8175C2.63759 91.9573 2.84178 92.0358 3.054 92.0389H85.624C86.096 92.0389 86.533 91.7119 86.678 91.2389L87.295 89.0229Z" fill="#F38020"/>
<path d="M101.542 60.2754C101.142 60.2754 100.706 60.2754 100.306 60.3114C100.015 60.3114 99.7608 60.5294 99.6518 60.8204L97.9078 66.8894C97.1448 69.5064 97.4358 71.9044 98.7078 73.6854C99.8708 75.3204 101.833 76.2654 104.196 76.3744L113.718 76.9554C114.009 76.9554 114.263 77.1004 114.409 77.3184C114.555 77.5364 114.591 77.8634 114.518 78.1184C114.373 78.5544 113.937 78.8814 113.464 78.9184L103.54 79.5004C98.1608 79.7544 92.3828 84.0794 90.3478 89.3854L89.6208 91.2384C89.4758 91.6014 89.7298 91.9654 90.1298 91.9654H124.219C124.619 91.9654 124.982 91.7114 125.091 91.3114C125.672 89.2034 126 86.9864 126 84.6974C126 71.2504 115.025 60.2754 101.542 60.2754Z" fill="#FAAE40"/>
</svg>
