<svg width="24" height="24" viewBox="0 0 24 24" fill="none" xmlns="http://www.w3.org/2000/svg">
<path d="M10.2 13.2008L9.15 12.1508C9.28333 11.9674 9.375 11.7801 9.425 11.5888C9.475 11.3974 9.5 11.2014 9.5 11.0008C9.5 10.8001 9.475 10.6044 9.425 10.4138C9.375 10.2231 9.28333 10.0438 9.15 9.87578L10.2 8.80078C10.4667 9.11745 10.6667 9.46745 10.8 9.85078C10.9333 10.2341 11 10.6174 11 11.0008C11 11.3841 10.9333 11.7634 10.8 12.1388C10.6667 12.5141 10.4667 12.8681 10.2 13.2008ZM12.325 15.3508L11.25 14.2758C11.6667 13.8091 11.9793 13.2924 12.188 12.7258C12.3967 12.1591 12.5007 11.5841 12.5 11.0008C12.4993 10.4174 12.3953 9.84678 12.188 9.28878C11.9807 8.73078 11.668 8.21811 11.25 7.75078L12.325 6.67578C12.8917 7.29245 13.3127 7.97178 13.588 8.71378C13.8633 9.45578 14.0007 10.2181 14 11.0008C13.9993 11.7834 13.8617 12.5501 13.587 13.3008C13.3123 14.0514 12.8917 14.7348 12.325 15.3508ZM5 12.0008C4.45 12.0008 3.97933 11.8051 3.588 11.4138C3.19667 11.0224 3.00067 10.5514 3 10.0008C2.99933 9.45011 3.19533 8.97945 3.588 8.58878C3.98067 8.19811 4.45133 8.00211 5 8.00078C5.54867 7.99945 6.01967 8.19545 6.413 8.58878C6.80633 8.98211 7.002 9.45278 7 10.0008C6.998 10.5488 6.80233 11.0198 6.413 11.4138C6.02367 11.8078 5.55267 12.0034 5 12.0008ZM1 16.0008V15.4258C1 15.0258 1.10833 14.6591 1.325 14.3258C1.54167 13.9924 1.84167 13.7424 2.225 13.5758C2.65833 13.3924 3.10433 13.2508 3.563 13.1508C4.02167 13.0508 4.50067 13.0008 5 13.0008C5.49933 13.0008 5.97867 13.0508 6.438 13.1508C6.89733 13.2508 7.343 13.3924 7.775 13.5758C8.15833 13.7424 8.45833 13.9924 8.675 14.3258C8.89167 14.6591 9 15.0258 9 15.4258V16.0008H1ZM19 12.0008C18.45 12.0008 17.9793 11.8051 17.588 11.4138C17.1967 11.0224 17.0007 10.5514 17 10.0008C16.9993 9.45011 17.1953 8.97945 17.588 8.58878C17.9807 8.19811 18.4513 8.00211 19 8.00078C19.5487 7.99945 20.0197 8.19545 20.413 8.58878C20.8063 8.98211 21.002 9.45278 21 10.0008C20.998 10.5488 20.8023 11.0198 20.413 11.4138C20.0237 11.8078 19.5527 12.0034 19 12.0008ZM15 16.0008V15.4258C15 15.0258 15.1083 14.6591 15.325 14.3258C15.5417 13.9924 15.8417 13.7424 16.225 13.5758C16.6583 13.3924 17.104 13.2508 17.562 13.1508C18.02 13.0508 18.4993 13.0008 19 13.0008C19.5007 13.0008 19.9797 13.0508 20.437 13.1508C20.8943 13.2508 21.3403 13.3924 21.775 13.5758C22.1583 13.7424 22.4583 13.9924 22.675 14.3258C22.8917 14.6591 23 15.0258 23 15.4258V16.0008H15Z" fill="black"/>
</svg>
