<svg width="32" height="32" viewBox="0 0 32 32" fill="none" xmlns="http://www.w3.org/2000/svg">
<path d="M28.9999 10.2325C29.0089 9.79663 28.8989 9.36657 28.6819 8.98848C28.4536 8.61748 28.1305 8.31406 27.7459 8.10948C24.2832 6.19748 20.8189 4.28648 17.3529 2.37648C16.9351 2.12487 16.4557 1.99391 15.968 1.99815C15.4803 2.00238 15.0033 2.14165 14.5899 2.40048C13.2119 3.17948 6.31492 6.96548 4.25892 8.10648C3.8679 8.30331 3.5415 8.60808 3.31836 8.98469C3.09523 9.36131 2.98472 9.79399 2.99992 10.2315V21.7705C2.98981 22.1966 3.09336 22.6177 3.29992 22.9905C3.52942 23.3723 3.85944 23.6836 4.25392 23.8905C6.30992 25.0315 13.2079 28.8175 14.5859 29.5965C14.9991 29.8556 15.476 29.9952 15.9637 29.9998C16.4515 30.0044 16.9309 29.8738 17.3489 29.6225C20.8089 27.7085 24.2709 25.7975 27.7349 23.8895C28.1295 23.6823 28.4597 23.3711 28.6899 22.9895C28.8965 22.6167 29 22.1956 28.9899 21.7695V10.2325" fill="#659AD2"/>
<path d="M28.549 23.1711C28.6015 23.1134 28.6506 23.0526 28.696 22.9891C28.9026 22.6163 29.0061 22.1952 28.996 21.7691V10.2321C29.0049 9.79627 28.895 9.36621 28.678 8.98812C28.642 8.92912 28.589 8.88312 28.548 8.82812L16 16.0001L28.549 23.1711Z" fill="#00599C"/>
<path d="M28.5492 23.171L16.0002 16L3.45117 23.171C3.66246 23.4695 3.93917 23.7158 4.26017 23.891C6.31617 25.032 13.2142 28.818 14.5922 29.597C15.0054 29.8561 15.4823 29.9958 15.97 30.0003C16.4577 30.0049 16.9372 29.8743 17.3552 29.623C20.8152 27.709 24.2772 25.798 27.7412 23.89C28.0617 23.7149 28.3381 23.469 28.5492 23.171Z" fill="#004482"/>
<path d="M19.6002 18.0201C19.1547 18.8123 18.4599 19.435 17.6238 19.7913C16.7877 20.1476 15.8573 20.2176 14.9773 19.9902C14.0974 19.7629 13.3173 19.251 12.7584 18.5343C12.1995 17.8176 11.8933 16.9363 11.8873 16.0275C11.8812 15.1186 12.1758 14.2333 12.7252 13.5093C13.2746 12.7853 14.0478 12.2632 14.9247 12.0242C15.8016 11.7853 16.7329 11.8429 17.5736 12.1881C18.4143 12.5334 19.1173 13.1469 19.5732 13.9331L23.1882 11.8601C22.2706 10.2854 20.8607 9.05606 19.1758 8.36147C17.4908 7.66687 15.6241 7.54556 13.8634 8.01621C12.1027 8.48685 10.5455 9.52336 9.43185 10.966C8.31816 12.4087 7.7097 14.1776 7.70021 16.0001C7.69765 17.4454 8.07713 18.8657 8.80021 20.1171C9.53171 21.3814 10.5832 22.4308 11.8489 23.1598C13.1146 23.8887 14.55 24.2716 16.0106 24.2699C17.4713 24.2682 18.9057 23.8819 20.1697 23.1499C21.4337 22.418 22.4827 21.3661 23.2112 20.1001L19.6002 18.0201Z" fill="white"/>
<path d="M24.0758 15.5382H23.1498V14.6172H22.2248V15.5382H21.2988V16.4612H22.2248V17.3812H23.1498V16.4612H24.0758V15.5382ZM27.5488 15.5382H26.6228V14.6172H25.6968V15.5382H24.7708V16.4612H25.6968V17.3812H26.6228V16.4612H27.5488V15.5382Z" fill="white"/>
</svg>
