<svg width="202" height="72" viewBox="0 0 202 72" fill="none" xmlns="http://www.w3.org/2000/svg">
<path d="M19.3596 35.1712C20.0809 33.9125 19.6389 32.3186 18.3724 31.6111C17.1058 30.9036 15.4943 31.3505 14.773 32.6092L6.30562 47.3847C5.58428 48.6434 6.02627 50.2373 7.29282 50.9448C8.55937 51.6523 10.1709 51.2055 10.8922 49.9467L19.3596 35.1712Z" fill="#BEEF4C"/>
<path d="M37.6106 23.8412C38.3319 22.5824 37.8899 20.9885 36.6234 20.281C35.3568 19.5735 33.7453 20.0204 33.024 21.2791L24.5566 36.0546C23.8353 37.3133 24.2772 38.9073 25.5438 39.6147C26.8103 40.3222 28.4218 39.8754 29.1432 38.6167L37.6106 23.8412Z" fill="#BEEF4C"/>
<path d="M65.6936 23.8412C66.4149 22.5824 65.9729 20.9885 64.7064 20.281C63.4398 19.5735 61.8283 20.0204 61.107 21.2791L52.6396 36.0546C51.9183 37.3133 52.3603 38.9073 53.6268 39.6147C54.8934 40.3222 56.5049 39.8754 57.2262 38.6167L65.6936 23.8412Z" fill="#BEEF4C"/>
<path d="M47.4367 35.1712C48.1581 33.9125 47.7161 32.3186 46.4495 31.6111C45.183 30.9036 43.5715 31.3505 42.8502 32.6092L34.3828 47.3847C33.6614 48.6434 34.1034 50.2373 35.37 50.9448C36.6365 51.6523 38.248 51.2055 38.9694 49.9467L47.4367 35.1712Z" fill="#BEEF4C"/>
<path d="M85.9599 49.4407C84.2532 49.4407 82.7466 49.0274 81.4399 48.2007C80.1599 47.374 79.1599 46.1874 78.4399 44.6407C77.7199 43.094 77.3599 41.2674 77.3599 39.1607C77.3599 37.054 77.7199 35.2407 78.4399 33.7207C79.1599 32.2007 80.1599 31.0274 81.4399 30.2007C82.7466 29.374 84.2532 28.9607 85.9599 28.9607C87.5066 28.9607 88.8666 29.334 90.0399 30.0807C91.2399 30.8274 92.0532 31.8007 92.4799 33.0007H92.0399V23.5207C92.0399 22.5074 92.2932 21.7474 92.7999 21.2407C93.3066 20.7074 94.0532 20.4407 95.0399 20.4407C95.9999 20.4407 96.7466 20.7074 97.2799 21.2407C97.8132 21.7474 98.0799 22.5074 98.0799 23.5207V46.2807C98.0799 47.2674 97.8132 48.0274 97.2799 48.5607C96.7732 49.094 96.0399 49.3607 95.0799 49.3607C94.1199 49.3607 93.3732 49.094 92.8399 48.5607C92.3332 48.0274 92.0799 47.2674 92.0799 46.2807V43.5607L92.5199 45.1207C92.1466 46.4274 91.3466 47.4807 90.1199 48.2807C88.9199 49.054 87.5332 49.4407 85.9599 49.4407ZM87.7599 44.9207C88.6399 44.9207 89.3999 44.7074 90.0399 44.2807C90.6799 43.854 91.1866 43.2274 91.5599 42.4007C91.9332 41.5474 92.1199 40.4674 92.1199 39.1607C92.1199 37.214 91.7199 35.7874 90.9199 34.8807C90.1199 33.9474 89.0666 33.4807 87.7599 33.4807C86.9066 33.4807 86.1466 33.6807 85.4799 34.0807C84.8399 34.4807 84.3332 35.1074 83.9599 35.9607C83.6132 36.7874 83.4399 37.854 83.4399 39.1607C83.4399 41.1074 83.8399 42.5607 84.6399 43.5207C85.4399 44.454 86.4799 44.9207 87.7599 44.9207ZM105.854 49.3607C104.841 49.3607 104.067 49.094 103.534 48.5607C103.001 48.0274 102.734 47.2674 102.734 46.2807V32.0807C102.734 31.094 102.987 30.3474 103.494 29.8407C104.027 29.3074 104.761 29.0407 105.694 29.0407C106.654 29.0407 107.387 29.3074 107.894 29.8407C108.401 30.3474 108.654 31.094 108.654 32.0807V34.1607H108.254C108.574 32.5607 109.281 31.3207 110.374 30.4407C111.467 29.5607 112.881 29.0674 114.614 28.9607C115.281 28.9074 115.787 29.0807 116.134 29.4807C116.507 29.854 116.707 30.4807 116.734 31.3607C116.787 32.1874 116.614 32.8407 116.214 33.3207C115.841 33.8007 115.201 34.094 114.294 34.2007L113.374 34.2807C111.854 34.414 110.721 34.854 109.974 35.6007C109.254 36.3474 108.894 37.4274 108.894 38.8407V46.2807C108.894 47.2674 108.627 48.0274 108.094 48.5607C107.587 49.094 106.841 49.3607 105.854 49.3607ZM122.258 49.3207C121.272 49.3207 120.512 49.0407 119.978 48.4807C119.472 47.894 119.218 47.0807 119.218 46.0407V32.3607C119.218 31.294 119.472 30.4807 119.978 29.9207C120.512 29.334 121.272 29.0407 122.258 29.0407C123.218 29.0407 123.952 29.334 124.458 29.9207C124.992 30.4807 125.258 31.294 125.258 32.3607V46.0407C125.258 47.0807 125.005 47.894 124.498 48.4807C123.992 49.0407 123.245 49.3207 122.258 49.3207ZM122.258 25.7607C121.138 25.7607 120.272 25.5074 119.658 25.0007C119.072 24.4674 118.778 23.7207 118.778 22.7607C118.778 21.774 119.072 21.0274 119.658 20.5207C120.272 19.9874 121.138 19.7207 122.258 19.7207C123.378 19.7207 124.232 19.9874 124.818 20.5207C125.405 21.0274 125.698 21.774 125.698 22.7607C125.698 23.7207 125.405 24.4674 124.818 25.0007C124.232 25.5074 123.378 25.7607 122.258 25.7607ZM131.602 49.0007C131.015 49.0007 130.522 48.854 130.122 48.5607C129.722 48.2407 129.455 47.8407 129.322 47.3607C129.188 46.8807 129.188 46.3607 129.322 45.8007C129.482 45.2407 129.788 44.7207 130.242 44.2407L140.042 32.4807V33.8807H131.362C130.642 33.8807 130.082 33.6807 129.682 33.2807C129.282 32.8807 129.082 32.334 129.082 31.6407C129.082 30.894 129.282 30.334 129.682 29.9607C130.082 29.5607 130.642 29.3607 131.362 29.3607H142.922C143.642 29.3607 144.215 29.5207 144.642 29.8407C145.068 30.1607 145.348 30.5607 145.482 31.0407C145.642 31.494 145.655 32.0007 145.522 32.5607C145.415 33.094 145.135 33.6007 144.682 34.0807L134.642 46.0807V44.5207H143.922C145.442 44.5207 146.202 45.2674 146.202 46.7607C146.202 47.4807 146.002 48.0407 145.602 48.4407C145.202 48.814 144.642 49.0007 143.922 49.0007H131.602ZM150.82 49.0007C150.234 49.0007 149.74 48.854 149.34 48.5607C148.94 48.2407 148.674 47.8407 148.54 47.3607C148.407 46.8807 148.407 46.3607 148.54 45.8007C148.7 45.2407 149.007 44.7207 149.46 44.2407L159.26 32.4807V33.8807H150.58C149.86 33.8807 149.3 33.6807 148.9 33.2807C148.5 32.8807 148.3 32.334 148.3 31.6407C148.3 30.894 148.5 30.334 148.9 29.9607C149.3 29.5607 149.86 29.3607 150.58 29.3607H162.14C162.86 29.3607 163.434 29.5207 163.86 29.8407C164.287 30.1607 164.567 30.5607 164.7 31.0407C164.86 31.494 164.874 32.0007 164.74 32.5607C164.634 33.094 164.354 33.6007 163.9 34.0807L153.86 46.0807V44.5207H163.14C164.66 44.5207 165.42 45.2674 165.42 46.7607C165.42 47.4807 165.22 48.0407 164.82 48.4407C164.42 48.814 163.86 49.0007 163.14 49.0007H150.82ZM175.439 49.4407C173.066 49.4407 171.292 48.7874 170.119 47.4807C168.946 46.1474 168.359 44.174 168.359 41.5607V23.5207C168.359 22.5074 168.612 21.7474 169.119 21.2407C169.652 20.7074 170.412 20.4407 171.399 20.4407C172.359 20.4407 173.092 20.7074 173.599 21.2407C174.132 21.7474 174.399 22.5074 174.399 23.5207V41.3207C174.399 42.414 174.626 43.2274 175.079 43.7607C175.559 44.2674 176.186 44.5207 176.959 44.5207C177.172 44.5207 177.372 44.5074 177.559 44.4807C177.746 44.454 177.946 44.4407 178.159 44.4407C178.586 44.3874 178.879 44.5207 179.039 44.8407C179.226 45.134 179.319 45.734 179.319 46.6407C179.319 47.4407 179.159 48.054 178.839 48.4807C178.519 48.8807 178.026 49.1474 177.359 49.2807C177.092 49.3074 176.786 49.334 176.439 49.3607C176.092 49.414 175.759 49.4407 175.439 49.4407ZM191.684 49.4407C189.364 49.4407 187.364 49.0274 185.684 48.2007C184.031 47.3474 182.751 46.1607 181.844 44.6407C180.964 43.094 180.524 41.2807 180.524 39.2007C180.524 37.174 180.951 35.4007 181.804 33.8807C182.657 32.334 183.844 31.134 185.364 30.2807C186.911 29.4007 188.657 28.9607 190.604 28.9607C192.017 28.9607 193.297 29.2007 194.444 29.6807C195.591 30.134 196.577 30.8007 197.404 31.6807C198.231 32.534 198.857 33.5874 199.284 34.8407C199.711 36.0674 199.924 37.4407 199.924 38.9607C199.924 39.4674 199.764 39.854 199.444 40.1207C199.124 40.3607 198.657 40.4807 198.044 40.4807H185.484V37.3607H195.564L194.924 37.9207C194.924 36.8274 194.764 35.9207 194.444 35.2007C194.124 34.454 193.657 33.894 193.044 33.5207C192.457 33.1474 191.724 32.9607 190.844 32.9607C189.857 32.9607 189.017 33.1874 188.324 33.6407C187.631 34.094 187.097 34.7474 186.724 35.6007C186.351 36.454 186.164 37.4807 186.164 38.6807V39.0007C186.164 41.0274 186.631 42.5207 187.564 43.4807C188.524 44.4407 189.937 44.9207 191.804 44.9207C192.444 44.9207 193.177 44.8407 194.004 44.6807C194.831 44.5207 195.604 44.2674 196.324 43.9207C196.937 43.6274 197.484 43.534 197.964 43.6407C198.444 43.7207 198.817 43.934 199.084 44.2807C199.351 44.6274 199.497 45.0274 199.524 45.4807C199.577 45.934 199.484 46.3874 199.244 46.8407C199.004 47.2674 198.604 47.6274 198.044 47.9207C197.137 48.4274 196.111 48.8007 194.964 49.0407C193.844 49.3074 192.751 49.4407 191.684 49.4407Z" fill="black"/>
</svg>
