<svg width="128" height="128" viewBox="0 0 128 128" fill="none" xmlns="http://www.w3.org/2000/svg">
<g clip-path="url(#clip0_2012_155)">
<path d="M56.813 127.587C54.91 127.36 52.914 127.067 52.379 126.935C51.5917 126.748 50.7998 126.581 50.004 126.435C49.0952 126.258 48.1935 126.047 47.301 125.802C43.156 124.614 42.859 124.517 39.734 123.239C36.859 122.067 31.562 119.329 29.75 118.083C29.254 117.739 28.79 117.462 28.719 117.462C28.648 117.462 27.489 116.646 26.141 115.649C17.571 109.306 11.137 101.606 6.488 92.1216C5.688 90.4926 5.035 89.0476 5.035 88.9116C5.035 88.7776 4.891 88.4066 4.715 88.0946C4.352 87.4456 3.835 86.0476 3.418 84.6026C3.23878 83.9887 3.0302 83.3836 2.793 82.7896C2.598 82.3296 2.441 81.7696 2.441 81.5436C2.441 81.3166 2.246 80.5786 2.008 79.8986C1.77 79.2236 1.578 78.4266 1.578 78.1286C1.578 77.8326 1.391 76.8086 1.16 75.8526C0.598 73.4926 0 67.3796 0 63.9536C0 60.5316 0.598 54.4186 1.16 52.0596C1.39 51.1026 1.578 50.0596 1.578 49.7396C1.578 49.4186 1.723 48.7896 1.898 48.3396C2.078 47.8916 2.308 47.0866 2.414 46.5516C2.524 46.0166 2.774 45.0946 2.977 44.4966L3.567 42.7706C4 41.4776 4.402 40.3836 4.594 39.9576C4.704 39.7196 5.133 38.7476 5.551 37.7976C6.227 36.2626 7.676 33.3676 8.523 31.8526C8.832 31.2976 8.949 31.1136 10.621 28.5006C13.27 24.3526 17.797 19.1916 22.011 15.5126C23.496 14.2156 28.457 10.4496 28.68 10.4496C28.742 10.4496 29.21 10.1686 29.723 9.82464C31.07 8.92264 32.391 8.15664 34.113 7.29364C34.7311 6.98795 35.3433 6.67022 35.949 6.34064C36.234 6.17664 36.769 5.93064 39.516 4.70064C40.121 4.43064 40.773 4.18464 42.652 3.52764C43.066 3.38364 43.898 3.07864 44.492 2.85564C45.09 2.63364 45.793 2.44964 46.055 2.44964C46.313 2.44964 46.992 2.26964 47.563 2.04764C48.133 1.82464 49.168 1.57064 49.867 1.48464C50.563 1.40264 51.488 1.20764 51.922 1.05464C52.352 0.906641 53.532 0.714641 54.543 0.629641C55.8606 0.510382 57.1748 0.355325 58.484 0.164641C61.172 -0.229359 67.016 -0.229359 69.676 0.164641C70.9324 0.344943 72.1931 0.493324 73.457 0.609641C74.41 0.688641 75.625 0.887641 76.16 1.05164C76.695 1.21164 77.621 1.41164 78.215 1.48464C78.809 1.56364 79.809 1.80964 80.437 2.03564C81.067 2.26564 81.781 2.44964 82.027 2.44964C82.273 2.44964 82.781 2.58664 83.152 2.75864C83.527 2.92664 84.32 3.20764 84.918 3.38364C85.512 3.56364 86.531 3.91864 87.188 4.18064C87.84 4.44164 88.715 4.78564 89.133 4.94164C89.903 5.23164 95.593 8.07864 96.367 8.56364C102.648 12.4806 105.879 15.0396 110.223 19.5276C115.461 24.9416 118.938 30.0976 122.477 37.6876C122.727 38.2236 123.109 39.0166 123.328 39.4456C123.543 39.8796 123.723 40.3876 123.723 40.5756C123.723 40.7656 123.903 41.3356 124.125 41.8446C124.727 43.2276 125.242 44.8016 125.485 46.0046C125.605 46.5946 125.828 47.3246 125.98 47.6256C126.133 47.9256 126.312 48.6886 126.383 49.3136C126.453 49.9376 126.66 50.9616 126.836 51.5826C127.856 55.1136 128.363 65.5166 127.746 70.1176C127.563 71.4846 127.356 73.1376 127.286 73.7896C127.168 74.9066 126.578 77.7936 126.074 79.7346L125.554 81.7896C124.574 85.7466 122.152 91.3836 119.195 96.5986C118.023 98.6686 114.094 104.267 113.352 104.923C113.285 104.981 112.953 105.373 112.617 105.786C112.281 106.204 111.203 107.372 110.227 108.38C105.926 112.821 102.457 115.567 96.367 119.349C95.645 119.798 89.52 122.79 88.375 123.255C87.781 123.493 86.789 123.895 86.172 124.145C85.559 124.392 84.875 124.599 84.66 124.603C84.445 124.606 83.879 124.798 83.402 125.028C82.926 125.258 82.32 125.45 82.051 125.454C81.785 125.458 81.008 125.646 80.324 125.872C79.641 126.102 78.691 126.349 78.214 126.422C77.738 126.497 76.719 126.7 75.945 126.872C75.172 127.044 72.835 127.38 70.758 127.618C66.1248 128.159 61.4438 128.148 56.813 127.587ZM61.516 115.087C61.816 114.853 62.125 114.387 62.207 114.06C62.387 113.337 91.441 55.0896 91.988 54.3596C92.449 53.7426 92.492 52.7546 92.07 52.4066C91.848 52.2196 89.066 52.1606 81.64 52.1726C76.07 52.1846 71.387 52.1886 71.234 52.1846C71.008 52.1766 70.961 48.4546 70.984 32.5126C71 21.6956 70.949 12.7466 70.871 12.6226C70.793 12.4966 70.488 12.3956 70.191 12.3956C69.773 12.3956 69.578 12.5756 69.321 13.2036C68.836 14.3716 67.496 17.0236 60.973 29.6886C59.6181 32.317 58.2664 34.947 56.918 37.5786C55.762 39.8406 53.938 43.3916 52.871 45.4686C49.999 51.0519 47.133 56.6382 44.273 62.2276C39.34 71.8636 38.743 73.0126 38.531 73.2666C38.121 73.7626 37.898 74.9066 38.129 75.3366C38.339 75.7306 38.758 75.7466 49.172 75.7306C55.125 75.7236 60.035 75.7546 60.086 75.8006C60.223 75.9416 60.172 113.111 60.031 113.997C59.938 114.579 60 114.887 60.266 115.153C60.726 115.614 60.852 115.61 61.516 115.087Z" fill="#049688"/>
</g>
<defs>
<clipPath id="clip0_2012_155">
<rect width="128" height="128" fill="white"/>
</clipPath>
</defs>
</svg>
