<svg width="24" height="24" viewBox="0 0 24 24" fill="none" xmlns="http://www.w3.org/2000/svg">
<path d="M13.7799 18.2901C13.9299 18.2901 13.7799 18.4101 13.7799 18.2901ZM10.4299 15.5901C10.8199 15.7601 10.1199 14.9901 10.4299 15.5901ZM5.3999 15.8701C5.5499 16.1301 5.3999 15.7501 5.3999 15.8701ZM10.9999 16.2601C10.7299 15.8401 10.7999 16.3201 10.9999 16.5801C11.4799 17.0501 11.1799 16.3201 10.9999 16.2601Z" fill="black"/>
<path d="M20.2399 19.0601C19.7099 19.6901 19.2399 18.9901 18.6099 19.1901C17.5099 19.1901 18.6999 18.6901 18.6699 18.1901C18.0899 17.7401 17.4299 18.8001 17.0499 19.0901C16.1276 18.9309 15.23 18.6519 14.3799 18.2601C13.3898 17.7978 12.505 17.1376 11.7799 16.3201C10.9686 15.5116 10.3321 14.5449 9.9099 13.4801C9.37018 11.6139 9.08757 9.68276 9.0699 7.74013C9.1399 6.44013 10.5099 7.88013 11.0699 7.41013C10.8599 6.74013 9.7799 6.53014 9.1799 6.25014C8.5999 6.25014 8.3899 5.70014 7.7799 5.66014C7.7799 4.93014 6.6499 5.33014 6.2199 4.82014C6.6399 3.74014 4.8499 4.82014 4.9899 3.91014C5.5699 2.71014 3.2099 2.91014 4.1899 3.97014C5.1399 4.51014 3.2599 4.90014 3.8099 5.26014C3.85641 5.35048 3.87879 5.45131 3.87489 5.55285C3.87098 5.65439 3.84091 5.7532 3.7876 5.8397C3.73429 5.92621 3.65954 5.99748 3.57059 6.04661C3.48164 6.09574 3.38151 6.12107 3.2799 6.12014C2.5399 6.19014 2.6099 7.21014 3.3399 6.67014C4.1499 6.42014 3.4799 6.78014 3.0899 6.85014C2.88409 6.88143 2.68881 6.9617 2.52048 7.08418C2.35215 7.20667 2.2157 7.36778 2.1226 7.55398C2.0295 7.74018 1.98248 7.94601 1.98549 8.15417C1.9885 8.36232 2.04146 8.56671 2.1399 8.75013C2.53057 9.87258 2.86432 11.014 3.1399 12.1701C3.75715 13.9227 4.67039 15.5563 5.8399 17.0001C6.45487 17.772 7.18312 18.4463 7.9999 19.0001C8.74987 19.5167 9.5676 19.9273 10.4299 20.2201C11.967 20.6729 13.5578 20.9184 15.1599 20.9501C16.1317 20.9555 17.1022 20.8752 18.0599 20.7101C18.9299 20.8001 19.5499 20.0601 20.3199 20.4501C20.7999 20.0301 21.4799 20.2201 21.9499 19.9101C22.2699 18.6901 20.7299 19.6401 20.2399 19.0601ZM18.4999 18.3201C18.5499 17.9801 18.2799 18.3201 18.4999 18.3201ZM10.8699 7.32014C10.7699 7.32014 10.7899 7.20014 10.7099 7.17014C9.9099 6.80014 11.0999 6.94014 10.8699 7.36014V7.32014ZM17.6299 18.7101C17.9099 18.4601 17.2799 18.6301 17.6299 18.7101ZM14.8199 18.8201C14.9999 18.6801 14.5899 18.8201 14.8199 18.8201ZM12.9399 17.6401C12.9399 17.5101 12.8099 17.6401 12.9399 17.6401ZM12.7199 17.4701C12.6299 17.2401 12.3599 17.4701 12.7199 17.4701ZM12.2999 17.1101C12.2999 16.7701 11.9699 17.1901 12.2999 17.1101ZM6.2999 5.45013C5.7699 5.17013 6.4099 5.78014 5.9599 5.77014C5.7199 5.77014 5.2699 5.25013 5.4199 4.99013C5.7199 5.15013 6.2499 5.20013 6.3399 5.49013L6.2999 5.45013ZM5.3799 4.64014H5.2699C5.2399 4.37014 6.1399 4.58014 5.4199 4.68014L5.3799 4.64014ZM4.3599 3.85014C3.9399 3.66014 4.3599 2.92014 4.7999 3.27014C5.3099 4.00014 3.8499 3.19014 4.3599 3.85014ZM4.8499 4.54014C5.0099 4.33014 4.5799 4.65014 4.8499 4.54014ZM5.3299 5.46014C5.9299 5.92014 4.9899 5.46014 4.6099 5.75014C3.9999 5.81014 5.2699 5.41014 5.3299 5.46014ZM5.4999 6.06014C5.8499 6.06014 7.3799 5.37013 6.8699 5.99013C7.3399 6.54013 6.9699 6.36013 6.6599 5.99013C6.9399 6.18013 6.7199 6.99014 6.2899 6.44014C5.8599 5.89014 5.7899 6.26014 6.1199 6.65014C5.7999 6.00014 4.8799 6.28014 4.2099 6.50014C3.7799 6.46014 5.3399 6.13014 5.4999 6.06014ZM3.5799 7.51014C3.4199 7.91014 3.8199 8.04013 4.1999 8.11013C4.8199 7.94013 3.7899 7.83014 4.2599 7.67014C4.5199 7.67014 3.4399 7.41013 4.3399 7.29013C5.2399 7.17013 6.0899 6.77014 6.9999 6.58014C7.77101 6.41059 8.56158 6.34667 9.3499 6.39014C9.6499 6.74014 9.1199 7.33013 8.5799 7.39013C7.93102 7.59884 7.25966 7.72976 6.5799 7.78014C5.7799 7.68014 5.2099 8.39013 4.3899 8.48013C4.6099 8.08013 4.2099 8.34013 3.7999 8.32013C4.0099 9.14013 2.3299 8.11013 3.3199 7.91013C2.5799 7.65013 2.5699 8.43013 2.6499 8.91013C1.9999 8.00013 2.7199 7.62014 3.5799 7.51014ZM5.4599 8.59014C5.6299 8.39014 5.2399 8.54014 5.4599 8.59014ZM4.7399 9.47014C4.7399 9.47014 4.3999 9.39014 4.5399 9.30014C5.5399 9.43014 3.6399 8.97013 4.6699 9.08013C5.3299 9.06013 5.1099 9.44014 4.7399 9.47014ZM5.0699 9.64014C5.0699 9.40014 4.9499 9.76014 5.0699 9.64014ZM4.3599 9.64014C4.5699 9.42014 3.9199 9.55014 4.3599 9.64014ZM4.2999 11.0701C4.2299 11.1701 4.1999 10.9901 4.2999 11.0701ZM3.9999 10.9001C3.9999 10.6901 3.4499 10.7101 3.9999 10.9001ZM3.8799 12.1801C3.6199 12.0901 3.6299 11.6801 3.5099 11.4601C3.1299 10.4301 3.9199 11.8601 3.8399 12.1801H3.8799ZM4.1099 10.6901C4.0599 10.2001 3.4199 10.6101 4.1099 10.6901ZM4.1099 10.3501H4.0199C3.2599 10.0001 4.4699 10.1801 3.9999 10.3501H4.1099ZM3.9999 9.56014C4.5799 9.20014 3.3899 9.25014 3.9999 9.56014ZM4.2099 9.82013C4.2599 9.50013 3.8699 9.88013 4.2099 9.82013ZM2.9099 9.89014C2.9099 9.66014 2.7899 9.97014 2.9099 9.89014ZM2.9999 9.75013C2.9999 9.48013 2.8399 9.75013 2.9999 9.75013ZM3.0799 8.75013C3.4099 8.50013 2.6799 8.65013 3.0799 8.75013ZM3.3399 10.7501C3.2199 10.1001 2.8999 10.6501 3.3399 10.7501ZM3.6399 12.0001C4.0599 12.5101 3.8999 12.7901 4.3299 13.4101C3.7699 13.0601 3.6599 12.2101 3.3299 11.6601C2.9199 10.7601 3.5599 11.6501 3.6399 12.0001ZM7.7299 18.3801C7.3899 18.3101 7.1599 17.9501 6.9199 17.7201C6.23727 17.2205 5.69624 16.552 5.3499 15.7801C4.77419 15.045 4.28435 14.2465 3.8899 13.4001C3.4799 12.4801 4.1399 13.4701 4.2399 13.8201C4.4499 14.5001 5.1199 14.8901 5.1799 15.3401C5.9199 15.7601 5.5399 16.4601 6.1799 16.6501C6.4499 16.5101 6.4799 17.4901 7.0699 17.2901C6.7399 17.4401 7.1999 17.6201 7.3699 17.9001C7.7199 17.8501 8.5399 18.7201 7.7299 18.4201V18.3801ZM4.6199 12.0001C4.9499 11.8901 4.3099 11.9301 4.6199 12.0001ZM4.8199 12.4701C5.3399 12.2701 4.2699 12.3301 4.8199 12.4701ZM6.2099 12.9401C6.6099 12.7701 6.3699 13.7201 6.7599 13.8401C7.5199 14.8401 6.2299 13.8401 5.7599 13.7701C5.8199 13.7701 5.3799 13.6501 5.5699 13.6101C5.4299 13.4601 5.1199 12.9501 5.8299 13.2901C6.4299 13.5301 6.4799 13.3501 6.2099 12.9001V12.9401ZM7.5199 14.7001C7.5199 14.8501 6.7999 14.8301 7.4599 15.1201C7.0799 15.1201 6.9599 15.1201 7.4599 15.4201C7.2399 15.5901 7.8899 15.7301 7.6699 15.9901C8.3299 16.5101 7.5499 16.1201 7.2699 15.9101C6.9899 15.7001 6.4199 15.5601 6.5199 15.4101C7.3299 15.8301 6.7299 15.4101 6.3699 15.1101C7.0199 15.2701 5.8599 14.6301 6.4699 14.8001C6.6599 14.8501 6.1999 14.4201 6.7999 14.7301C6.2599 14.2101 7.2699 14.6101 7.5199 14.6601V14.7001ZM7.9999 14.5301C7.9999 14.1901 7.3899 14.3901 7.9999 14.5301ZM7.8299 16.5301C8.2199 16.5301 7.2199 16.2701 7.8299 16.5301ZM7.3799 16.3601C7.8999 16.3601 6.6699 16.1301 7.3799 16.3601ZM7.2899 16.4701C7.2899 16.3001 7.0699 16.4701 7.2899 16.4701ZM6.2099 14.9201C6.0099 14.5901 5.4899 14.6201 6.2099 14.9201ZM5.6699 14.5701C5.5899 14.2401 5.0899 14.2401 5.6699 14.5701ZM5.6699 15.2201C5.5999 14.9701 5.0999 14.7801 5.6699 15.2201ZM5.5199 13.8801C5.6499 13.6801 5.1699 13.8801 5.5199 13.8801ZM7.9999 17.3801C7.9999 17.2401 7.4899 17.2301 7.9999 17.3801ZM7.6299 17.0001H7.4699C6.7899 16.4601 7.7799 16.6201 8.2199 16.8601C9.1899 17.0001 7.9999 17.2501 7.6299 17.0001ZM10.3299 18.6501C10.4899 18.3801 9.6499 18.4901 10.3299 18.6501ZM10.1599 18.1301C10.1099 18.1301 10.0599 18.0201 10.1599 18.1301ZM9.2999 16.7901C8.7099 16.6501 9.5099 16.6001 9.6599 16.7901C10.6799 17.0001 9.5999 17.0501 9.2999 16.7901ZM9.5099 18.0001H9.3999L9.2699 17.9401C8.7099 17.3501 10.4599 18.2201 9.5099 18.0001ZM9.2299 18.6901C9.2299 18.5501 9.0799 18.7501 9.2299 18.6901ZM9.5199 17.5001L9.3599 17.4501C8.6999 17.0001 10.1999 17.5401 9.5199 17.4501V17.5001ZM9.6799 19.2201C9.9399 18.9701 9.2799 19.0601 9.6799 19.2201ZM9.7799 18.4801C10.1399 18.3501 9.1999 18.3401 9.7799 18.4801ZM9.9099 17.8701C9.9599 17.6601 9.4699 17.8101 9.9099 17.8701ZM9.1899 16.9901C9.6499 17.0501 9.6599 17.2601 9.1899 17.1301C9.0999 17.1301 8.9499 17.1301 8.9099 16.9601C8.1499 16.4601 8.9399 16.7101 9.1899 16.9401V16.9901ZM9.1299 18.9901C9.1299 18.7701 8.9299 19.1101 9.1299 18.9901ZM8.8199 18.4801C9.2199 18.2201 8.2899 18.4801 8.8199 18.4801ZM8.6999 18.8301C8.8699 18.7501 8.4399 18.7301 8.6999 18.8301ZM8.9999 17.9401C9.2499 17.7601 8.4799 17.8001 8.9999 17.9401ZM8.8399 17.3701C8.7799 17.2101 8.5599 17.3701 8.8399 17.3701ZM8.2999 16.4201C9.4799 16.8001 7.7299 15.9601 8.2999 16.4201ZM8.2399 16.6101C8.2399 16.6701 8.1299 16.5201 8.2399 16.6101ZM11.8899 20.3901C11.0001 20.2313 10.1379 19.9451 9.3299 19.5401L8.9999 19.3401C8.4299 19.0301 8.4999 18.9601 9.0599 19.2701C9.2499 19.4301 10.6499 20.0001 9.9899 19.6201C9.6999 19.5501 8.0899 18.6701 9.1499 19.0501C10.0332 19.5184 10.9488 19.9228 11.8899 20.2601C12.6853 20.4489 13.5073 20.4996 14.3199 20.4101C14.9699 20.7401 15.6499 20.3301 16.3199 20.6201C14.8344 20.7992 13.3291 20.7214 11.8699 20.3901H11.8899ZM10.6399 19.6901C10.7999 19.4601 10.1299 19.6001 10.6399 19.6901ZM11.3699 18.6901C11.9699 18.4601 10.7899 18.5801 11.3699 18.6901ZM12.2099 20.0001C13.2099 20.3701 11.6099 20.1201 11.2799 19.9101C10.3599 19.5301 11.9999 20.0001 12.2099 20.0001ZM11.1499 18.9001C12.0499 18.9001 10.3399 18.7801 11.1499 18.9001ZM12.6699 19.7501C12.6699 19.4501 12.3799 19.9801 12.6699 19.7501ZM12.9599 19.8001C12.9599 19.6301 12.8099 19.8601 12.9599 19.8001ZM13.2299 19.4201C13.2299 19.1901 13.0699 19.6201 13.2299 19.4201ZM13.5399 19.4201C14.0099 19.0301 13.0899 19.5901 13.5399 19.4201ZM13.6799 19.4201C14.1699 19.0001 14.1899 19.2001 14.1799 19.5501C13.7499 20.0301 14.0099 19.3501 13.7399 19.6101C13.4699 19.8701 13.5499 19.5101 13.6799 19.4401V19.4201ZM14.5099 19.8701C15.0199 19.3301 14.0099 19.8701 14.5099 19.8701ZM14.5099 20.0501C14.5099 19.9201 14.3099 20.1001 14.5099 20.0501ZM14.3499 19.7001C15.2899 19.0901 13.9599 19.4401 14.3499 19.7001ZM14.9199 19.7901H14.8399C14.8099 19.5601 15.3799 19.5201 14.9199 19.8101V19.7901ZM15.0699 19.9801C15.5399 19.5801 14.7699 19.9001 15.0699 19.9801ZM15.4299 19.8801C15.9099 19.4801 14.9199 20.0601 15.4299 19.8801ZM15.6499 19.9901L15.5299 20.0701C15.2999 19.9301 16.2399 19.5901 15.6499 20.0001V19.9901ZM15.2199 19.4601C14.6799 19.2801 13.8199 18.7001 13.2199 19.0901C12.4199 19.6001 13.6299 18.5301 12.9799 19.0101C12.3199 19.8001 12.5299 18.5101 11.8899 18.9001C11.8899 18.7801 11.3199 18.7401 11.7199 18.5301C11.3599 18.5301 11.5899 18.4801 11.7199 18.1901C11.5599 18.1901 10.7199 18.1901 10.3599 17.9001C9.9599 17.3801 10.4299 17.6001 10.8399 17.6701C10.1699 17.7901 11.0799 18.1701 11.5199 17.9601C11.3199 17.8701 11.0899 17.4401 10.5199 17.0601C9.83145 16.6827 9.12006 16.3487 8.3899 16.0601C7.5499 15.5601 8.5699 15.8801 8.8599 16.1401C9.6999 16.5101 9.3699 15.6301 8.8599 15.4001C8.3199 15.4001 8.1899 14.8101 7.7599 14.8401C8.4299 14.9501 8.8999 14.6701 8.1499 13.9901C7.3999 13.3101 8.4499 14.6201 8.0399 14.4301C7.8499 14.1801 7.9899 13.8301 7.3899 13.7001C7.3899 13.9301 7.3099 14.2801 7.1799 13.8001C7.0099 13.8001 6.8199 14.0101 6.6799 13.5201C6.8099 12.9501 6.1199 12.8201 6.0099 12.4601C6.6099 12.8401 6.8799 12.5401 6.4599 12.1301C6.0399 11.7201 6.1299 12.0201 5.9699 12.1301C5.3799 12.7301 5.9099 11.1301 5.6499 11.5701C5.3899 11.5701 5.5399 11.8601 5.5499 12.2201C4.6899 12.0101 5.7499 12.6701 5.9999 13.0301C5.6099 12.6301 5.6799 13.3401 5.3499 13.0301C5.2399 12.7301 5.2299 12.2601 4.6799 12.1801C5.2999 11.9601 4.3199 11.5301 4.3999 11.5101C4.7499 11.1901 4.7999 10.7501 5.2199 11.4401C4.6899 11.4401 5.2199 12.3201 5.3399 12.0401C5.3399 11.5701 5.5599 11.0401 4.7499 10.8501C4.5099 11.1701 4.0999 10.2201 4.5699 10.4201C4.5099 9.79014 5.3099 10.1601 5.2599 9.89014C5.6799 9.71014 4.7599 9.12014 5.2599 8.89014C5.6399 9.13014 6.6199 8.53013 5.9599 8.45013C6.3799 8.45013 6.7099 8.63013 6.7499 8.21013C7.0799 8.28013 7.9899 8.57013 7.1699 8.12013C7.52981 7.97377 7.91185 7.88925 8.2999 7.87013C9.0899 7.26013 8.9299 8.87013 8.7499 9.32013C9.0499 9.11013 8.9899 10.2601 8.8899 10.6901C9.0499 10.4701 9.1199 11.0501 8.8899 11.4601C8.8899 11.3901 9.2899 11.3301 9.0099 11.8101C8.7899 11.3401 8.6999 12.8101 8.8399 12.1301C9.2099 11.5201 9.1199 12.1301 9.2299 12.3701C9.3099 12.9201 9.5499 13.4301 9.6299 13.9301C9.9799 14.2801 9.4799 14.0401 9.4799 14.5201C9.5899 14.3801 10.0599 14.7101 10.0499 15.2001C10.0499 14.4201 10.1399 15.0201 10.5199 15.2001C10.7756 15.7236 11.1132 16.203 11.5199 16.6201C11.8899 17.0501 11.5199 16.7501 11.6599 17.0101C11.9067 17.3507 12.2184 17.6392 12.5771 17.8589C12.9358 18.0785 13.3344 18.2251 13.7499 18.2901C13.9039 18.5579 14.1389 18.7699 14.421 18.8957C14.7031 19.0215 15.0178 19.0545 15.3199 18.9901C14.7199 19.3601 16.9999 19.4601 16.2299 19.6601C15.9999 19.8201 15.6099 19.4601 15.2199 19.4801V19.4601ZM8.6999 15.8901C8.6999 15.6901 8.4599 15.8901 8.6999 15.8901ZM9.0799 16.1101C8.9599 15.8701 8.8999 16.1101 9.0799 16.1101ZM6.4699 12.4601C6.5699 12.3701 6.2299 12.3901 6.4699 12.4601ZM5.8799 12.4601C5.8799 12.1201 5.6199 12.4601 5.8799 12.4601ZM5.5799 12.3801C5.5799 12.2701 5.4799 12.4301 5.5799 12.3801ZM16.5799 20.6301C16.8999 20.4101 16.1899 20.5601 16.5799 20.6301ZM17.3099 19.5801H17.0099C17.0699 19.1301 18.3399 19.4801 18.8599 19.4901C18.6999 19.8301 17.7299 19.5301 17.3099 19.6201V19.5801ZM19.3099 19.5801C19.4299 19.2601 19.0399 19.5801 19.3099 19.5801ZM20.3099 19.4901C20.3099 19.1901 20.0599 19.6201 20.3099 19.4901ZM20.7899 19.6001C20.2699 19.4801 21.0299 19.4801 21.1899 19.4601C22.1299 19.4801 21.1899 19.6201 20.7199 19.6201L20.7899 19.6001Z" fill="black"/>
<path d="M6.51002 7.11082C7.51002 6.91082 6.13002 6.78082 5.82002 7.11082C6.00002 7.24082 6.23002 6.90082 6.51002 7.11082ZM5.69002 7.24082C5.87002 7.02082 5.69002 7.43082 5.69002 7.24082ZM8.31002 6.76082C8.98002 6.65082 8.42002 6.35082 8.22002 6.86082C8.29002 7.00082 8.33002 6.81082 8.31002 6.76082ZM7.69002 6.86082C8.62002 7.22082 7.64002 5.86082 7.69002 6.86082ZM4.77002 7.79082C4.88829 7.78483 5.00497 7.82019 5.10002 7.89082C5.85002 8.41082 5.00002 7.05082 4.77002 7.79082Z" fill="black"/>
<path d="M4.81006 7.43047C5.10006 7.22047 4.97006 7.56047 4.81006 7.43047ZM5.18006 7.44047L5.32006 7.56047C6.00006 7.62047 5.21006 7.10047 5.18006 7.44047ZM10.6901 16.0005C10.7801 16.3005 10.6901 15.6105 10.6901 16.0005ZM5.91006 11.0005C6.09006 10.8205 6.01006 11.1805 5.91006 11.0005ZM6.00006 11.6105C6.19006 11.9505 6.00006 11.1005 6.00006 11.6105ZM6.21006 11.1205C6.54006 11.3305 5.93006 10.6005 6.21006 11.1205ZM5.80006 10.3005C5.87006 10.4505 6.04006 10.4605 6.17006 10.5005C7.49006 11.1105 5.22006 9.50047 5.80006 10.3005ZM6.34006 11.7305C6.65006 12.2605 6.52006 11.3605 6.34006 11.7305ZM6.82006 11.5705C7.19006 12.4905 6.59006 11.4505 6.52006 11.1405C6.52863 11.4919 6.62488 11.8357 6.80006 12.1405C7.14006 12.6505 6.99006 11.8605 7.35006 12.3705C7.15006 11.9205 7.45006 12.1705 7.41006 11.9705C7.37006 11.7705 6.41006 10.8005 6.82006 11.5705ZM7.18006 13.3505C7.36006 13.3505 7.27006 13.6605 7.18006 13.3505ZM5.85006 9.00047C5.96006 9.00047 5.91006 9.14047 5.85006 9.00047ZM6.52006 9.42047C6.84006 9.83047 6.69006 9.06047 6.52006 9.42047ZM5.63006 10.5605L5.77006 10.7105C6.76006 11.0005 4.72006 9.76047 5.63006 10.5605ZM6.33006 10.1905C7.33006 10.6005 6.24006 9.92047 5.89006 9.99047C6.00006 10.1205 6.21006 10.0605 6.33006 10.1905ZM6.15006 9.75047C6.33006 9.93047 6.97006 10.2605 6.46006 9.81047C6.78006 9.75047 6.46006 9.65047 6.22006 9.49047C5.78006 8.82047 6.29006 9.55047 6.15006 9.75047Z" fill="black"/>
<path d="M5.50993 10.6408C4.97993 10.2008 5.66993 10.8508 5.44993 10.8408C4.89993 10.4408 5.12993 10.7308 5.44993 11.0408C5.77993 11.5408 6.04993 10.7408 5.50993 10.6408ZM7.64993 11.2808C7.76993 11.3908 7.58993 10.6008 7.64993 11.2808ZM8.66993 7.7808C8.73993 7.6808 8.66993 7.9008 8.66993 7.7808ZM8.99993 12.4708C8.99993 12.6808 8.99993 12.2908 8.99993 12.4708ZM8.70993 11.2508C8.80993 10.4708 8.78993 11.7108 8.70993 11.2508ZM8.84993 11.4708V11.5708C9.05993 11.0608 8.88993 10.7808 8.84993 11.4708ZM8.74993 8.7708C8.60993 9.4708 8.47993 9.1808 8.66993 8.6608C8.61993 7.9908 8.21993 9.0708 8.39993 9.3808C8.68993 9.8508 8.99993 8.2208 8.74993 8.7708ZM9.75993 14.7508C9.88993 15.1008 9.86993 14.3308 9.75993 14.7508ZM8.40993 10.4708C8.40993 10.6708 8.40993 10.3308 8.40993 10.4708ZM9.04993 12.1708C9.15993 11.7908 9.04993 12.4308 9.04993 12.1708ZM9.49993 14.0008L9.56993 14.1108C9.70993 13.6208 9.20993 13.3208 9.49993 14.0008ZM7.93993 13.4808C8.20993 13.7008 7.80993 13.2508 7.93993 13.4808ZM9.16993 12.6308C9.24993 12.9208 9.16993 12.2108 9.16993 12.6308ZM8.13993 9.8108C8.28993 10.1408 8.08993 9.5408 8.13993 9.8108Z" fill="black"/>
<path d="M8.30004 10.2302C8.54004 10.5702 8.04004 9.59016 8.30004 10.2302ZM8.24003 11.3802C8.11004 10.3802 7.82004 11.8302 8.24003 12.0702C8.37003 12.4102 8.49004 12.2702 8.54004 11.8802C8.22004 11.8802 8.62003 11.2602 8.24003 11.3802Z" fill="black"/>
</svg>
