<svg width="256" height="256" viewBox="0 0 256 256" fill="none" xmlns="http://www.w3.org/2000/svg">
<g clip-path="url(#clip0_2012_189)">
<path d="M196 0H60C26.8629 0 0 26.8629 0 60V196C0 229.137 26.8629 256 60 256H196C229.137 256 256 229.137 256 196V60C256 26.8629 229.137 0 196 0Z" fill="#F4F2ED"/>
<path d="M161.009 92.3898L178.394 75.0037L179.553 67.6837C147.873 38.8767 97.513 42.1438 68.953 74.4998C61.021 83.4858 55.136 94.6898 51.998 106.26L58.224 105.382L92.994 99.6488L95.678 96.9038C111.144 79.9178 137.295 77.6318 155.153 92.0838L161.009 92.3898Z" fill="#EA4335"/>
<path d="M203.16 105.75C199.164 91.034 190.96 77.8049 179.553 67.6855L155.153 92.0855C160.238 96.2406 164.314 101.496 167.072 107.456C169.83 113.416 171.198 119.924 171.074 126.49V130.821C183.067 130.821 192.79 140.543 192.79 152.536C192.79 164.53 183.067 174.009 171.074 174.009H127.581L123.311 178.645V204.692L127.581 208.779H171.074C202.269 209.022 227.755 184.174 227.998 152.979C228.071 143.669 225.841 134.486 221.508 126.246C217.175 118.006 210.872 110.965 203.16 105.75Z" fill="#4285F4"/>
<path d="M84.1488 208.779H127.581V174.009H84.1488C81.0741 174.008 78.0359 173.342 75.2428 172.057L69.0818 173.948L51.5748 191.333L50.0498 197.25C59.8678 204.663 71.8458 208.832 84.1488 208.779Z" fill="#34A853"/>
<path d="M84.149 95.9896C52.953 96.1756 27.815 121.616 28 152.811C28.0514 161.407 30.0642 169.879 33.8852 177.58C37.7062 185.281 43.2346 192.008 50.049 197.249L75.242 172.056C64.312 167.118 59.455 154.254 64.393 143.325C69.331 132.395 82.195 127.538 93.123 132.475C97.9394 134.651 101.797 138.508 103.973 143.325L129.166 118.132C123.878 111.219 117.063 105.623 109.254 101.781C101.444 97.9399 92.8513 95.9573 84.148 95.9886" fill="#FBBC05"/>
</g>
<defs>
<clipPath id="clip0_2012_189">
<rect width="256" height="256" fill="white"/>
</clipPath>
</defs>
</svg>
