<svg width="256" height="330" viewBox="0 0 256 330" fill="none" xmlns="http://www.w3.org/2000/svg">
<g clip-path="url(#clip0_2051_70)">
<path opacity="0.993" d="M134.129 0.0288423C135.006 -0.084491 135.779 0.136176 136.448 0.690842C161.072 30.7404 184.287 61.9163 206.021 94.1178C222.115 118.349 235.809 143.969 247.103 170.98C265.14 219.088 255.753 260.943 218.943 296.544C186.734 323.764 149.628 334.366 107.625 328.349C57.4171 318.112 23.2928 289.068 5.25209 241.216C0.553427 225.639 -0.992573 209.737 0.614094 193.51C3.29009 165.579 9.91609 138.633 20.4921 112.672C24.8988 102.08 30.6414 92.3618 37.7201 83.5178C43.489 90.3888 49.0141 97.4608 54.2851 104.721C56.7251 107.271 59.2651 109.701 61.9051 112.01C82.0604 72.0118 106.135 34.6848 134.13 0.0288423" fill="#FF5B11"/>
<path d="M129.49 53.7002C153.803 81.9002 175.78 111.938 195.42 143.814C201.566 154.336 206.67 165.431 210.66 176.944C218.998 209.748 210.053 236.805 183.824 258.113C158.457 275.963 130.628 281.263 100.336 274.015C67.6701 263.879 48.7857 241.902 43.6831 208.086C42.4451 197.424 43.5497 187.044 46.9971 176.944C51.8882 164.511 57.8751 152.537 64.8871 141.164L84.7651 112.009C99.8032 92.6722 114.712 73.2351 129.491 53.6992" fill="#FF9758"/>
</g>
<defs>
<clipPath id="clip0_2051_70">
<rect width="256" height="330" fill="white"/>
</clipPath>
</defs>
</svg>
