<svg width="256" height="249" viewBox="0 0 256 249" fill="none" xmlns="http://www.w3.org/2000/svg">
<g clip-path="url(#clip0_2012_222)">
<path d="M82.0852 244.934C76.1392 244.934 70.5242 242.292 66.7252 237.502L8.92022 165.657C5.12122 160.867 3.63522 154.757 5.12122 148.81L25.7662 59.1278C27.0872 53.1818 31.0512 48.3918 36.5022 45.7498L120.073 5.77983C122.716 4.45983 125.689 3.79883 128.662 3.79883C131.635 3.79883 134.607 4.45883 137.25 5.78083L220.822 45.5848C226.272 48.2268 230.236 53.0168 231.557 58.9628L252.202 148.645C253.524 154.591 252.202 160.702 248.404 165.492L190.597 237.337C186.798 241.961 181.183 244.769 175.237 244.769L82.0852 244.934Z" fill="#326DE6"/>
<path d="M128.495 7.92706C130.808 7.92706 133.12 8.42206 135.267 9.41306L218.839 49.2171C223.133 51.3641 226.436 55.3281 227.427 59.9531L248.072 149.635C249.228 154.425 248.072 159.38 244.934 163.178L187.128 235.024C184.155 238.822 179.53 240.969 174.741 240.969H82.0851C77.2951 240.969 72.6711 238.822 69.6981 235.024L11.8921 163.178C8.91909 159.38 7.76209 154.425 8.75409 149.635L29.3991 59.9531C30.5551 55.1631 33.6931 51.1991 37.9871 49.2171L121.56 9.24906C123.707 8.42306 126.184 7.92806 128.496 7.92806M128.496 0.165062C125.028 0.165062 121.56 0.991063 118.256 2.47706L34.6851 42.4471C28.0781 45.5851 23.4541 51.3651 21.8021 58.4671L1.15609 148.149C-0.494914 155.251 1.15609 162.518 5.78109 168.299L63.5871 240.144C68.0471 245.759 74.8181 248.897 81.9201 248.897H174.575C181.677 248.897 188.449 245.759 192.908 240.144L250.715 168.298C255.339 162.683 256.991 155.251 255.339 148.148L234.694 58.4661C233.043 51.3641 228.418 45.5841 221.812 42.4461L138.57 2.47506C135.432 0.990063 131.964 0.164062 128.495 0.164062" fill="white"/>
<path d="M212.232 142.534C212.067 142.534 212.067 142.534 212.232 142.534H212.067C211.902 142.534 211.737 142.534 211.737 142.369C211.407 142.369 211.077 142.204 210.746 142.204C209.59 142.039 208.599 141.874 207.608 141.874C207.112 141.874 206.617 141.874 205.956 141.708H205.791C202.323 141.378 199.515 141.048 196.872 140.222C195.716 139.726 195.386 139.066 195.055 138.405C195.055 138.24 194.89 138.24 194.89 138.075L192.743 137.415C193.758 129.646 193.367 121.757 191.587 114.126C189.785 106.432 186.655 99.1101 182.338 92.4904L183.99 91.0044V90.6744C183.99 89.8484 184.155 89.0224 184.815 88.1964C186.797 86.3794 189.275 84.8934 192.248 83.0764C192.743 82.7464 193.238 82.5814 193.734 82.2504C194.725 81.7554 195.551 81.2604 196.542 80.5994C196.707 80.4344 197.037 80.2694 197.368 79.9394C197.533 79.7734 197.698 79.7734 197.698 79.6084C200.01 77.6264 200.506 74.3234 198.854 72.1754C198.028 71.0194 196.542 70.3594 195.055 70.3594C193.735 70.3594 192.578 70.8544 191.422 71.6804L191.092 72.0104C190.762 72.1754 190.596 72.5064 190.266 72.6714C189.44 73.4974 188.779 74.1574 188.119 74.9834C187.789 75.3134 187.459 75.8094 186.963 76.1394C184.65 78.6174 182.503 80.5994 180.356 82.0854C179.862 82.4154 179.366 82.5807 178.87 82.5814C178.54 82.5814 178.209 82.5814 177.879 82.4154H177.549L175.566 83.7374C173.419 81.4254 171.107 79.4434 168.795 77.4614C158.84 69.6796 146.858 64.9212 134.276 63.7524L134.111 61.6054L133.781 61.2754C133.285 60.7794 132.625 60.2844 132.459 59.1284C132.294 56.4854 132.625 53.5124 132.955 50.2094V50.0444C132.955 49.5484 133.12 48.8884 133.285 48.3924C133.45 47.4024 133.615 46.4104 133.781 45.2544V43.7684C133.781 40.7954 131.468 38.3184 128.661 38.3184C127.339 38.3184 126.018 38.9784 125.027 39.9694C124.037 40.9604 123.541 42.2814 123.541 43.7684V45.0894C123.541 46.2454 123.706 47.2364 124.036 48.2274C124.201 48.7234 124.201 49.2184 124.366 49.8794V50.0444C124.696 53.3474 125.192 56.3204 124.862 58.9634C124.697 60.1194 124.036 60.6144 123.541 61.1104L123.211 61.4404L123.045 63.5874C120.072 63.9174 117.099 64.2474 114.126 64.9084C101.409 67.7164 90.1782 74.1584 81.4252 83.4064L79.7732 82.2504H79.4432C79.1132 82.2504 78.7822 82.4154 78.4522 82.4154C77.9569 82.4154 77.4612 82.2504 76.9652 81.9204C74.8182 80.4344 72.6712 78.2864 70.3592 75.8094C70.0292 75.4794 69.6992 74.9834 69.2032 74.6534C68.5422 73.8274 67.8812 73.1664 67.0552 72.3414C66.8902 72.1754 66.5602 72.0114 66.2302 71.6804C66.0652 71.5154 65.9002 71.5154 65.9002 71.3504C64.877 70.5048 63.5935 70.0379 62.2662 70.0284C60.7792 70.0284 59.2932 70.6894 58.4672 71.8454C56.8152 73.9924 57.3112 77.2954 59.6232 79.2774C59.7882 79.2774 59.7882 79.4434 59.9532 79.4434C60.2832 79.6084 60.4492 79.9384 60.7792 80.1034C61.7702 80.7634 62.5962 81.2594 63.5872 81.7554C64.0832 81.9204 64.5782 82.2504 65.0742 82.5814C68.0462 84.3974 70.5242 85.8844 72.5062 87.7014C73.3322 88.5264 73.3322 89.3524 73.3322 90.1784V90.5084L74.9832 91.9954C74.6532 92.4904 74.3232 92.8214 74.1572 93.3164C65.8992 106.364 62.7612 121.724 64.9082 136.919L62.7612 137.579C62.7612 137.745 62.5962 137.745 62.5962 137.909C62.2662 138.57 61.7702 139.231 60.7792 139.726C58.3022 140.552 55.3292 140.883 51.8612 141.213H51.6952C51.2002 141.213 50.5392 141.213 50.0442 141.378C49.0532 141.378 48.0622 141.543 46.9062 141.708C46.5762 141.708 46.2462 141.874 45.9152 141.874C45.7502 141.874 45.5852 141.874 45.4192 142.039C42.4462 142.699 40.6292 145.507 41.1252 148.149C41.6212 150.462 43.7682 151.949 46.4102 151.949C46.9062 151.949 47.2362 151.949 47.7322 151.783C47.8972 151.783 48.0622 151.783 48.0622 151.618C48.3922 151.618 48.7222 151.453 49.0522 151.453C50.2092 151.123 51.0352 150.793 52.0262 150.297C52.5212 150.132 53.0162 149.801 53.5122 149.637H53.6772C56.8152 148.48 59.6232 147.489 62.2662 147.159H62.5962C63.5872 147.159 64.2482 147.654 64.7432 147.985C64.9082 147.985 64.9082 148.15 65.0732 148.15L67.3862 147.82C71.3502 160.041 78.9472 170.942 89.0222 178.87C91.3342 180.686 93.6462 182.173 96.1242 183.66L95.1332 185.806C95.1332 185.972 95.2982 185.972 95.2982 186.136C95.6282 186.797 95.9582 187.623 95.6282 188.779C94.6382 191.257 93.1512 193.734 91.3342 196.542V196.707C91.0042 197.203 90.6742 197.533 90.3442 198.028C89.6832 198.854 89.1872 199.68 88.5262 200.671C88.3612 200.836 88.1962 201.166 88.0312 201.497C88.0312 201.662 87.8662 201.827 87.8662 201.827C86.5452 204.635 87.5362 207.773 90.0132 208.929C90.6732 209.26 91.3339 209.425 91.9952 209.425C93.9772 209.425 95.9592 208.103 96.9502 206.286C96.9502 206.121 97.1152 205.956 97.1152 205.956C97.2802 205.626 97.4452 205.296 97.6102 205.13C98.1062 203.974 98.2712 203.148 98.6012 202.157L99.0972 200.671C100.253 197.368 101.079 194.725 102.565 192.413C103.225 191.422 104.052 191.257 104.712 190.926C104.877 190.926 104.877 190.926 105.042 190.761L106.199 188.614C113.466 191.422 121.394 192.908 129.321 192.908C134.111 192.908 139.066 192.413 143.691 191.257C146.602 190.608 149.47 189.78 152.279 188.779L153.269 190.596C153.435 190.596 153.435 190.596 153.6 190.761C154.426 190.926 155.086 191.257 155.747 192.248C157.068 194.56 158.059 197.368 159.215 200.506V200.671L159.711 202.157C160.041 203.148 160.206 204.139 160.701 205.13C160.867 205.46 161.032 205.626 161.197 205.956C161.197 206.121 161.363 206.286 161.363 206.286C162.353 208.268 164.335 209.425 166.317 209.425C166.979 209.425 167.639 209.26 168.299 208.929C169.455 208.269 170.446 207.277 170.777 205.956C171.107 204.635 171.107 203.148 170.447 201.827C170.447 201.662 170.281 201.662 170.281 201.497C170.116 201.167 169.951 200.837 169.786 200.671C169.29 199.68 168.63 198.854 167.969 198.028C167.639 197.533 167.309 197.203 166.979 196.708V196.542C165.161 193.734 163.509 191.257 162.684 188.779C162.354 187.623 162.684 186.963 162.849 186.137C162.849 185.972 163.014 185.972 163.014 185.807L162.188 183.825C170.942 178.705 178.374 171.437 183.99 162.519C186.963 157.894 189.275 152.774 190.926 147.654L192.908 147.984C193.074 147.984 193.074 147.819 193.238 147.819C193.899 147.489 194.395 146.994 195.386 146.994H195.716C198.359 147.324 201.166 148.314 204.305 149.471H204.47C204.965 149.636 205.46 149.966 205.956 150.131C206.947 150.627 207.773 150.957 208.929 151.288C209.259 151.288 209.589 151.453 209.92 151.453C210.085 151.453 210.25 151.453 210.415 151.618C210.911 151.783 211.241 151.783 211.737 151.783C214.214 151.783 216.361 150.132 217.022 147.985C217.022 146.003 215.205 143.36 212.232 142.535M135.762 134.442L128.495 137.911L121.228 134.442L119.412 126.68L124.366 120.404H132.459L137.414 126.68L135.762 134.442ZM178.87 117.266C180.151 122.728 180.541 128.36 180.026 133.946L154.756 126.68C152.444 126.02 151.123 123.707 151.618 121.395C151.783 120.734 152.114 120.073 152.609 119.578L172.594 101.575C175.401 106.2 177.548 111.486 178.87 117.266ZM164.666 91.6654L143.03 107.025C141.213 108.181 138.735 107.85 137.249 106.034C136.754 105.538 136.589 104.877 136.423 104.217L134.937 77.2954C146.185 78.5906 156.664 83.6555 164.666 91.6654ZM116.769 78.1204C118.586 77.7904 120.237 77.4604 122.054 77.1304L120.568 103.555C120.403 105.867 118.586 107.849 116.108 107.849C115.448 107.849 114.622 107.684 114.126 107.354L92.1602 91.6654C98.9322 84.8934 107.355 80.2674 116.769 78.1204ZM84.2322 101.574L103.886 119.081C105.703 120.568 105.868 123.375 104.382 125.192C103.886 125.852 103.226 126.348 102.4 126.514L76.8002 133.946C75.8092 122.715 78.2862 111.319 84.2322 101.574ZM79.7722 146.333L106.034 141.873C108.181 141.708 110.163 143.195 110.658 145.342C110.823 146.332 110.823 147.159 110.493 147.985L100.418 172.263C91.1692 166.317 83.7362 157.233 79.7722 146.333ZM140.058 179.2C136.259 180.026 132.46 180.521 128.496 180.521C122.716 180.521 117.1 179.531 111.816 177.879L124.863 154.261C126.184 152.774 128.331 152.114 130.148 153.105C130.92 153.577 131.593 154.194 132.13 154.921L144.847 177.879C143.361 178.374 141.71 178.705 140.058 179.2ZM172.263 156.243C168.134 162.849 162.683 168.134 156.408 172.263L146.003 147.323C145.507 145.342 146.333 143.195 148.315 142.203C148.975 141.873 149.801 141.708 150.627 141.708L177.053 146.168C176.062 149.801 174.41 153.105 172.263 156.243Z" fill="white"/>
</g>
<defs>
<clipPath id="clip0_2012_222">
<rect width="256" height="249" fill="white"/>
</clipPath>
</defs>
</svg>
