<svg width="24" height="24" viewBox="0 0 24 24" fill="none" xmlns="http://www.w3.org/2000/svg">
<g clip-path="url(#clip0_2052_88)">
<path d="M18.375 0H5.625C2.5184 0 0 2.5184 0 5.625V18.375C0 21.4816 2.5184 24 5.625 24H18.375C21.4816 24 24 21.4816 24 18.375V5.625C24 2.5184 21.4816 0 18.375 0Z" fill="#023430"/>
<path d="M16.0475 10.0867C15.0596 5.72906 13.0009 4.569 12.4757 3.74897C12.2591 3.38772 12.0672 3.0122 11.9015 2.625C11.8737 3.01219 11.8227 3.25594 11.4936 3.54956C10.833 4.13859 8.02705 6.42516 7.79089 11.3764C7.57086 15.9928 11.1846 18.8393 11.662 19.1336C12.0291 19.3143 12.4762 19.1375 12.6944 18.9716C14.4364 17.7761 16.8165 14.5888 16.0493 10.0867" fill="#10AA50"/>
<path d="M12.0512 16.6758C11.9602 17.8184 11.8951 18.4823 11.6641 19.1353C11.6641 19.1353 11.8157 20.2231 11.9222 21.3754H12.2989C12.3888 20.5639 12.526 19.7584 12.7099 18.963C12.2222 18.723 12.0699 17.6784 12.0512 16.6758Z" fill="#B8C4C2"/>
<path d="M12.7091 18.9629C12.2162 18.7352 12.0736 17.6686 12.0516 16.675C12.1735 15.036 12.2091 13.3917 12.1581 11.7489C12.1323 10.887 12.1703 3.76534 11.9458 2.72266C12.0994 3.0758 12.2764 3.41831 12.4756 3.74791C13.0008 4.56859 15.0602 5.72866 16.0474 10.0863C16.8164 14.5807 14.4492 17.7596 12.7091 18.9629Z" fill="#12924F"/>
</g>
<defs>
<clipPath id="clip0_2052_88">
<rect width="24" height="24" fill="white"/>
</clipPath>
</defs>
</svg>
