<svg width="256" height="310" viewBox="0 0 256 310" fill="none" xmlns="http://www.w3.org/2000/svg">
<g clip-path="url(#clip0_2012_157)">
<path d="M254.313 235.52L148 9.74976C146.679 6.9716 144.632 4.60227 142.075 2.89258C139.517 1.1829 136.545 0.196485 133.473 0.037759C130.395 -0.168498 127.32 0.473087 124.581 1.89274C121.843 3.31239 119.546 5.45577 117.94 8.08976L2.63317 194.849C0.880455 197.669 -0.0322791 200.93 0.00190261 204.25C0.0360844 207.571 1.01577 210.812 2.82617 213.596L59.2002 300.897C61.3329 304.174 64.468 306.674 68.1378 308.023C71.8075 309.373 75.8153 309.5 79.5632 308.386L243.162 259.994C245.625 259.274 247.905 258.033 249.848 256.356C251.791 254.678 253.35 252.604 254.422 250.272C255.479 247.952 256.017 245.43 256 242.881C255.982 240.332 255.41 237.817 254.321 235.512L254.313 235.52ZM230.511 245.203L91.6882 286.253C87.4532 287.513 83.3882 283.842 84.2692 279.568L133.867 42.0838C134.794 37.6408 140.93 36.9368 142.87 41.0488L234.684 236.022C235.09 236.89 235.303 237.837 235.307 238.796C235.312 239.755 235.109 240.703 234.711 241.576C234.314 242.449 233.732 243.225 233.006 243.851C232.279 244.477 231.426 244.938 230.504 245.202L230.511 245.203Z" fill="black"/>
</g>
<defs>
<clipPath id="clip0_2012_157">
<rect width="256" height="310" fill="white"/>
</clipPath>
</defs>
</svg>
