<svg width="136" height="135" viewBox="0 0 136 135" fill="none" xmlns="http://www.w3.org/2000/svg">
<g clip-path="url(#clip0_2012_136)">
<path d="M67.4242 0.0390625C32.9822 0.0390625 35.1327 14.9235 35.1327 14.9235L35.171 30.3442H68.0384V34.9739H22.1166C22.1166 34.9739 0.0771484 32.483 0.0771484 67.1145C0.0771484 101.747 19.3137 100.519 19.3137 100.519H30.794V84.4479C30.794 84.4479 30.1751 65.2779 49.7235 65.2779H82.3221C82.3221 65.2779 100.637 65.5728 100.637 47.6385V17.9851C100.637 17.9851 103.419 0.0390625 67.4242 0.0390625ZM49.3012 10.4092C50.0779 10.4085 50.8471 10.5604 51.5647 10.8563C52.2824 11.1522 52.9345 11.5862 53.4837 12.1335C54.0329 12.6808 54.4684 13.3306 54.7653 14.0458C55.0622 14.761 55.2147 15.5275 55.214 16.3015C55.2147 17.0755 55.0622 17.8421 54.7653 18.5573C54.4684 19.2725 54.0329 19.9223 53.4837 20.4696C52.9345 21.0169 52.2824 21.4509 51.5647 21.7468C50.8471 22.0426 50.0779 22.1946 49.3012 22.1939C48.5245 22.1946 47.7553 22.0426 47.0376 21.7468C46.3199 21.4509 45.6678 21.0169 45.1186 20.4696C44.5694 19.9223 44.1339 19.2725 43.837 18.5573C43.5401 17.8421 43.3877 17.0755 43.3884 16.3015C43.3877 15.5275 43.5401 14.761 43.837 14.0458C44.1339 13.3306 44.5694 12.6808 45.1186 12.1335C45.6678 11.5862 46.3199 11.1522 47.0376 10.8563C47.7553 10.5604 48.5245 10.4085 49.3012 10.4092Z" fill="url(#paint0_linear_2012_136)"/>
<path d="M68.4022 134.538C102.844 134.538 100.694 119.653 100.694 119.653L100.655 104.233H67.7875V99.6035H113.709C113.709 99.6035 135.749 102.094 135.749 67.4619C135.749 32.8299 116.512 34.0581 116.512 34.0581H105.032V50.1284C105.032 50.1284 105.651 69.2984 86.1024 69.2984H53.5038C53.5038 69.2984 35.189 69.0035 35.189 86.9384V116.592C35.189 116.592 32.4079 134.538 68.4017 134.538M86.5247 124.169C85.7481 124.169 84.9789 124.018 84.2612 123.722C83.5435 123.426 82.8914 122.992 82.3422 122.444C81.793 121.897 81.3575 121.247 81.0606 120.532C80.7637 119.817 80.6112 119.05 80.6119 118.276C80.6112 117.502 80.7636 116.736 81.0604 116.021C81.3573 115.305 81.7928 114.655 82.342 114.108C82.8912 113.561 83.5433 113.127 84.2611 112.831C84.9788 112.535 85.748 112.383 86.5247 112.384C87.3014 112.383 88.0706 112.535 88.7883 112.831C89.506 113.127 90.1581 113.561 90.7073 114.108C91.2565 114.655 91.692 115.305 91.9889 116.02C92.2858 116.735 92.4382 117.502 92.4375 118.276C92.4382 119.05 92.2858 119.816 91.9889 120.532C91.692 121.247 91.2565 121.897 90.7073 122.444C90.1581 122.991 89.506 123.425 88.7883 123.721C88.0706 124.017 87.3014 124.169 86.5247 124.169Z" fill="url(#paint1_linear_2012_136)"/>
</g>
<defs>
<linearGradient id="paint0_linear_2012_136" x1="1303.88" y1="1209.78" x2="8004.28" y2="7866.37" gradientUnits="userSpaceOnUse">
<stop stop-color="#387EB8"/>
<stop offset="1" stop-color="#366994"/>
</linearGradient>
<linearGradient id="paint1_linear_2012_136" x1="1959.6" y1="2101.94" x2="9156.21" y2="8928.75" gradientUnits="userSpaceOnUse">
<stop stop-color="#FFE052"/>
<stop offset="1" stop-color="#FFC331"/>
</linearGradient>
<clipPath id="clip0_2012_136">
<rect width="136" height="135" fill="white"/>
</clipPath>
</defs>
</svg>
