<svg width="128" height="128" viewBox="0 0 128 128" fill="none" xmlns="http://www.w3.org/2000/svg">
<path d="M121.8 93.1002C115.1 96.6002 80.3998 110.8 72.9998 114.7C65.5998 118.6 61.4998 118.5 55.6998 115.7C49.8998 112.9 12.9998 98.1002 6.2998 94.9002C2.9998 93.3002 1.2998 92.0002 1.2998 90.7002V78.0002C1.2998 78.0002 49.2998 67.5002 57.0998 64.8002C64.8998 62.0002 67.4998 61.9002 74.0998 64.3002C80.6998 66.7002 120.2 73.8002 126.7 76.2002V88.7002C126.7 90.0002 125.2 91.4002 121.8 93.1002Z" fill="#A41E11"/>
<path d="M121.8 80.4991C115.1 83.9991 80.4001 98.1991 73.0001 102.099C65.6001 105.999 61.5001 105.899 55.7001 103.099C49.9001 100.299 13.0001 85.3991 6.30013 82.1991C-0.299871 78.9991 -0.499871 76.7991 6.00013 74.2991C12.5001 71.6991 49.2001 57.2991 57.0001 54.5991C64.8001 51.7991 67.4001 51.6991 74.0001 54.0991C80.6001 56.4991 115.1 70.1991 121.6 72.5991C128.3 74.9991 128.5 76.9991 121.8 80.4991Z" fill="#D82C20"/>
<path d="M121.8 72.4991C115.1 75.9991 80.3998 90.1991 72.9998 94.0991C65.5998 97.8991 61.4998 97.8991 55.6998 95.0991C49.8998 92.2991 12.9998 77.3991 6.2998 74.1991C2.9998 72.5991 1.2998 71.2991 1.2998 69.9991V57.2991C1.2998 57.2991 49.2998 46.7991 57.0998 44.0991C64.8998 41.2991 67.4998 41.1991 74.0998 43.5991C80.6998 45.9991 120.2 53.0991 126.7 55.4991V67.9991C126.7 69.2991 125.2 70.6991 121.8 72.4991Z" fill="#A41E11"/>
<path d="M121.8 59.7999C115.1 63.2999 80.3999 77.4999 72.9999 81.3999C65.5999 85.1999 61.4999 85.1999 55.6999 82.3999C49.8999 79.5999 12.9999 64.6999 6.29987 61.4999C-0.400133 58.2999 -0.500134 56.0999 5.99987 53.5999C12.4999 50.9999 49.1999 36.5999 56.9999 33.8999C64.7999 31.0999 67.3999 30.9999 73.9999 33.3999C80.5999 35.7999 115.1 49.4999 121.6 51.8999C128.3 54.2999 128.5 56.2999 121.8 59.7999Z" fill="#D82C20"/>
<path d="M121.8 51.0006C115.1 54.5006 80.4002 68.7006 73.0002 72.6006C65.6002 76.4006 61.5002 76.4006 55.7002 73.6006C49.9002 70.9006 13.0002 56.0006 6.3002 52.8006C3.0002 51.2006 1.2002 49.9006 1.2002 48.6006V35.9006C1.2002 35.9006 49.2002 25.4006 57.0002 22.7006C64.8002 19.9006 67.4002 19.8006 74.0002 22.2006C80.6002 24.6006 120.1 31.7006 126.6 34.1006V46.6006C126.7 47.9006 125.2 49.2006 121.8 51.0006Z" fill="#A41E11"/>
<path d="M121.8 38.2995C115.1 41.7995 80.3999 55.9995 72.9999 59.8995C65.5999 63.6995 61.4999 63.6995 55.6999 60.8995C49.8999 58.0995 12.9999 43.2995 6.29987 40.0995C-0.400133 36.8995 -0.500134 34.6995 5.99987 32.1995C12.4999 29.5995 49.1999 15.1995 56.9999 12.4995C64.7999 9.69946 67.3999 9.59946 73.9999 11.9995C80.5999 14.3995 115.1 28.0995 121.6 30.4995C128.3 32.8995 128.5 34.8995 121.8 38.2995Z" fill="#D82C20"/>
<path d="M80.4002 26.1004L69.6002 27.3004L67.1002 33.1004L63.2002 26.6004L50.7002 25.5004L60.0002 22.1004L57.2002 16.9004L66.0002 20.3004L74.2002 17.6004L72.0002 23.0004L80.4002 26.1004ZM66.5002 54.5004L46.2002 46.1004L75.3002 41.7004L66.5002 54.5004Z" fill="white"/>
<path d="M38.3999 41.4004C46.9603 41.4004 53.8999 38.7141 53.8999 35.4004C53.8999 32.0867 46.9603 29.4004 38.3999 29.4004C29.8395 29.4004 22.8999 32.0867 22.8999 35.4004C22.8999 38.7141 29.8395 41.4004 38.3999 41.4004Z" fill="white"/>
<path d="M93.2998 27.6992L110.5 34.4992L93.2998 41.2992V27.6992Z" fill="#7A0C00"/>
<path d="M74.2998 35.2992L93.2998 27.6992V41.2992L91.3998 42.0992L74.2998 35.2992Z" fill="#AD2115"/>
</svg>
