<svg width="32" height="32" viewBox="0 0 32 32" fill="none" xmlns="http://www.w3.org/2000/svg">
<path d="M15.124 5.29904C15.124 5.13448 15.1728 4.97362 15.2642 4.8368C15.3557 4.69998 15.4856 4.59334 15.6376 4.53037C15.7896 4.4674 15.9569 4.45092 16.1183 4.48302C16.2797 4.51513 16.428 4.59437 16.5443 4.71072C16.6607 4.82708 16.7399 4.97533 16.772 5.13672C16.8041 5.29811 16.7877 5.4654 16.7247 5.61743C16.6617 5.76946 16.5551 5.8994 16.4182 5.99082C16.2814 6.08224 16.1206 6.13104 15.956 6.13104C15.8467 6.1313 15.7384 6.10996 15.6373 6.06824C15.5362 6.02652 15.4444 5.96525 15.3671 5.88794C15.2898 5.81063 15.2285 5.7188 15.1868 5.61774C15.1451 5.51668 15.1237 5.40837 15.124 5.29904ZM5.20001 12.833C5.20001 12.6685 5.24881 12.5076 5.34023 12.3708C5.43165 12.234 5.56159 12.1273 5.71362 12.0644C5.86565 12.0014 6.03293 11.9849 6.19433 12.017C6.35572 12.0491 6.50397 12.1284 6.62032 12.2447C6.73668 12.3611 6.81592 12.5093 6.84803 12.6707C6.88013 12.8321 6.86365 12.9994 6.80068 13.1514C6.73771 13.3035 6.63107 13.4334 6.49425 13.5248C6.35742 13.6162 6.19657 13.665 6.03201 13.665C5.92268 13.6653 5.81437 13.644 5.71331 13.6022C5.61225 13.5605 5.52042 13.4992 5.44311 13.4219C5.3658 13.3446 5.30453 13.2528 5.26281 13.1517C5.22109 13.0507 5.19975 12.9424 5.20001 12.833ZM25.056 12.872C25.056 12.7075 25.1048 12.5466 25.1962 12.4098C25.2876 12.273 25.4176 12.1663 25.5696 12.1034C25.7216 12.0404 25.8889 12.0239 26.0503 12.056C26.2117 12.0881 26.36 12.1674 26.4763 12.2837C26.5927 12.4001 26.6719 12.5483 26.704 12.7097C26.7361 12.8711 26.7197 13.0384 26.6567 13.1904C26.5937 13.3425 26.4871 13.4724 26.3502 13.5638C26.2134 13.6552 26.0526 13.704 25.888 13.704C25.7787 13.7043 25.6704 13.683 25.5693 13.6412C25.4682 13.5995 25.3764 13.5382 25.2991 13.4609C25.2218 13.3836 25.1605 13.2918 25.1188 13.1907C25.0771 13.0897 25.0557 12.9814 25.056 12.872ZM7.60501 14.012C7.78844 13.9302 7.932 13.7791 8.00433 13.5917C8.07666 13.4043 8.07187 13.1959 7.99101 13.012L7.62201 12.177H9.07401V18.722H6.14401C5.78368 17.4517 5.67096 16.1239 5.81201 14.811L7.60501 14.012ZM13.679 14.173V12.244H17.137C17.316 12.244 18.398 12.45 18.398 13.26C18.398 13.932 17.568 14.173 16.885 14.173H13.679ZM8.95801 24.56C8.95801 24.3955 9.00681 24.2346 9.09823 24.0978C9.18965 23.961 9.31959 23.8543 9.47162 23.7914C9.62365 23.7284 9.79094 23.7119 9.95233 23.744C10.1137 23.7761 10.262 23.8554 10.3783 23.9717C10.4947 24.0881 10.5739 24.2363 10.606 24.3977C10.6381 24.5591 10.6217 24.7264 10.5587 24.8784C10.4957 25.0305 10.3891 25.1604 10.2522 25.2518C10.1154 25.3432 9.95457 25.392 9.79001 25.392C9.68068 25.3923 9.57237 25.371 9.47131 25.3292C9.37025 25.2875 9.27842 25.2262 9.20111 25.1489C9.1238 25.0716 9.06253 24.9798 9.02081 24.8787C8.97909 24.7777 8.95775 24.6694 8.95801 24.56ZM21.289 24.599C21.289 24.4345 21.3378 24.2736 21.4292 24.1368C21.5206 24 21.6506 23.8933 21.8026 23.8304C21.9546 23.7674 22.1219 23.7509 22.2833 23.783C22.4447 23.8151 22.593 23.8944 22.7093 24.0107C22.8257 24.1271 22.9049 24.2753 22.937 24.4367C22.9691 24.5981 22.9527 24.7654 22.8897 24.9174C22.8267 25.0695 22.7201 25.1994 22.5832 25.2908C22.4464 25.3822 22.2856 25.431 22.121 25.431C22.0117 25.4313 21.9034 25.41 21.8023 25.3682C21.7012 25.3265 21.6094 25.2652 21.5321 25.1879C21.4548 25.1106 21.3935 25.0188 21.3518 24.9177C21.3101 24.8167 21.2887 24.7084 21.289 24.599ZM21.546 22.712C21.3493 22.6705 21.1441 22.7087 20.9754 22.8181C20.8067 22.9276 20.6882 23.0994 20.646 23.296L20.228 25.245C18.8846 25.8533 17.4257 26.1645 15.951 26.1575C14.4763 26.1504 13.0205 25.8252 11.683 25.204L11.266 23.255C11.2236 23.0586 11.105 22.887 10.9364 22.7777C10.7677 22.6685 10.5626 22.6305 10.366 22.672L8.64501 23.042C8.32462 22.7132 8.02725 22.3627 7.75501 21.993H16.129C16.224 21.993 16.287 21.976 16.287 21.893V18.927C16.287 18.841 16.224 18.827 16.129 18.827H13.679V16.946H16.328C16.7229 16.95 17.1035 17.0942 17.4019 17.3528C17.7003 17.6115 17.897 17.9677 17.957 18.358C18.062 18.771 18.293 20.115 18.451 20.545C18.608 21.028 19.251 21.992 19.933 21.992H24.256C23.9668 22.3812 23.6496 22.7489 23.307 23.092L21.546 22.712ZM26.196 14.891C26.2546 15.4823 26.262 16.0775 26.218 16.67H25.167C25.062 16.67 25.019 16.739 25.019 16.842V17.325C25.019 18.461 24.378 18.709 23.819 18.772C23.284 18.832 22.691 18.548 22.619 18.221C22.5801 17.6548 22.4086 17.1055 22.1184 16.6178C21.8281 16.13 21.4272 15.7173 20.948 15.413C21.978 14.759 23.048 13.794 23.048 12.502C23.027 11.9531 22.8688 11.4181 22.5879 10.9459C22.307 10.4738 21.9124 10.0795 21.44 9.79904C20.7812 9.37239 20.0234 9.12301 19.24 9.07504H8.36701C9.87021 7.39533 11.8852 6.25798 14.1 5.83904L15.382 7.18304C15.521 7.32822 15.7117 7.41246 15.9126 7.41733C16.1135 7.4222 16.3082 7.34731 16.454 7.20904L17.888 5.83704C19.3501 6.11148 20.7349 6.70088 21.9463 7.5643C23.1577 8.42773 24.1666 9.54449 24.903 10.837L23.921 13.054C23.8401 13.2379 23.8354 13.4463 23.9077 13.6337C23.98 13.8211 24.1236 13.9722 24.307 14.054L26.196 14.891ZM28.644 14.927L28.611 14.584L29.622 13.641C29.6603 13.6012 29.6904 13.5541 29.7105 13.5026C29.7306 13.4511 29.7403 13.3961 29.7391 13.3408C29.7379 13.2856 29.7258 13.2311 29.7034 13.1805C29.6811 13.1299 29.649 13.0842 29.609 13.046C29.574 13.0119 29.533 12.9844 29.488 12.965L28.2 12.482L28.1 12.148L28.906 11.028C28.9358 10.9814 28.956 10.9293 28.9656 10.8748C28.9751 10.8203 28.9738 10.7645 28.9617 10.7105C28.9497 10.6565 28.927 10.6055 28.8952 10.5602C28.8633 10.515 28.8228 10.4766 28.776 10.447C28.7354 10.4208 28.6903 10.4022 28.643 10.392L27.28 10.17L27.116 9.86404L27.689 8.60704C27.7297 8.50359 27.7277 8.38824 27.6834 8.28627C27.6392 8.1843 27.5563 8.10403 27.453 8.06304C27.4066 8.04432 27.3571 8.03448 27.307 8.03404L25.924 8.08204L25.7 7.81804L26.018 6.47104C26.0276 6.41652 26.0264 6.36064 26.0143 6.30661C26.0023 6.25258 25.9797 6.20147 25.9478 6.15621C25.9159 6.11095 25.8754 6.07244 25.8286 6.04289C25.7818 6.01334 25.7296 5.99334 25.675 5.98404C25.6274 5.97532 25.5786 5.97532 25.531 5.98404L24.183 6.29904L23.917 6.08004L23.966 4.69904C23.9648 4.6437 23.9528 4.58915 23.9304 4.53851C23.9081 4.48786 23.876 4.44213 23.836 4.40394C23.7959 4.36574 23.7487 4.33584 23.6971 4.31595C23.6454 4.29606 23.5903 4.28657 23.535 4.28804C23.4867 4.28878 23.4389 4.29826 23.394 4.31604L22.137 4.88904L21.831 4.72504L21.609 3.36204C21.5846 3.2537 21.5184 3.15942 21.4247 3.09983C21.331 3.04024 21.2175 3.02018 21.109 3.04404C21.0617 3.05418 21.0167 3.07281 20.976 3.09904L19.855 3.90504L19.522 3.80504L19.039 2.51204C19.0168 2.4614 18.9848 2.41566 18.9448 2.37743C18.9048 2.3392 18.8577 2.30923 18.8062 2.28926C18.7546 2.26928 18.6996 2.25968 18.6443 2.26102C18.589 2.26235 18.5346 2.27459 18.484 2.29704C18.4395 2.31621 18.3988 2.34332 18.364 2.37704L17.418 3.38904L17.075 3.35604L16.347 2.17904C16.3083 2.12374 16.2568 2.0786 16.1969 2.04744C16.137 2.01627 16.0705 2 16.003 2C15.9355 2 15.869 2.01627 15.8091 2.04744C15.7492 2.0786 15.6977 2.12374 15.659 2.17904L14.931 3.35604L14.588 3.38904L13.645 2.37704C13.605 2.33885 13.5579 2.30893 13.5063 2.28901C13.4547 2.26909 13.3997 2.25955 13.3444 2.26095C13.2891 2.26234 13.2346 2.27464 13.1841 2.29713C13.1336 2.31963 13.088 2.35188 13.05 2.39204C13.0163 2.42686 12.9892 2.46752 12.97 2.51204L12.483 3.79904L12.15 3.89904L11.03 3.09904C10.9834 3.06929 10.9313 3.04906 10.8768 3.03949C10.8223 3.02993 10.7665 3.03123 10.7125 3.04331C10.6585 3.05539 10.6074 3.07801 10.5622 3.10988C10.517 3.14176 10.4785 3.18225 10.449 3.22904C10.4228 3.26968 10.4042 3.31474 10.394 3.36204L10.172 4.72504L9.86601 4.88904L8.60801 4.31604C8.5566 4.29599 8.50174 4.28627 8.44658 4.28743C8.39141 4.28859 8.33701 4.30062 8.28649 4.32281C8.23597 4.34501 8.19032 4.37694 8.15214 4.41679C8.11397 4.45663 8.08402 4.50361 8.06401 4.55504C8.04588 4.6009 8.03639 4.64972 8.03601 4.69904L8.08401 6.08204L7.81801 6.29904L6.47101 5.98304C6.4165 5.97342 6.36062 5.97467 6.30659 5.98672C6.25256 5.99878 6.20145 6.02139 6.15619 6.05327C6.11093 6.08514 6.07242 6.12565 6.04287 6.17246C6.01332 6.21927 5.99332 6.27147 5.98401 6.32604C5.9753 6.37364 5.9753 6.42243 5.98401 6.47004L6.30001 7.81804L6.08201 8.08303L4.70001 8.03504C4.63251 8.0368 4.56642 8.05473 4.50728 8.08733C4.44815 8.11993 4.3977 8.16625 4.36017 8.22238C4.32265 8.27852 4.29915 8.34285 4.29164 8.40995C4.28412 8.47706 4.29283 8.54499 4.31701 8.60804L4.89001 9.86504L4.72601 10.171L3.36301 10.393C3.25467 10.4174 3.1604 10.4837 3.10081 10.5774C3.04121 10.6711 3.02115 10.7846 3.04501 10.893C3.05515 10.9403 3.07379 10.9854 3.10001 11.026L3.90601 12.146L3.80601 12.48L2.51301 12.963C2.46238 12.9853 2.41663 13.0173 2.3784 13.0572C2.34017 13.0972 2.31021 13.1443 2.29023 13.1959C2.27026 13.2474 2.26066 13.3024 2.262 13.3577C2.26333 13.413 2.27557 13.4675 2.29801 13.518C2.31738 13.563 2.34484 13.604 2.37901 13.639L3.39001 14.582L3.35701 14.925L2.18001 15.653C2.12472 15.6918 2.07958 15.7433 2.04841 15.8031C2.01725 15.863 2.00098 15.9295 2.00098 15.997C2.00098 16.0645 2.01725 16.1311 2.04841 16.1909C2.07958 16.2508 2.12472 16.3023 2.18001 16.341L3.35701 17.069L3.39001 17.412L2.37901 18.355C2.34082 18.395 2.31091 18.4422 2.29099 18.4938C2.27107 18.5454 2.26153 18.6004 2.26293 18.6557C2.26432 18.7109 2.27662 18.7654 2.29911 18.8159C2.32161 18.8664 2.35386 18.912 2.39401 18.95C2.42854 18.9837 2.46885 19.0108 2.51301 19.03L3.80601 19.513L3.90601 19.847L3.10001 20.971C3.07031 21.0177 3.05014 21.0699 3.04065 21.1244C3.03116 21.1789 3.03255 21.2348 3.04472 21.2888C3.05689 21.3428 3.07962 21.3938 3.11159 21.439C3.14356 21.4842 3.18414 21.5226 3.23101 21.552C3.27166 21.5783 3.31672 21.5969 3.36401 21.607L4.72701 21.829L4.89101 22.136L4.31801 23.393C4.29784 23.4446 4.28804 23.4996 4.2892 23.5549C4.29035 23.6102 4.30242 23.6648 4.32473 23.7154C4.34703 23.7661 4.37912 23.8118 4.41915 23.85C4.45919 23.8882 4.50638 23.9181 4.55801 23.938C4.60356 23.956 4.65203 23.9655 4.70101 23.966L6.08401 23.918L6.30301 24.184L5.98601 25.532C5.96684 25.6417 5.99198 25.7545 6.05592 25.8456C6.11986 25.9367 6.21737 25.9988 6.32701 26.018C6.37527 26.027 6.42476 26.027 6.47301 26.018L7.81801 25.699L8.08401 25.917L8.03501 27.299C8.03763 27.4103 8.08428 27.5159 8.16471 27.5928C8.24514 27.6696 8.35278 27.7114 8.46401 27.709C8.51299 27.7085 8.56146 27.699 8.60701 27.681L9.86401 27.108L10.17 27.272L10.392 28.634C10.4162 28.7426 10.4824 28.8371 10.5761 28.8969C10.6698 28.9567 10.7834 28.9769 10.892 28.953C10.9393 28.9429 10.9844 28.9243 11.025 28.898L12.145 28.091L12.479 28.191L12.962 29.483C12.9843 29.5337 13.0165 29.5795 13.0565 29.6177C13.0966 29.6559 13.1438 29.6858 13.1955 29.7057C13.2472 29.7256 13.3023 29.735 13.3576 29.7336C13.413 29.7321 13.4675 29.7197 13.518 29.697C13.5622 29.6778 13.6025 29.6507 13.637 29.617L14.58 28.606L14.923 28.64L15.651 29.817C15.6829 29.8624 15.7235 29.901 15.7703 29.9306C15.8172 29.9602 15.8695 29.9802 15.9242 29.9895C15.9788 29.9988 16.0348 29.9972 16.0888 29.9848C16.1429 29.9723 16.1939 29.9493 16.239 29.917C16.278 29.8899 16.3119 29.856 16.339 29.817L17.067 28.64L17.41 28.606L18.353 29.617C18.393 29.6552 18.4402 29.6851 18.4917 29.7051C18.5433 29.725 18.5983 29.7345 18.6536 29.7331C18.7089 29.7317 18.7634 29.7194 18.8139 29.6969C18.8644 29.6744 18.91 29.6422 18.948 29.602C18.9816 29.5675 19.0087 29.5272 19.028 29.483L19.511 28.191L19.845 28.091L20.965 28.898C21.0117 28.9277 21.0638 28.9479 21.1184 28.9574C21.1729 28.9669 21.2288 28.9655 21.2827 28.9533C21.3367 28.9412 21.3878 28.9184 21.433 28.8865C21.4782 28.8545 21.5166 28.8139 21.546 28.767C21.5722 28.7264 21.5909 28.6813 21.601 28.634L21.823 27.272L22.129 27.108L23.386 27.681C23.4374 27.7011 23.4923 27.7108 23.5474 27.7096C23.6026 27.7085 23.657 27.6965 23.7075 27.6743C23.7581 27.6521 23.8037 27.6201 23.8419 27.5803C23.8801 27.5404 23.91 27.4935 23.93 27.442C23.948 27.3965 23.9575 27.348 23.958 27.299L23.91 25.915L24.175 25.697L25.522 26.014C25.6317 26.0335 25.7446 26.0087 25.8359 25.9449C25.9273 25.8811 25.9895 25.7837 26.009 25.674C26.0162 25.6256 26.0162 25.5764 26.009 25.528L25.7 24.182L25.918 23.916L27.301 23.964C27.3563 23.9627 27.4107 23.9506 27.4612 23.9282C27.5118 23.9058 27.5574 23.8737 27.5955 23.8336C27.6336 23.7936 27.6634 23.7464 27.6832 23.6948C27.703 23.6433 27.7125 23.5883 27.711 23.533C27.7104 23.4844 27.7009 23.4363 27.683 23.391L27.11 22.134L27.274 21.827L28.637 21.605C28.7455 21.5809 28.8401 21.5147 28.8998 21.421C28.9596 21.3272 28.9798 21.2136 28.956 21.105C28.9458 21.057 28.9268 21.0112 28.9 20.97L28.094 19.85L28.194 19.516L29.487 19.033C29.5375 19.0108 29.5832 18.9788 29.6213 18.9389C29.6594 18.8991 29.6894 18.852 29.7093 18.8006C29.7293 18.7491 29.7389 18.6943 29.7377 18.6391C29.7364 18.5839 29.7243 18.5295 29.702 18.479C29.6826 18.4341 29.6552 18.3931 29.621 18.358L28.61 17.415L28.643 17.072L29.82 16.344C29.8753 16.3053 29.9204 16.2538 29.9516 16.1939C29.9828 16.1341 29.999 16.0675 29.999 16C29.999 15.9325 29.9828 15.866 29.9516 15.8061C29.9204 15.7463 29.8753 15.6948 29.82 15.656L28.644 14.927Z" fill="url(#paint0_radial_2012_214)"/>
<defs>
<radialGradient id="paint0_radial_2012_214" cx="0" cy="0" r="1" gradientUnits="userSpaceOnUse" gradientTransform="translate(16.0147 16.3359) rotate(-30.0007) scale(13.9977 8.40346)">
<stop stop-color="#7D7D7D"/>
<stop offset="0.267" stop-color="#7E7C7A"/>
<stop offset="0.45" stop-color="#817871"/>
<stop offset="0.608" stop-color="#867162"/>
<stop offset="0.753" stop-color="#8D684C"/>
<stop offset="0.886" stop-color="#965C30"/>
<stop offset="1" stop-color="#A04F12"/>
</radialGradient>
</defs>
</svg>
