<svg width="16" height="16" viewBox="0 0 16 16" fill="none" xmlns="http://www.w3.org/2000/svg">
<path d="M10.0001 7H10.5001C10.6327 7 10.7599 7.05268 10.8537 7.14645C10.9475 7.24021 11.0001 7.36739 11.0001 7.5C11.0001 7.63261 10.9475 7.75979 10.8537 7.85355C10.7599 7.94732 10.6327 8 10.5001 8H10.0001V7ZM10.8541 3.146C10.9242 3.21587 10.9719 3.30495 10.9913 3.40196C11.0107 3.49898 11.0009 3.59957 10.9631 3.691C10.9253 3.78243 10.8612 3.8606 10.779 3.9156C10.6968 3.97061 10.6001 3.99998 10.5011 4H9.48513C9.34652 3.81682 9.18331 3.65362 9.00013 3.515V3.5C9.00013 3.36739 9.05281 3.24021 9.14658 3.14645C9.24035 3.05268 9.36752 3 9.50013 3H10.5001C10.5658 2.99988 10.6309 3.01272 10.6917 3.03777C10.7524 3.06282 10.8076 3.0996 10.8541 3.146ZM13.9761 8.342L14.9761 11.342C15.0007 11.4173 15.0072 11.4973 14.995 11.5756C14.9827 11.6538 14.9521 11.7281 14.9057 11.7922C14.8593 11.8564 14.7984 11.9087 14.7279 11.9448C14.6574 11.9809 14.5793 11.9998 14.5001 12H11.2451L10.9201 11.024L10.9141 11.014C10.9108 11.0107 10.9088 11.006 10.9081 11H13.8081L13.1401 9H12.9081C12.8051 9.29129 12.6147 9.54368 12.3629 9.72267C12.1111 9.90166 11.8101 9.99851 11.5011 10H10.0001V9H11.5001C11.6327 9 11.7599 8.94732 11.8537 8.85355C11.9475 8.75979 12.0001 8.63261 12.0001 8.5V2.5C12.0001 2.36739 11.9475 2.24021 11.8537 2.14645C11.7599 2.05268 11.6327 2 11.5001 2H8.50013C8.36752 2 8.24035 2.05268 8.14658 2.14645C8.05281 2.24021 8.00013 2.36739 8.00013 2.5V3.051C7.8356 3.01725 7.66809 3.00016 7.50013 3H7.00013V2.5C7.00013 2.10218 7.15817 1.72064 7.43947 1.43934C7.72078 1.15804 8.10231 1 8.50013 1H11.5001C11.898 1 12.2795 1.15804 12.5608 1.43934C12.8421 1.72064 13.0001 2.10218 13.0001 2.5V8H13.5001C13.6052 7.99987 13.7076 8.03284 13.7929 8.09423C13.8782 8.15562 13.9429 8.24232 13.9761 8.342ZM5.14713 6.146C5.07703 6.21593 5.02926 6.3051 5.00989 6.40221C4.99053 6.49932 5.00043 6.59999 5.03835 6.69146C5.07627 6.78294 5.14049 6.86109 5.22288 6.91602C5.30527 6.97095 5.40211 7.00018 5.50113 7H6.50113C6.63374 7 6.76092 6.94732 6.85469 6.85355C6.94845 6.75979 7.00113 6.63261 7.00113 6.5C7.00113 6.36739 6.94845 6.24021 6.85469 6.14645C6.76092 6.05268 6.63374 6 6.50113 6H5.50113C5.43543 5.99988 5.37034 6.01272 5.3096 6.03777C5.24886 6.06282 5.19365 6.0996 5.14713 6.146ZM6.50113 11H5.50113C5.36852 11 5.24135 10.9473 5.14758 10.8536C5.05381 10.7598 5.00113 10.6326 5.00113 10.5C5.00113 10.3674 5.05381 10.2402 5.14758 10.1464C5.24135 10.0527 5.36852 10 5.50113 10H6.50113C6.63374 10 6.76092 10.0527 6.85469 10.1464C6.94845 10.2402 7.00113 10.3674 7.00113 10.5C7.00113 10.6326 6.94845 10.7598 6.85469 10.8536C6.76092 10.9473 6.63374 11 6.50113 11ZM10.7251 14.944C10.7949 14.9079 10.8552 14.8558 10.9011 14.792H10.9061C10.9526 14.7279 10.9832 14.6537 10.9953 14.5754C11.0075 14.4972 11.0009 14.4172 10.9761 14.342L9.97613 11.342C9.94288 11.2422 9.87897 11.1553 9.7935 11.0939C9.70803 11.0325 9.60537 10.9997 9.50013 11H9.00013V5.5C9.00013 5.10218 8.8421 4.72064 8.56079 4.43934C8.27949 4.15804 7.89796 4 7.50013 4H4.50013C4.10231 4 3.72078 4.15804 3.43947 4.43934C3.15817 4.72064 3.00013 5.10218 3.00013 5.5V11H2.50013C2.39506 10.9999 2.29263 11.0328 2.20736 11.0942C2.12209 11.1556 2.05833 11.2423 2.02513 11.342L1.02513 14.342C1.00008 14.4172 0.993275 14.4973 1.00527 14.5756C1.01726 14.654 1.04771 14.7284 1.09411 14.7927C1.1405 14.8569 1.20152 14.9092 1.27211 14.9453C1.34271 14.9813 1.42086 15.0001 1.50013 15H10.5001C10.5795 14.9993 10.6541 14.9807 10.7241 14.944M4.14613 11.854C4.09973 11.8075 4.06295 11.7523 4.0379 11.6915C4.01285 11.6308 4.00001 11.5657 4.00013 11.5V5.5C4.00013 5.36739 4.05281 5.24021 4.14658 5.14645C4.24035 5.05268 4.36752 5 4.50013 5H7.50013C7.63274 5 7.75992 5.05268 7.85369 5.14645C7.94745 5.24021 8.00013 5.36739 8.00013 5.5V11.5C8.00013 11.6326 7.94745 11.7598 7.85369 11.8536C7.75992 11.9473 7.63274 12 7.50013 12H4.50013C4.43443 12.0001 4.36934 11.9873 4.3086 11.9622C4.24786 11.9372 4.19265 11.9004 4.14613 11.854ZM8.91013 12H9.14213L9.80913 14H2.19413L2.86113 12H3.09313C3.19612 12.2913 3.38654 12.5437 3.63837 12.7227C3.89021 12.9017 4.19117 12.9985 4.50013 13H7.50013C7.80926 12.9987 8.11045 12.902 8.36248 12.723C8.61452 12.544 8.80509 12.2915 8.90813 12" fill="black"/>
</svg>
