<svg width="16" height="16" viewBox="0 0 16 16" fill="none" xmlns="http://www.w3.org/2000/svg">
<path d="M6.35376 8.04039L1.58076 12.8134C1.50916 12.8826 1.45206 12.9654 1.4128 13.0569C1.37354 13.1484 1.35289 13.2469 1.35208 13.3464C1.35126 13.446 1.37028 13.5448 1.40804 13.6369C1.44579 13.7291 1.50152 13.8128 1.57197 13.8832C1.64242 13.9536 1.72619 14.0092 1.81838 14.0469C1.91057 14.0846 2.00934 14.1035 2.10892 14.1026C2.2085 14.1017 2.30691 14.0809 2.39839 14.0416C2.48988 14.0022 2.57261 13.945 2.64176 13.8734L7.94476 8.57038C8.08521 8.42976 8.1641 8.23914 8.1641 8.04039C8.1641 7.84163 8.08521 7.65101 7.94476 7.51039L2.64176 2.20639C2.50024 2.06983 2.31076 1.99432 2.11411 1.99613C1.91746 1.99793 1.72939 2.07689 1.5904 2.21601C1.45141 2.35514 1.37262 2.54328 1.371 2.73993C1.36939 2.93658 1.44507 3.126 1.58176 3.26739L6.35376 8.04039ZM8.74976 11.5004C8.55085 11.5004 8.36008 11.5794 8.21943 11.7201C8.07878 11.8607 7.99976 12.0515 7.99976 12.2504C7.99976 12.4493 8.07878 12.6401 8.21943 12.7807C8.36008 12.9214 8.55085 13.0004 8.74976 13.0004H14.2498C14.4487 13.0004 14.6394 12.9214 14.7801 12.7807C14.9207 12.6401 14.9998 12.4493 14.9998 12.2504C14.9998 12.0515 14.9207 11.8607 14.7801 11.7201C14.6394 11.5794 14.4487 11.5004 14.2498 11.5004H8.74976Z" fill="black"/>
</svg>
