<svg width="23" height="24" viewBox="0 0 23 24" fill="none" xmlns="http://www.w3.org/2000/svg">
<path d="M22.7234 21.0924L15.3322 8.7504V1.92H16.2907C16.5449 1.92 16.7887 1.81886 16.9684 1.63882C17.1482 1.45879 17.2492 1.21461 17.2492 0.96C17.2492 0.705392 17.1482 0.461212 16.9684 0.281177C16.7887 0.101143 16.5449 0 16.2907 0H6.70574C6.45153 0 6.20773 0.101143 6.02798 0.281177C5.84823 0.461212 5.74724 0.705392 5.74724 0.96C5.74724 1.21461 5.84823 1.45879 6.02798 1.63882C6.20773 1.81886 6.45153 1.92 6.70574 1.92H7.66423V8.7504L0.273048 21.0924C0.0987265 21.3835 0.00456626 21.7156 0.000161934 22.0551C-0.00424239 22.3945 0.0812666 22.729 0.247976 23.0245C0.414685 23.32 0.656634 23.566 0.94917 23.7373C1.24171 23.9087 1.57437 23.9993 1.91327 24H21.0831C21.4223 24 21.7555 23.9098 22.0485 23.7387C22.3415 23.5676 22.584 23.3217 22.7511 23.026C22.9183 22.7304 23.0041 22.3957 22.9999 22.056C22.9956 21.7162 22.9014 21.3837 22.727 21.0924H22.7234ZM9.44463 9.51C9.53428 9.36118 9.58151 9.19061 9.58122 9.0168V1.92H13.4152V9.0168C13.4149 9.19061 13.4621 9.36118 13.5518 9.51L18.131 17.16C16.6932 17.4444 14.6481 17.3244 11.9307 15.9468C10.0245 14.9808 8.21057 14.4684 6.51284 14.4096L9.44463 9.51ZM1.91327 22.08L5.33269 16.3704C7.04001 16.1616 8.96419 16.5924 11.0621 17.6568C13.3385 18.81 15.2555 19.2024 16.8131 19.2024C17.6052 19.2059 18.3938 19.0968 19.1554 18.8784L21.0831 22.08H1.91327Z" fill="black"/>
</svg>
