<svg width="256" height="308" viewBox="0 0 256 308" fill="none" xmlns="http://www.w3.org/2000/svg">
<g clip-path="url(#clip0_2012_148)">
<path d="M239.682 40.7071C211.113 -0.1819 154.69 -12.3009 113.895 13.6901L42.2472 59.3561C32.5684 65.4453 24.2665 73.487 17.8723 82.967C11.478 92.4471 7.13206 103.157 5.11217 114.412C1.69451 133.371 4.69836 152.929 13.6482 169.988C7.5146 179.291 3.33161 189.741 1.35217 200.707C-0.688571 212.189 -0.416159 223.963 2.15343 235.338C4.72302 246.714 9.53806 257.461 16.3162 266.951C44.8902 307.844 101.313 319.958 142.103 293.967L213.751 248.303C223.431 242.215 231.733 234.173 238.128 224.693C244.522 215.212 248.868 204.502 250.886 193.246C254.304 174.287 251.302 154.73 242.356 137.669C248.488 128.366 252.668 117.916 254.646 106.951C256.689 95.4692 256.417 83.6951 253.848 72.3195C251.278 60.944 246.462 50.1963 239.682 40.7071Z" fill="#FF3E00"/>
<path d="M106.889 270.841C83.7869 276.848 59.3919 267.805 45.7859 248.193C41.7084 242.484 38.8117 236.018 37.2658 229.175C35.7198 222.333 35.5556 215.25 36.7829 208.343C37.1989 206.075 37.7713 203.838 38.4959 201.65L39.8459 197.535L43.5169 200.232C51.9975 206.461 61.4789 211.198 71.5529 214.239L74.2159 215.047L73.9709 217.706C73.6455 221.487 74.6693 225.262 76.8609 228.362C78.8596 231.246 81.6955 233.448 84.9856 234.669C88.2757 235.89 91.8613 236.072 95.2579 235.19C96.8157 234.773 98.3006 234.12 99.6609 233.255L171.331 187.583C173.085 186.478 174.589 185.021 175.749 183.303C176.908 181.586 177.697 179.645 178.065 177.606C178.433 175.524 178.382 173.389 177.917 171.327C177.451 169.265 176.579 167.316 175.352 165.595C173.351 162.71 170.514 160.509 167.223 159.287C163.932 158.065 160.346 157.882 156.948 158.763C155.393 159.179 153.91 159.831 152.552 160.696L125.202 178.13C120.705 180.989 115.797 183.144 110.649 184.521C87.5479 190.528 63.1519 181.485 49.5479 161.872C45.4694 156.164 42.572 149.698 41.0258 142.855C39.4796 136.012 39.3158 128.93 40.5439 122.023C41.7588 115.252 44.3732 108.81 48.22 103.108C52.0668 97.4064 57.0612 92.57 62.8839 88.9086L134.548 43.2316C139.047 40.3675 143.958 38.2098 149.111 36.8336C172.212 30.8266 196.608 39.8696 210.212 59.4816C214.29 65.1902 217.186 71.6556 218.733 78.4985C220.279 85.3415 220.443 92.4243 219.216 99.3316C218.797 101.598 218.225 103.834 217.503 106.024L216.153 110.14L212.483 107.447C204.003 101.213 194.521 96.4738 184.446 93.4336L181.782 92.6246L182.028 89.9666C182.351 86.185 181.327 82.4109 179.138 79.3106C177.139 76.4258 174.303 74.2241 171.013 73.003C167.723 71.7819 164.137 71.6002 160.74 72.4826C159.182 72.8992 157.698 73.5517 156.338 74.4176L84.6679 120.092C82.9143 121.195 81.41 122.652 80.2512 124.369C79.0924 126.087 78.3045 128.027 77.9379 130.067C77.5681 132.148 77.6172 134.283 78.0824 136.345C78.5476 138.408 79.4194 140.357 80.6469 142.079C82.6475 144.963 85.4846 147.165 88.7755 148.386C92.0664 149.608 95.6528 149.791 99.0509 148.911C100.608 148.494 102.093 147.841 103.453 146.976L130.798 129.549C135.294 126.686 140.201 124.528 145.35 123.152C168.451 117.146 192.847 126.189 206.452 145.802C210.53 151.51 213.427 157.975 214.973 164.817C216.519 171.66 216.683 178.743 215.455 185.65C214.24 192.42 211.625 198.863 207.778 204.566C203.932 210.269 198.937 215.106 193.115 218.77L121.451 264.443C116.952 267.307 112.042 269.464 106.889 270.841Z" fill="white"/>
</g>
<defs>
<clipPath id="clip0_2012_148">
<rect width="256" height="308" fill="white"/>
</clipPath>
</defs>
</svg>
