<svg width="128" height="128" viewBox="0 0 128 128" fill="none" xmlns="http://www.w3.org/2000/svg">
<g clip-path="url(#clip0_2207_68)">
<mask id="mask0_2207_68" style="mask-type:alpha" maskUnits="userSpaceOnUse" x="-1" y="0" width="129" height="128">
<path fill-rule="evenodd" clip-rule="evenodd" d="M90.7669 127.126C91.7855 127.523 92.8748 127.706 93.9672 127.664C95.0597 127.622 96.1318 127.356 97.1169 126.882L123.47 114.201C124.827 113.548 125.972 112.525 126.774 111.249C127.575 109.974 128 108.498 128 106.992V21.0091C128 19.5028 127.575 18.0269 126.774 16.7514C125.972 15.4759 124.827 14.4525 123.47 13.7991L97.1169 1.12014C95.6278 0.403648 93.9528 0.167744 92.3237 0.44508C90.6946 0.722416 89.192 1.49928 88.0239 2.66814L37.5739 48.6941L15.5999 32.0131C14.6085 31.2609 13.3851 30.8793 12.1418 30.9344C10.8985 30.9896 9.71376 31.478 8.79287 32.3151L1.74487 38.7261C1.19562 39.2257 0.756684 39.8344 0.456144 40.5133C0.155605 41.1922 7.80072e-05 41.9264 -0.000486738 42.6688C-0.00105148 43.4113 0.153358 44.1457 0.452864 44.825C0.752371 45.5044 1.19038 46.1137 1.73887 46.6141L20.7959 64.0001L1.73987 81.3871C1.19168 81.8876 0.753932 82.4969 0.454612 83.1762C0.155291 83.8555 0.000981983 84.5897 0.00154667 85.332C0.00211136 86.0743 0.157538 86.8082 0.457891 87.487C0.758244 88.1658 1.19692 88.7745 1.74587 89.2741L8.79387 95.6851C9.71464 96.5224 10.8994 97.011 12.1426 97.0664C13.3859 97.1217 14.6094 96.7403 15.6009 95.9881L37.5749 79.3081L88.0249 125.333C88.8057 126.114 89.7386 126.724 90.7669 127.126ZM96.0189 34.9431L57.7399 64.0001L96.0199 93.0581L96.0189 34.9431Z" fill="white"/>
</mask>
<g mask="url(#mask0_2207_68)">
<path d="M123.471 13.8195L97.0967 1.11949C95.6071 0.402077 93.9312 0.165674 92.3013 0.44303C90.6714 0.720385 89.1681 1.49777 87.9997 2.66749L1.66165 81.3865C1.11305 81.8867 0.674936 82.496 0.375351 83.1753C0.0757655 83.8545 -0.0786882 84.5889 -0.0781235 85.3313C-0.0775587 86.0737 0.0780122 86.8079 0.378631 87.4867C0.679249 88.1655 1.11829 88.7741 1.66765 89.2735L8.71966 95.6845C9.6407 96.5228 10.8262 97.012 12.0704 97.0674C13.3145 97.1227 14.5388 96.7407 15.5307 95.9875L119.502 17.1125C122.99 14.4665 128 16.9545 128 21.3325V21.0265C128 19.5206 127.575 18.0452 126.773 16.7701C125.972 15.495 124.827 14.4729 123.471 13.8195Z" fill="#0065A9"/>
<g filter="url(#filter0_d_2207_68)">
<path d="M123.471 114.18L97.0967 126.878C95.6073 127.596 93.9316 127.832 92.3017 127.555C90.6718 127.278 89.1683 126.501 87.9997 125.332L1.66165 46.612C1.11305 46.1117 0.674936 45.5025 0.375351 44.8232C0.0757655 44.1439 -0.0786882 43.4095 -0.0781235 42.6671C-0.0775587 41.9247 0.0780122 41.1906 0.378631 40.5118C0.679249 39.8329 1.11829 39.2243 1.66765 38.725L8.71966 32.314C9.6407 31.4757 10.8262 30.9864 12.0704 30.9311C13.3145 30.8757 14.5388 31.2578 15.5307 32.011L119.502 110.885C122.99 113.532 128 111.044 128 106.666V106.972C128 108.478 127.575 109.953 126.773 111.228C125.972 112.503 124.827 113.527 123.471 114.18Z" fill="#007ACC"/>
</g>
<g filter="url(#filter1_d_2207_68)">
<path d="M97.0975 126.881C95.6074 127.597 93.9317 127.833 92.3019 127.556C90.6721 127.278 89.1687 126.501 87.9995 125.332C90.9515 128.284 95.9995 126.193 95.9995 122.018V5.9794C95.9995 1.8044 90.9515 -0.286597 87.9995 2.6664C89.1687 1.49759 90.6721 0.720772 92.3019 0.44329C93.9317 0.165808 95.6074 0.401362 97.0975 1.1174L123.467 13.7994C124.824 14.4524 125.97 15.4755 126.772 16.7511C127.574 18.0266 128 19.5027 128 21.0094V106.991C128 108.498 127.574 109.974 126.772 111.25C125.97 112.525 124.824 113.548 123.467 114.201L97.0975 126.881Z" fill="#1F9CF0"/>
</g>
<path opacity="0.25" fill-rule="evenodd" clip-rule="evenodd" d="M90.6898 127.126C91.7082 127.523 92.7974 127.706 93.8896 127.664C94.9818 127.622 96.0538 127.356 97.0387 126.882L123.392 114.201C124.749 113.548 125.894 112.524 126.696 111.249C127.497 109.973 127.922 108.498 127.922 106.991V21.0091C127.922 19.5028 127.497 18.0269 126.696 16.7514C125.894 15.4759 124.749 14.4525 123.392 13.7991L97.0387 1.12014C95.5496 0.403648 93.8746 0.167744 92.2456 0.44508C90.6165 0.722416 89.1139 1.49928 87.9457 2.66814L37.4957 48.6941L15.5217 32.0141C14.5303 31.2619 13.307 30.8803 12.0637 30.9354C10.8204 30.9906 9.63564 31.479 8.71475 32.3161L1.66675 38.7271C1.11763 39.2268 0.678822 39.8355 0.378371 40.5144C0.0779198 41.1933 -0.0775587 41.9274 -0.0781235 42.6698C-0.0786882 43.4122 0.0756733 44.1466 0.375091 44.8259C0.674509 45.5053 1.11239 46.1147 1.66075 46.6151L20.7177 64.0001L1.66175 81.3861C1.11326 81.8865 0.675249 82.4959 0.375743 83.1753C0.0762366 83.8546 -0.078173 84.589 -0.0776083 85.3315C-0.0770435 86.0739 0.0784831 86.8081 0.379023 87.487C0.679562 88.1659 1.1185 88.7746 1.66775 89.2741L8.71575 95.6851C9.63652 96.5224 10.8212 97.011 12.0645 97.0664C13.3078 97.1217 14.5312 96.7403 15.5227 95.9881L37.4977 79.3071L87.9477 125.333C88.7283 126.114 89.6618 126.724 90.6898 127.126ZM95.9417 34.9421L57.6617 64.0001L95.9417 93.0571V34.9421Z" fill="url(#paint0_linear_2207_68)"/>
</g>
</g>
<defs>
<filter id="filter0_d_2207_68" x="-8.41212" y="22.5918" width="144.746" height="113.41" filterUnits="userSpaceOnUse" color-interpolation-filters="sRGB">
<feFlood flood-opacity="0" result="BackgroundImageFix"/>
<feColorMatrix in="SourceAlpha" type="matrix" values="0 0 0 0 0 0 0 0 0 0 0 0 0 0 0 0 0 0 127 0" result="hardAlpha"/>
<feOffset/>
<feGaussianBlur stdDeviation="4.167"/>
<feColorMatrix type="matrix" values="0 0 0 0 0 0 0 0 0 0 0 0 0 0 0 0 0 0 0.25 0"/>
<feBlend mode="overlay" in2="BackgroundImageFix" result="effect1_dropShadow_2207_68"/>
<feBlend mode="normal" in="SourceGraphic" in2="effect1_dropShadow_2207_68" result="shape"/>
</filter>
<filter id="filter1_d_2207_68" x="79.6655" y="-8.00392" width="56.668" height="144.006" filterUnits="userSpaceOnUse" color-interpolation-filters="sRGB">
<feFlood flood-opacity="0" result="BackgroundImageFix"/>
<feColorMatrix in="SourceAlpha" type="matrix" values="0 0 0 0 0 0 0 0 0 0 0 0 0 0 0 0 0 0 127 0" result="hardAlpha"/>
<feOffset/>
<feGaussianBlur stdDeviation="4.167"/>
<feColorMatrix type="matrix" values="0 0 0 0 0 0 0 0 0 0 0 0 0 0 0 0 0 0 0.25 0"/>
<feBlend mode="overlay" in2="BackgroundImageFix" result="effect1_dropShadow_2207_68"/>
<feBlend mode="normal" in="SourceGraphic" in2="effect1_dropShadow_2207_68" result="shape"/>
</filter>
<linearGradient id="paint0_linear_2207_68" x1="63.9217" y1="0.330142" x2="63.9217" y2="127.67" gradientUnits="userSpaceOnUse">
<stop stop-color="white"/>
<stop offset="1" stop-color="white" stop-opacity="0"/>
</linearGradient>
<clipPath id="clip0_2207_68">
<rect width="128" height="128" fill="white"/>
</clipPath>
</defs>
</svg>
